<?xml version="1.0" standalone="no"?>
<!DOCTYPE svg PUBLIC "-//W3C//DTD SVG 1.1//EN" "http://www.w3.org/Graphics/SVG/1.1/DTD/svg11.dtd" >
<svg>
<metadata>
Created by FontForge 20110222 at Sun Sep 28 08:24:34 2014
 By deploy user
Copyright (c) 2009 by Luc[as] de Groot. Published by LucasFonts www.LucasFonts.com. All rights reserved.
</metadata>
<defs>
<font id="TheSansArabic-Bold" horiz-adv-x="0" >
  <font-face 
    font-family="TheSansArabic Bold"
    font-weight="530"
    font-stretch="normal"
    units-per-em="1000"
    panose-1="2 11 7 2 5 3 2 2 2 3"
    ascent="740"
    descent="-260"
    x-height="497"
    cap-height="675"
    bbox="-256 -320 1226 980"
    underline-thickness="104"
    underline-position="-91"
    unicode-range="U+000D-FEFC"
  />
<missing-glyph horiz-adv-x="550" 
d="M300 150h-150v250h50v-200h100v-50zM500 50h-450v450h450v-450zM350 350h-100v50h150v-250h-50v100h-100v50h100v50zM100 100h350v350h-350v-350z" />
    <glyph glyph-name="uniFEF5" unicode="&#xfedf;&#xfe82;" horiz-adv-x="597" arabic-form="isolated" 
d="M162 712l146 -533h-134l-143 515zM513 0h-441v104h309v601h132v-705zM25 767l-46 63l105 78q42 -39 94 -39q54 0 104 41v-96q-47 -38 -110 -38q-54 0 -89 32z" />
    <glyph glyph-name="uniFEF6" unicode="&#xfee0;&#xfe82;" horiz-adv-x="597" arabic-form="final" 
d="M72 0v104h309v601h132v-601h99v-104h-540zM162 712l146 -533h-134l-143 515zM25 767l-46 63l105 78q42 -39 94 -39q54 0 104 41v-96q-47 -38 -110 -38q-54 0 -89 32z" />
    <glyph glyph-name="uniFEF7" unicode="&#xfedf;&#xfe84;" horiz-adv-x="617" arabic-form="isolated" 
d="M223 544l105 -365h-134l-107 365h136zM533 0h-441v104h309v584h132v-688zM14 577v69q32 0 51 -4q-15 11 -15 36q0 42 35.5 70t103.5 28q38 0 59 -6l-12 -68q-18 5 -50 5q-45 0 -45 -29q0 -32 64 -32h61v-69h-252z" />
    <glyph glyph-name="uniFEF8" unicode="&#xfee0;&#xfe84;" horiz-adv-x="617" arabic-form="final" 
d="M632 0h-540v104h309v584h132v-584h99v-104zM223 544l105 -365h-134l-107 365h136zM14 577v69q32 0 51 -4q-15 11 -15 36q0 42 35.5 70t103.5 28q38 0 59 -6l-12 -68q-18 5 -50 5q-45 0 -45 -29q0 -32 64 -32h61v-69h-252z" />
    <glyph glyph-name="uniFEF9" unicode="&#xfedf;&#xfe88;" horiz-adv-x="597" arabic-form="isolated" 
d="M162 712l146 -533h-134l-143 515zM513 0h-441v104h309v601h132v-705zM132 -263v70q36 0 53 -4q-17 13 -17 38q0 40 36 68t103 28q38 0 59 -6l-12 -68q-35 5 -50 5q-21 0 -33 -8.5t-12 -20.5q0 -32 64 -32h61v-70h-252z" />
    <glyph glyph-name="uniFEFA" unicode="&#xfee0;&#xfe88;" horiz-adv-x="597" arabic-form="final" 
d="M72 0v104h309v601h132v-601h99v-104h-540zM162 712l146 -533h-134l-143 515zM132 -263v70q36 0 53 -4q-17 13 -17 38q0 40 36 68t103 28q38 0 59 -6l-12 -68q-35 5 -50 5q-21 0 -33 -8.5t-12 -20.5q0 -32 64 -32h61v-70h-252z" />
    <glyph glyph-name="uniFEFB" unicode="&#xfedf;&#xfe8e;" horiz-adv-x="597" arabic-form="isolated" 
d="M162 712l146 -533h-134l-143 515zM513 0h-441v104h309v601h132v-705z" />
    <glyph glyph-name="uniFEFC" unicode="&#xfee0;&#xfe8e;" horiz-adv-x="597" arabic-form="final" 
d="M612 0h-540v104h309v601h132v-601h99v-104zM162 712l146 -533h-134l-143 515z" />
    <glyph glyph-name="uni0621" unicode="&#x621;" horiz-adv-x="492" arabic-form="isolated" 
d="M42 0v103q59 0 92 -6q-35 17 -35 68q0 70 53.5 118.5t163.5 48.5q52 0 90 -7l-16 -104q-36 8 -80 8q-38 0 -58.5 -16.5t-20.5 -42.5q0 -67 114 -67h89v-103h-392z" />
    <glyph glyph-name="uni0622" unicode="&#x622;" horiz-adv-x="302" arabic-form="isolated" 
d="M85 0v705h132v-705h-132zM26 767l-46 63l105 78q42 -39 94 -39q54 0 104 41v-96q-47 -38 -110 -38q-54 0 -89 32z" />
    <glyph glyph-name="uni0623" unicode="&#x623;" horiz-adv-x="302" arabic-form="isolated" 
d="M85 0v675h132v-675h-132zM14 729v69q41 0 60 -4q-23 12 -23 44q0 40 36 70.5t109 30.5q38 0 59 -6l-12 -68q-25 5 -51 5q-50 0 -50 -34q0 -38 71 -38h59v-69h-258z" />
    <glyph glyph-name="uni0624" unicode="&#x624;" horiz-adv-x="586" arabic-form="isolated" 
d="M199 -252q-33 0 -71 3t-60 7l-21 3l8 108q78 -17 156 -17q173 0 173 133v15h-78q-268 0 -268 232q0 107 67.5 179t197.5 72q52 0 104.5 -8.5t78.5 -17.5l26 -9v-450q0 -111 -77 -180.5t-236 -69.5zM384 104v257q-38 18 -95 18q-55 0 -87 -37.5t-32 -97.5q0 -140 150 -140
h64zM159 548v75q37 0 56 -4q-19 9 -19 39q0 47 36 79.5t109 32.5q24 0 59 -5l-12 -75q-25 5 -50 5q-48 0 -48 -34q0 -38 69 -38h57v-75h-257z" />
    <glyph glyph-name="uni0625" unicode="&#x625;" horiz-adv-x="302" arabic-form="isolated" 
d="M85 0v705h132v-705h-132zM17 -263v70q36 0 53 -4q-17 13 -17 38q0 40 36 68t103 28q38 0 59 -6l-12 -68q-35 5 -50 5q-21 0 -33 -8.5t-12 -20.5q0 -32 64 -32h61v-70h-252z" />
    <glyph glyph-name="uni0626" unicode="&#x626;" horiz-adv-x="1000" arabic-form="isolated" 
d="M626 0h-209q-196 0 -281.5 76t-85.5 220q0 86 26 157l141 23q-34 -74 -34 -165q0 -109 55.5 -158t192.5 -49h68v360q93 19 201 19q126 0 178.5 -56t52.5 -165v-142h-128v128q0 72 -24.5 101.5t-86.5 29.5l-66 -6v-373zM44 551v75q37 0 56 -4q-19 10 -19 39q0 47 36 79.5
t109 32.5q24 0 59 -5l-12 -75q-25 5 -50 5q-48 0 -48 -34q0 -38 69 -38h57v-75h-257z" />
    <glyph glyph-name="uni0627" unicode="&#x627;" horiz-adv-x="302" arabic-form="isolated" 
d="M85 0v705h132v-705h-132z" />
    <glyph glyph-name="uni0628" unicode="&#x628;" horiz-adv-x="773" arabic-form="isolated" 
d="M699 0h-282q-196 0 -281.5 76t-85.5 220q0 86 26 157l141 23q-34 -74 -34 -165q0 -109 55.5 -158t192.5 -49h136v366h132v-470zM395 -219q-29 0 -49 20t-20 49q0 28 20 48.5t49 20.5t49 -20t20 -49q0 -28 -20 -48.5t-49 -20.5z" />
    <glyph glyph-name="uni0629" unicode="&#x629;" horiz-adv-x="594" arabic-form="isolated" 
d="M525 0h-219q-268 0 -268 231q0 108 68 180t193 72q114 0 170 -60.5t56 -169.5v-253zM396 104v133q0 142 -107 142q-55 0 -87 -37.5t-32 -97.5q0 -71 36.5 -105.5t113.5 -34.5h76zM373 546q-28 0 -47 19.5t-19 48.5q0 28 19 48t47 20t47 -19.5t19 -48.5q0 -28 -19 -48
t-47 -20zM207 546q-28 0 -47 19.5t-19 48.5q0 28 19 48t47 20t47.5 -19.5t19.5 -48.5q0 -28 -19.5 -48t-47.5 -20z" />
    <glyph glyph-name="uni062A" unicode="&#x62a;" horiz-adv-x="773" arabic-form="isolated" 
d="M699 0h-282q-196 0 -281.5 76t-85.5 220q0 86 26 157l141 23q-34 -74 -34 -165q0 -109 55.5 -158t192.5 -49h136v366h132v-470zM485 546q-28 0 -47 19.5t-19 48.5q0 28 19 48t47 20t47 -19.5t19 -48.5q0 -28 -19 -48t-47 -20zM319 546q-28 0 -47 19.5t-19 48.5
q0 28 19 48t47 20t47.5 -19.5t19.5 -48.5q0 -28 -19.5 -48t-47.5 -20z" />
    <glyph glyph-name="uni062B" unicode="&#x62b;" horiz-adv-x="773" arabic-form="isolated" 
d="M699 0h-282q-196 0 -281.5 76t-85.5 220q0 86 26 157l141 23q-34 -74 -34 -165q0 -109 55.5 -158t192.5 -49h136v366h132v-470zM401 688q-25 0 -43 18.5t-18 44.5t18 44.5t43 18.5q26 0 44 -18.5t18 -44.5t-18 -44.5t-44 -18.5zM485 546q-28 0 -47.5 19.5t-19.5 48.5
q0 28 19.5 48t47.5 20t47 -19.5t19 -48.5q0 -28 -19 -48t-47 -20zM319 546q-28 0 -47 19.5t-19 48.5q0 28 19 48t47 20t47 -19.5t19 -48.5q0 -28 -19 -48t-47 -20z" />
    <glyph glyph-name="uni062C" unicode="&#x62c;" horiz-adv-x="600" arabic-form="isolated" 
d="M527 0h-191q-189 0 -189 -110q0 -45 42 -75.5t124 -30.5l-9 -104q-142 0 -215 55.5t-73 146.5q0 100 80.5 161t243.5 61h68q5 40 5 76q0 98 -45 145t-150 47q-57 0 -115 -8v103q68 9 128 9q165 0 239 -72t74 -219q0 -83 -17 -185zM402 -219q-29 0 -49 20t-20 49
q0 28 20.5 48.5t48.5 20.5q29 0 49 -20t20 -49q0 -28 -20.5 -48.5t-48.5 -20.5z" />
    <glyph glyph-name="uni062D" unicode="&#x62d;" horiz-adv-x="588" arabic-form="isolated" 
d="M304 -320q-143 0 -215.5 54.5t-72.5 148.5q0 100 80.5 160.5t243.5 60.5h57q5 40 5 76q0 98 -45.5 145t-150.5 47q-56 0 -115 -8v103q70 9 128 9q165 0 239.5 -72t74.5 -219q0 -83 -17 -185h-180q-189 0 -189 -108q0 -48 42 -78t128 -30q78 0 171 18l9 -102
q-105 -20 -193 -20z" />
    <glyph glyph-name="uni062E" unicode="&#x62e;" horiz-adv-x="588" arabic-form="isolated" 
d="M304 -320q-143 0 -215.5 54.5t-72.5 148.5q0 100 80.5 160.5t243.5 60.5h57q5 40 5 76q0 98 -45.5 145t-150.5 47q-56 0 -115 -8v103q70 9 128 9q165 0 239.5 -72t74.5 -219q0 -83 -17 -185h-180q-189 0 -189 -108q0 -48 42 -78t128 -30q78 0 171 18l9 -102
q-105 -20 -193 -20zM247 554q-29 0 -49 20t-20 49t20 49t49 20t49 -20t20 -49t-20 -49t-49 -20z" />
    <glyph glyph-name="uni062F" unicode="&#x62f;" horiz-adv-x="521" arabic-form="isolated" 
d="M46 0v104h297q-5 112 -62 181t-174 99l32 110q168 -44 250.5 -145.5t82.5 -282.5v-66h-426z" />
    <glyph glyph-name="uni0630" unicode="&#x630;" horiz-adv-x="521" arabic-form="isolated" 
d="M46 0v104h297q-5 112 -62 181t-174 99l32 110q168 -44 250.5 -145.5t82.5 -282.5v-66h-426zM198 554q-29 0 -49 20t-20 49t20.5 49t48.5 20t48.5 -20t20.5 -49t-20.5 -49t-48.5 -20z" />
    <glyph glyph-name="uni0631" unicode="&#x631;" horiz-adv-x="397" arabic-form="isolated" 
d="M76 -254q-44 0 -84 10l10 105q41 -12 81 -12q54 0 81 31.5t27 108.5v481h132v-474q0 -53 -10.5 -94t-36.5 -78t-76.5 -57.5t-123.5 -20.5z" />
    <glyph glyph-name="uni0632" unicode="&#x632;" horiz-adv-x="397" arabic-form="isolated" 
d="M76 -254q-44 0 -84 10l10 105q41 -12 81 -12q54 0 81 31.5t27 108.5v481h132v-474q0 -53 -10.5 -94t-36.5 -78t-76.5 -57.5t-123.5 -20.5zM256 554q-29 0 -49 20t-20 49t20.5 49t48.5 20t48.5 -20t20.5 -49t-20.5 -49t-48.5 -20z" />
    <glyph glyph-name="uni0633" unicode="&#x633;" horiz-adv-x="1202" arabic-form="isolated" 
d="M305 -230q-258 0 -258 284q0 92 24 179l136 25q-28 -100 -28 -192q0 -193 137 -193q125 0 125 189v348h132v-185q0 -70 17 -99.5t57 -29.5q41 0 58.5 30.5t17.5 97.5v226h126v-251q0 -58 24.5 -76.5t94.5 -18.5h26q7 70 7 120q0 138 -29 268l129 18q32 -135 32 -277
q0 -115 -15 -233h-165q-86 0 -127 16t-59 53q-18 -42 -56 -58.5t-69 -16.5q-53 0 -75 31q1 -131 -72.5 -193t-189.5 -62z" />
    <glyph glyph-name="uni0634" unicode="&#x634;" horiz-adv-x="1202" arabic-form="isolated" 
d="M305 -230q-258 0 -258 284q0 92 24 179l136 25q-28 -100 -28 -192q0 -193 137 -193q125 0 125 189v348h132v-185q0 -70 17 -99.5t57 -29.5q41 0 58.5 30.5t17.5 97.5v226h126v-251q0 -58 24.5 -76.5t94.5 -18.5h26q7 70 7 120q0 138 -29 268l129 18q32 -135 32 -277
q0 -115 -15 -233h-165q-86 0 -127 16t-59 53q-18 -42 -56 -58.5t-69 -16.5q-53 0 -75 31q1 -131 -72.5 -193t-189.5 -62zM782 688q-25 0 -43 18.5t-18 44.5t18 44.5t43 18.5q26 0 44 -18.5t18 -44.5t-18 -44.5t-44 -18.5zM866 546q-28 0 -47.5 19.5t-19.5 48.5q0 28 19.5 48
t47.5 20t47 -19.5t19 -48.5q0 -28 -19 -48t-47 -20zM700 546q-28 0 -47 19.5t-19 48.5q0 28 19 48t47 20t47 -19.5t19 -48.5q0 -28 -19 -48t-47 -20z" />
    <glyph glyph-name="uni0635" unicode="&#x635;" horiz-adv-x="1063" arabic-form="isolated" 
d="M305 -230q-258 0 -258 284q0 92 24 179l136 25q-28 -100 -28 -192q0 -193 137 -193q125 0 125 189v408h132v-25q0 -82 -11 -148h1q32 88 101.5 137t151.5 49q103 0 157.5 -60t54.5 -167q0 -116 -74 -186t-233 -70h-154q-12 -116 -82.5 -173t-179.5 -57zM572 104h161
q88 0 123.5 38.5t35.5 105.5q0 130 -102 130q-79 0 -140.5 -81.5t-77.5 -192.5z" />
    <glyph glyph-name="uni0636" unicode="&#x636;" horiz-adv-x="1063" arabic-form="isolated" 
d="M305 -230q-258 0 -258 284q0 92 24 179l136 25q-28 -100 -28 -192q0 -193 137 -193q125 0 125 189v408h132v-25q0 -82 -11 -148h1q32 88 101.5 137t151.5 49q103 0 157.5 -60t54.5 -167q0 -116 -74 -186t-233 -70h-154q-12 -116 -82.5 -173t-179.5 -57zM572 104h161
q88 0 123.5 38.5t35.5 105.5q0 130 -102 130q-79 0 -140.5 -81.5t-77.5 -192.5zM802 554q-29 0 -49 20t-20 49t20.5 49t48.5 20t48.5 -20t20.5 -49t-20.5 -49t-48.5 -20z" />
    <glyph glyph-name="uni0637" unicode="&#x637;" horiz-adv-x="744" arabic-form="isolated" 
d="M0 0v104h122v601h132v-260q0 -82 -11 -148h1q32 88 101.5 137t151.5 49q103 0 157.5 -60t54.5 -167q0 -116 -74.5 -186t-232.5 -70h-402zM253 104h161q88 0 123.5 38.5t35.5 105.5q0 130 -102 130q-79 0 -140.5 -81.5t-77.5 -192.5z" />
    <glyph glyph-name="uni0638" unicode="&#x638;" horiz-adv-x="744" arabic-form="isolated" 
d="M0 0v104h122v601h132v-260q0 -82 -11 -148h1q32 88 101.5 137t151.5 49q103 0 157.5 -60t54.5 -167q0 -116 -74.5 -186t-232.5 -70h-402zM253 104h161q88 0 123.5 38.5t35.5 105.5q0 130 -102 130q-79 0 -140.5 -81.5t-77.5 -192.5zM484 554q-29 0 -49 20t-20 49t20.5 49
t48.5 20t48.5 -20t20.5 -49t-20.5 -49t-48.5 -20z" />
    <glyph glyph-name="uni0639" unicode="&#x639;" horiz-adv-x="530" arabic-form="isolated" 
d="M312 -255q-143 0 -213 48.5t-70 125.5q0 125 190 210q-61 2 -104.5 43.5t-43.5 108.5q0 92 66.5 147.5t188.5 55.5q22 0 46 -3t37 -5l13 -3l-17 -105q-41 13 -84 13q-52 0 -84.5 -28t-32.5 -71t27.5 -68.5t65.5 -25t79 17.5l51 24l41 -92l-175 -85q-69 -34 -99 -61.5
t-30 -59.5q0 -84 163 -84q34 0 71.5 3t57.5 7l21 3l8 -100q-87 -16 -173 -16z" />
    <glyph glyph-name="uni063A" unicode="&#x63a;" horiz-adv-x="530" arabic-form="isolated" 
d="M312 -255q-143 0 -213 48.5t-70 125.5q0 125 190 210q-61 2 -104.5 43.5t-43.5 108.5q0 92 66.5 147.5t188.5 55.5q22 0 46 -3t37 -5l13 -3l-17 -105q-41 13 -84 13q-52 0 -84.5 -28t-32.5 -71t27.5 -68.5t65.5 -25t79 17.5l51 24l41 -92l-175 -85q-69 -34 -99 -61.5
t-30 -59.5q0 -84 163 -84q34 0 71.5 3t57.5 7l21 3l8 -100q-87 -16 -173 -16zM274 554q-29 0 -49 20t-20 49t20.5 49t48.5 20t48.5 -20t20.5 -49t-20.5 -49t-48.5 -20z" />
    <glyph glyph-name="uni0641" unicode="&#x641;" horiz-adv-x="926" arabic-form="isolated" 
d="M885 250q0 -110 -71.5 -180t-183.5 -70h-213q-196 0 -281.5 76t-85.5 220q0 86 26 157l141 23q-34 -74 -34 -165q0 -107 53.5 -157t172.5 -50h33q-44 41 -44 130q0 109 70.5 179t183.5 70q110 0 171.5 -58.5t61.5 -174.5zM752 243q0 136 -109 136q-47 0 -80 -34t-33 -100
q0 -141 111 -141q49 0 80 36t31 103zM643 554q-29 0 -49 20t-20 49t20 49t49 20t49 -20t20 -49t-20 -49t-49 -20z" />
    <glyph glyph-name="uni0642" unicode="&#x642;" horiz-adv-x="884" arabic-form="isolated" 
d="M810 448v-687q-194 -11 -323 -11q-234 0 -337 74t-103 232q0 90 24 177l136 25q-28 -100 -28 -189q0 -118 71.5 -167t255.5 -49l165 6v141h-68q-267 0 -267 232q0 107 67 179t197 72q53 0 105.5 -8.5t78.5 -17.5zM681 104v257q-38 18 -94 18q-55 0 -87.5 -37.5
t-32.5 -97.5q0 -140 150 -140h64zM671 546q-28 0 -47 19.5t-19 48.5q0 28 19 48t47 20t47 -19.5t19 -48.5q0 -28 -19 -48t-47 -20zM505 546q-28 0 -47 19.5t-19 48.5q0 28 19 48t47 20t47.5 -19.5t19.5 -48.5q0 -28 -19.5 -48t-47.5 -20z" />
    <glyph glyph-name="uni0643" unicode="&#x643;" horiz-adv-x="857" arabic-form="isolated" 
d="M302 412v75q37 0 56 -4q-19 9 -19 39q0 47 36 79.5t109 32.5q24 0 59 -5l-12 -75q-25 5 -50 5q-48 0 -48 -34q0 -38 69 -38h57v-75h-257zM417 0q-196 0 -281.5 76t-85.5 220q0 86 26 157l141 23q-34 -74 -34 -165q0 -109 55.5 -158t192.5 -49h209v601h132v-705h-355z" />
    <glyph glyph-name="uni0644" unicode="&#x644;" horiz-adv-x="652" arabic-form="isolated" 
d="M441 66v639h132v-629q0 -154 -69 -230t-199 -76q-258 0 -258 284q0 92 24 179l136 25q-28 -100 -28 -192q0 -193 137 -193q125 0 125 193z" />
    <glyph glyph-name="uni0645" unicode="&#x645;" horiz-adv-x="806" arabic-form="isolated" 
d="M736 0h-219q-243 0 -264 194h-22q-44 0 -57 -28.5t-2 -98.5l52 -327h-127l-51 317q-17 112 28.5 176.5t160.5 64.5h24q18 82 83 133.5t168 51.5q114 0 170 -60.5t56 -169.5v-253zM608 104v133q0 142 -107 142q-55 0 -87 -37.5t-32 -97.5q0 -71 36.5 -105.5t113.5 -34.5
h76z" />
    <glyph glyph-name="uni0646" unicode="&#x646;" horiz-adv-x="656" arabic-form="isolated" 
d="M581 470v-399q0 -301 -282 -301q-125 0 -194.5 69.5t-69.5 214.5q0 92 24 179l136 25q-28 -100 -28 -192q0 -105 40.5 -149t101.5 -44q69 0 104.5 43.5t35.5 146.5v407h132zM299 345q-29 0 -49 20t-20 49q0 28 20 48.5t49 20.5t49 -20.5t20 -48.5t-20 -48.5t-49 -20.5z
" />
    <glyph glyph-name="uni0647" unicode="&#x647;" horiz-adv-x="594" arabic-form="isolated" 
d="M525 0h-219q-268 0 -268 231q0 108 68 180t193 72q114 0 170 -60.5t56 -169.5v-253zM396 104v133q0 142 -107 142q-55 0 -87 -37.5t-32 -97.5q0 -71 36.5 -105.5t113.5 -34.5h76z" />
    <glyph glyph-name="uni0648" unicode="&#x648;" horiz-adv-x="586" arabic-form="isolated" 
d="M199 -252q-33 0 -71 3t-60 7l-21 3l8 108q78 -17 156 -17q173 0 173 133v15h-78q-268 0 -268 232q0 107 67.5 179t197.5 72q52 0 104.5 -8.5t78.5 -17.5l26 -9v-450q0 -111 -77 -180.5t-236 -69.5zM384 104v257q-38 18 -95 18q-55 0 -87 -37.5t-32 -97.5q0 -140 150 -140
h64z" />
    <glyph glyph-name="uni0649" unicode="&#x649;" horiz-adv-x="1000" arabic-form="isolated" 
d="M626 0h-209q-196 0 -281.5 76t-85.5 220q0 86 26 157l141 23q-34 -74 -34 -165q0 -109 55.5 -158t192.5 -49h68v360q93 19 201 19q126 0 178.5 -56t52.5 -165v-142h-128v128q0 72 -24.5 101.5t-86.5 29.5l-66 -6v-373z" />
    <glyph glyph-name="uni064A" unicode="&#x64a;" horiz-adv-x="1000" arabic-form="isolated" 
d="M626 0h-209q-196 0 -281.5 76t-85.5 220q0 86 26 157l141 23q-34 -74 -34 -165q0 -109 55.5 -158t192.5 -49h68v360q93 19 201 19q126 0 178.5 -56t52.5 -165v-142h-128v128q0 72 -24.5 101.5t-86.5 29.5l-66 -6v-373zM541 -150q0 -28 -19 -48t-47 -20t-47 19.5t-19 48.5
q0 28 19 48t47 20t47 -19.5t19 -48.5zM376 -150q0 -28 -19.5 -48t-47.5 -20t-47 19.5t-19 48.5q0 28 19 48t47 20t47.5 -19.5t19.5 -48.5z" />
    <glyph glyph-name="uni064B" unicode="&#xfe70;" arabic-form="isolated" 
d="M17 778v64l224 32v-64zM18 883v64l224 32v-64z" />
    <glyph glyph-name="uni064C" unicode="&#xfe72;" arabic-form="isolated" 
d="M-21 771l-31 147l57 13l21 -95l45 10q-6 20 -6 38q0 41 29 68.5t71 27.5q40 0 62 -22.5t22 -55.5q0 -73 -89 -93zM129 858l26 6q15 2 24.5 12t9.5 23q0 26 -28 26q-16 0 -27 -11t-10 -28z" />
    <glyph glyph-name="uni064D" unicode="&#xfe74;" arabic-form="isolated" 
d="M30 -320v64l224 32v-64zM31 -215v64l224 32v-64z" />
    <glyph glyph-name="uni064E" unicode="&#xfe76;" arabic-form="isolated" 
d="M-16 779v71l224 32v-71z" />
    <glyph glyph-name="uni0650" unicode="&#xfe7a;" arabic-form="isolated" 
d="M-16 -206v71l224 32v-71z" />
    <glyph glyph-name="uni0651" unicode="&#xfe7c;" arabic-form="isolated" 
d="M106 844q-10 -17 -29.5 -28t-40.5 -11q-56 0 -66 69l-8 56l60 10l8 -56q4 -24 22 -24q27 0 24 32l-9 56l60 10l9 -57q5 -27 25 -27q29 0 24 38l-9 60l60 8l9 -56q7 -44 -17 -73.5t-71 -29.5q-33 0 -51 23z" />
    <glyph glyph-name="uni0652" unicode="&#xfe7e;" arabic-form="isolated" 
d="M15 899q0 -14 9 -22.5t23 -8.5q31 0 31 32q0 14 -8.5 23.5t-22.5 9.5t-23 -9.5t-9 -24.5zM-46 898q0 36 27.5 59t65.5 23q42 0 67.5 -20.5t25.5 -59.5q0 -36 -27.5 -59t-65.5 -23q-42 0 -67.5 20.5t-25.5 59.5z" />
    <glyph glyph-name="uni0671" unicode="&#x671;" horiz-adv-x="302" arabic-form="isolated" 
d="M108 815h112v15q0 65 -36 65q-27 0 -46.5 -23t-29.5 -57zM-10 754v61h46q20 65 59.5 102t95.5 37q46 0 72 -29t26 -89v-82h-299zM85 0v675h132v-675h-132z" />
    <glyph glyph-name="uni0679" unicode="&#x679;" horiz-adv-x="773" arabic-form="isolated" 
d="M492 644q0 48 -38 48q-32 0 -61.5 -32t-39.5 -75h67q72 0 72 59zM354 815v-78q0 -21 -7 -58h1q19 31 50.5 50t67.5 19q100 0 100 -97q0 -56 -40.5 -89t-113.5 -33h-129v286h71zM699 0h-282q-196 0 -281.5 76t-85.5 220q0 86 26 157l141 23q-34 -74 -34 -165
q0 -109 55.5 -158t192.5 -49h136v366h132v-470z" />
    <glyph glyph-name="uni067E" unicode="&#x67e;" horiz-adv-x="773" arabic-form="isolated" 
d="M699 0h-282q-196 0 -281.5 76t-85.5 220q0 86 26 157l141 23q-34 -74 -34 -165q0 -109 55.5 -158t192.5 -49h136v366h132v-470zM473 -233q0 -25 -17 -41.5t-41 -16.5q-25 0 -41.5 16.5t-16.5 41.5q0 24 16.5 41t41.5 17q24 0 41 -17t17 -41zM556 -109q0 -26 -18 -44
t-43 -18t-42.5 18t-17.5 44t17.5 43.5t42.5 17.5t43 -18t18 -43zM395 -109q0 -26 -18 -44t-43 -18q-26 0 -43.5 18t-17.5 44q0 25 17.5 43t43.5 18t43.5 -18t17.5 -43z" />
    <glyph glyph-name="uni0686" unicode="&#x686;" horiz-adv-x="617" arabic-form="isolated" 
d="M545 0h-209q-104 0 -146.5 -30t-42.5 -82q0 -38 27 -64.5t78 -35.5l-29 -106q-97 16 -152 66.5t-55 131.5q0 102 80 163t244 61h85q5 30 5 76q0 98 -45 145t-150 47q-57 0 -115 -8v103q70 9 128 9q165 0 239 -72t74 -219q0 -89 -16 -185zM467 -233q0 -25 -17 -41.5
t-41 -16.5q-25 0 -41.5 16.5t-16.5 41.5q0 24 16.5 41t41.5 17q24 0 41 -17t17 -41zM550 -109q0 -26 -18 -44t-43 -18t-42.5 18t-17.5 44t17.5 43.5t42.5 17.5t43 -18t18 -43zM389 -109q0 -26 -18 -44t-43 -18q-26 0 -43.5 18t-17.5 44q0 25 17.5 43t43.5 18t43.5 -18
t17.5 -43z" />
    <glyph glyph-name="uni0688" unicode="&#x688;" horiz-adv-x="521" arabic-form="isolated" 
d="M46 0v104h297q-5 112 -62 181t-174 99l32 110q168 -44 250.5 -145.5t82.5 -282.5v-66h-426zM319 674q0 48 -38 48q-32 0 -61.5 -32t-39.5 -75h67q72 0 72 59zM181 845v-78q0 -21 -7 -58h1q19 31 50.5 50t67.5 19q100 0 100 -97q0 -56 -40.5 -89t-113.5 -33h-129v286h71z
" />
    <glyph glyph-name="uni0691" unicode="&#x691;" horiz-adv-x="397" arabic-form="isolated" 
d="M76 -254q-44 0 -84 10l10 105q41 -12 81 -12q54 0 81 31.5t27 108.5v481h132v-474q0 -53 -10.5 -94t-36.5 -78t-76.5 -57.5t-123.5 -20.5zM324 674q0 48 -38 48q-32 0 -61.5 -32t-39.5 -75h67q72 0 72 59zM186 845v-78q0 -21 -7 -58h1q19 31 50.5 50t67.5 19
q100 0 100 -97q0 -56 -40.5 -89t-113.5 -33h-129v286h71z" />
    <glyph glyph-name="uni0698" unicode="&#x698;" horiz-adv-x="397" arabic-form="isolated" 
d="M76 -254q-44 0 -84 10l10 105q41 -12 81 -12q54 0 81 31.5t27 108.5v481h132v-474q0 -53 -10.5 -94t-36.5 -78t-76.5 -57.5t-123.5 -20.5zM247 688q-25 0 -43 18.5t-18 44.5t18 44.5t43 18.5q26 0 44 -18.5t18 -44.5t-18 -44.5t-44 -18.5zM331 546q-28 0 -47.5 19.5
t-19.5 48.5q0 28 19.5 48t47.5 20t47 -19.5t19 -48.5q0 -28 -19 -48t-47 -20zM165 546q-28 0 -47 19.5t-19 48.5q0 28 19 48t47 20t47 -19.5t19 -48.5q0 -28 -19 -48t-47 -20z" />
    <glyph glyph-name="uni06A4" unicode="&#x6a4;" horiz-adv-x="926" arabic-form="isolated" 
d="M885 250q0 -110 -71.5 -180t-183.5 -70h-213q-196 0 -281.5 76t-85.5 220q0 86 26 157l141 23q-34 -74 -34 -165q0 -107 53.5 -157t172.5 -50h33q-44 41 -44 130q0 109 70.5 179t183.5 70q110 0 171.5 -58.5t61.5 -174.5zM752 243q0 136 -109 136q-47 0 -80 -34t-33 -100
q0 -141 111 -141q49 0 80 36t31 103zM643 688q-25 0 -43 18.5t-18 44.5t18 44.5t43 18.5q26 0 44 -18.5t18 -44.5t-18 -44.5t-44 -18.5zM727 546q-28 0 -47.5 19.5t-19.5 48.5q0 28 19.5 48t47.5 20t47 -19.5t19 -48.5q0 -28 -19 -48t-47 -20zM561 546q-28 0 -47 19.5
t-19 48.5q0 28 19 48t47 20t47 -19.5t19 -48.5q0 -28 -19 -48t-47 -20z" />
    <glyph glyph-name="uni06A9" unicode="&#x6a9;" horiz-adv-x="846" arabic-form="isolated" 
d="M782 0h-365q-196 0 -281.5 76t-85.5 220q0 86 26 157l141 23q-34 -74 -34 -165q0 -109 55.5 -158t192.5 -49h221q-4 116 -64.5 185t-179.5 97v97l395 248v-131l-244 -147q108 -48 165.5 -139.5t57.5 -246.5v-67z" />
    <glyph glyph-name="uni06AF" unicode="&#x6af;" horiz-adv-x="846" arabic-form="isolated" 
d="M782 0h-365q-196 0 -281.5 76t-85.5 220q0 86 26 157l141 23q-34 -74 -34 -165q0 -109 55.5 -158t192.5 -49h221q-4 116 -64.5 185t-179.5 97v85l395 249v-120l-244 -147q108 -48 165.5 -139.5t57.5 -246.5v-67zM408 553v113l395 249v-114z" />
    <glyph glyph-name="uni06BA" unicode="&#x6ba;" horiz-adv-x="667" arabic-form="isolated" 
d="M593 470v-399q0 -301 -282 -301q-125 0 -194.5 69.5t-69.5 214.5q0 92 24 179l136 25q-28 -100 -28 -192q0 -105 40.5 -149t101.5 -44q69 0 104.5 43.5t35.5 146.5v407h132z" />
    <glyph glyph-name="uni06BE" unicode="&#x6be;" horiz-adv-x="786" arabic-form="isolated" 
d="M727 0h-707v104h83l47 -5q-26 24 -26 64q0 75 51.5 121.5t140.5 46.5q95 0 139.5 -56t44.5 -148v-23h101v12q0 157 -67.5 231t-215.5 74q-104 0 -214 -36l-12 94q120 39 242 39q193 0 293 -99t100 -312v-107zM392 100v29q0 119 -85 119q-34 0 -54.5 -18.5t-20.5 -50.5
q0 -40 26.5 -59.5t67.5 -19.5h66z" />
    <glyph glyph-name="uni06C0" unicode="&#x6c0;" horiz-adv-x="594" arabic-form="isolated" 
d="M525 0h-219q-268 0 -268 231q0 108 68 180t193 72q114 0 170 -60.5t56 -169.5v-253zM396 104v133q0 142 -107 142q-55 0 -87 -37.5t-32 -97.5q0 -71 36.5 -105.5t113.5 -34.5h76zM151 554v75q37 0 56 -4q-19 9 -19 39q0 47 36 79.5t109 32.5q24 0 59 -5l-12 -75
q-25 5 -50 5q-48 0 -48 -34q0 -38 69 -38h57v-75h-257z" />
    <glyph glyph-name="uni06C1" unicode="&#x6c1;" horiz-adv-x="594" arabic-form="isolated" 
d="M525 0h-219q-268 0 -268 231q0 108 68 180t193 72q114 0 170 -60.5t56 -169.5v-253zM396 104v133q0 142 -107 142q-55 0 -87 -37.5t-32 -97.5q0 -71 36.5 -105.5t113.5 -34.5h76z" />
    <glyph glyph-name="uniFBFC" unicode="&#x6cc;" horiz-adv-x="1000" arabic-form="isolated" 
d="M626 0h-209q-196 0 -281.5 76t-85.5 220q0 86 26 157l141 23q-34 -74 -34 -165q0 -109 55.5 -158t192.5 -49h68v360q93 19 201 19q126 0 178.5 -56t52.5 -165v-142h-128v128q0 72 -24.5 101.5t-86.5 29.5l-66 -6v-373z" />
    <glyph glyph-name="uni06D2" unicode="&#x6d2;" horiz-adv-x="750" arabic-form="isolated" 
d="M694 0h-630q-16 118 23 230t122 182.5t187 70.5q89 0 127 -45t38 -129v-59h-127v37q0 46 -13.5 67.5t-48.5 21.5q-46 0 -89 -44t-67.5 -107t-24.5 -121h503v-104z" />
    <glyph glyph-name="uni06D3" unicode="&#x6d3;" horiz-adv-x="750" arabic-form="isolated" 
d="M694 0h-630q-16 118 23 230t122 182.5t187 70.5q89 0 127 -45t38 -129v-59h-127v37q0 46 -13.5 67.5t-48.5 21.5q-46 0 -89 -44t-67.5 -107t-24.5 -121h503v-104zM189 554v75q37 0 56 -4q-19 9 -19 39q0 47 36 79.5t109 32.5q24 0 59 -5l-12 -75q-25 5 -50 5
q-48 0 -48 -34q0 -38 69 -38h57v-75h-257z" />
    <glyph glyph-name="uniFB51" unicode="&#x671;" horiz-adv-x="302" arabic-form="final" 
d="M85 0v675h132v-571h100v-104h-232zM-10 754v61h46q20 65 59.5 102t95.5 37q46 0 72 -29t26 -89v-82h-299zM108 815h112v15q0 65 -36 65q-27 0 -46.5 -23t-29.5 -57z" />
    <glyph glyph-name="uniFB57" unicode="&#x67e;" horiz-adv-x="782" arabic-form="final" 
d="M797 0h-380q-196 0 -281.5 76t-85.5 220q0 86 26 157l141 23q-34 -74 -34 -165q0 -109 55.5 -158t192.5 -49h136v366h132v-366h98v-104zM395 -109q0 -26 -18 -44t-43 -18q-26 0 -43.5 18t-17.5 44q0 25 17.5 43t43.5 18t43.5 -18t17.5 -43zM556 -109q0 -26 -18 -44
t-43 -18t-42.5 18t-17.5 44t17.5 43.5t42.5 17.5t43 -18t18 -43zM473 -233q0 -25 -17 -41.5t-41 -16.5q-25 0 -41.5 16.5t-16.5 41.5q0 24 16.5 41t41.5 17q24 0 41 -17t17 -41z" />
    <glyph glyph-name="uniFB58" unicode="&#x67e;" horiz-adv-x="394" arabic-form="initial" 
d="M0 0v104h188v366h132v-470h-320zM237 -233q0 -25 -17 -41.5t-41 -16.5q-25 0 -41.5 16.5t-16.5 41.5q0 24 16.5 41t41.5 17q24 0 41 -17t17 -41zM320 -109q0 -26 -18 -44t-43 -18t-42.5 18t-17.5 44t17.5 43.5t42.5 17.5t43 -18t18 -43zM159 -109q0 -26 -18 -44t-43 -18
q-26 0 -43.5 18t-17.5 44q0 25 17.5 43t43.5 18t43.5 -18t17.5 -43z" />
    <glyph glyph-name="uniFB59" unicode="&#x67e;" horiz-adv-x="403" arabic-form="medial" 
d="M0 0v104h188v366h132v-366h98v-104h-418zM159 -109q0 -26 -18 -44t-43 -18q-26 0 -43.5 18t-17.5 44q0 25 17.5 43t43.5 18t43.5 -18t17.5 -43zM320 -109q0 -26 -18 -44t-43 -18t-42.5 18t-17.5 44t17.5 43.5t42.5 17.5t43 -18t18 -43zM237 -233q0 -25 -17 -41.5
t-41 -16.5q-25 0 -41.5 16.5t-16.5 41.5q0 24 16.5 41t41.5 17q24 0 41 -17t17 -41z" />
    <glyph glyph-name="uniFB67" unicode="&#x679;" horiz-adv-x="782" arabic-form="final" 
d="M797 0h-380q-196 0 -281.5 76t-85.5 220q0 86 26 157l141 23q-34 -74 -34 -165q0 -109 55.5 -158t192.5 -49h136v366h132v-366h98v-104zM354 815v-78q0 -21 -7 -58h1q19 31 50.5 50t67.5 19q100 0 100 -97q0 -56 -40.5 -89t-113.5 -33h-129v286h71zM492 644q0 48 -38 48
q-32 0 -61.5 -32t-39.5 -75h67q72 0 72 59z" />
    <glyph glyph-name="uniFB68" unicode="&#x679;" horiz-adv-x="394" arabic-form="initial" 
d="M285 674q0 48 -38 48q-32 0 -61.5 -32t-39.5 -75h67q72 0 72 59zM147 845v-78q0 -21 -7 -58h1q19 31 50.5 50t67.5 19q100 0 100 -97q0 -56 -40.5 -89t-113.5 -33h-129v286h71zM0 0v104h188v366h132v-470h-320z" />
    <glyph glyph-name="uniFB69" unicode="&#x679;" horiz-adv-x="403" arabic-form="medial" 
d="M0 0v104h188v366h132v-366h98v-104h-418zM147 845v-78q0 -21 -7 -58h1q19 31 50.5 50t67.5 19q100 0 100 -97q0 -56 -40.5 -89t-113.5 -33h-129v286h71zM285 674q0 48 -38 48q-32 0 -61.5 -32t-39.5 -75h67q72 0 72 59z" />
    <glyph glyph-name="uniFB6B" unicode="&#x6a4;" horiz-adv-x="941" arabic-form="final" 
d="M956 104v-104h-539q-196 0 -281.5 76t-85.5 220q0 86 26 157l141 23q-34 -74 -34 -165q0 -107 53.5 -157t172.5 -50h33q-44 41 -44 130q0 109 70.5 179t183.5 70q110 0 171.5 -58.5t61.5 -174.5q0 -45 -15 -86.5t-43 -64.5q42 5 76 5h53zM752 243q0 136 -109 136
q-47 0 -80 -34t-33 -100q0 -141 111 -141q49 0 80 36t31 103zM643 688q-25 0 -43 18.5t-18 44.5t18 44.5t43 18.5q26 0 44 -18.5t18 -44.5t-18 -44.5t-44 -18.5zM727 546q-28 0 -47.5 19.5t-19.5 48.5q0 28 19.5 48t47.5 20t47 -19.5t19 -48.5q0 -28 -19 -48t-47 -20z
M561 546q-28 0 -47 19.5t-19 48.5q0 28 19 48t47 20t47 -19.5t19 -48.5q0 -28 -19 -48t-47 -20z" />
    <glyph glyph-name="uniFB6C" unicode="&#x6a4;" horiz-adv-x="612" arabic-form="initial" 
d="M543 0h-543v104h57q16 0 30 -2t20 -4l6 -1q-56 41 -56 143t68 172.5t192 70.5q114 0 170 -60.5t56 -169.5v-253zM414 104v133q0 142 -107 142q-55 0 -87 -37.5t-32 -97.5q0 -71 36.5 -105.5t113.5 -34.5h76zM304 688q-25 0 -43 18.5t-18 44.5t18 44.5t43 18.5
q26 0 44 -18.5t18 -44.5t-18 -44.5t-44 -18.5zM388 546q-28 0 -47.5 19.5t-19.5 48.5q0 28 19.5 48t47.5 20t47 -19.5t19 -48.5q0 -28 -19 -48t-47 -20zM222 546q-28 0 -47 19.5t-19 48.5q0 28 19 48t47 20t47 -19.5t19 -48.5q0 -28 -19 -48t-47 -20z" />
    <glyph glyph-name="uniFB6D" unicode="&#x6a4;" horiz-adv-x="600" arabic-form="medial" 
d="M0 0v104h42l61 -5q-46 48 -46 135q0 109 70.5 179t183.5 70q110 0 171.5 -58.5t61.5 -174.5q0 -45 -15 -86.5t-43 -64.5q42 5 76 5h53v-104h-615zM300 104q49 0 80 36t31 103q0 136 -109 136q-47 0 -80 -34t-33 -100q0 -141 111 -141zM302 688q-25 0 -43 18.5t-18 44.5
t18 44.5t43 18.5q26 0 44 -18.5t18 -44.5t-18 -44.5t-44 -18.5zM386 546q-28 0 -47.5 19.5t-19.5 48.5q0 28 19.5 48t47.5 20t47 -19.5t19 -48.5q0 -28 -19 -48t-47 -20zM220 546q-28 0 -47 19.5t-19 48.5q0 28 19 48t47 20t47 -19.5t19 -48.5q0 -28 -19 -48t-47 -20z" />
    <glyph glyph-name="uniFB7B" unicode="&#x686;" horiz-adv-x="621" arabic-form="final" 
d="M636 0h-300q-104 0 -146.5 -30t-42.5 -82q0 -38 27 -64.5t78 -35.5l-29 -106q-97 16 -152 66.5t-55 131.5q0 102 80 163t244 61h85q5 30 5 76q0 98 -45 145t-150 47q-57 0 -115 -8v103q70 9 128 9q165 0 239 -72t74 -219q0 -36 -3 -81h78v-104zM389 -109q0 -26 -18 -44
t-43 -18q-26 0 -43.5 18t-17.5 44q0 25 17.5 43t43.5 18t43.5 -18t17.5 -43zM550 -109q0 -26 -18 -44t-43 -18t-42.5 18t-17.5 44t17.5 43.5t42.5 17.5t43 -18t18 -43zM467 -233q0 -25 -17 -41.5t-41 -16.5q-25 0 -41.5 16.5t-16.5 41.5q0 24 16.5 41t41.5 17q24 0 41 -17
t17 -41z" />
    <glyph glyph-name="uniFB7C" unicode="&#x686;" horiz-adv-x="578" arabic-form="initial" 
d="M0 0v104h387q5 40 5 76q0 98 -45.5 145t-150.5 47q-56 0 -115 -8v103q70 9 128 9q165 0 239.5 -72t74.5 -219q0 -83 -17 -185h-506zM296 -233q0 -25 -17 -41.5t-41 -16.5q-25 0 -41.5 16.5t-16.5 41.5q0 24 16.5 41t41.5 17q24 0 41 -17t17 -41zM379 -109q0 -26 -18 -44
t-43 -18t-42.5 18t-17.5 44t17.5 43.5t42.5 17.5q26 0 43.5 -18t17.5 -43zM218 -109q0 -26 -18 -44t-43 -18q-26 0 -43.5 18t-17.5 44q0 25 18 43t43 18t43 -18t18 -43z" />
    <glyph glyph-name="uniFB7D" unicode="&#x686;" horiz-adv-x="582" arabic-form="medial" 
d="M0 0v104h387q5 40 5 76q0 98 -45.5 145t-150.5 47q-56 0 -115 -8v103q70 9 128 9q165 0 239.5 -72t74.5 -219q0 -42 -4 -81h78v-104h-597zM218 -109q0 -26 -18 -44t-43 -18q-26 0 -43.5 18t-17.5 44q0 25 18 43t43 18t43 -18t18 -43zM379 -109q0 -26 -18 -44t-43 -18
t-42.5 18t-17.5 44t17.5 43.5t42.5 17.5q26 0 43.5 -18t17.5 -43zM296 -233q0 -25 -17 -41.5t-41 -16.5q-25 0 -41.5 16.5t-16.5 41.5q0 24 16.5 41t41.5 17q24 0 41 -17t17 -41z" />
    <glyph glyph-name="uniFB89" unicode="&#x688;" horiz-adv-x="521" arabic-form="final" 
d="M46 0v104h297q-5 112 -62 181t-174 99l32 110q159 -42 241 -134.5t91 -255.5h65v-104h-490zM181 845v-78q0 -21 -7 -58h1q19 31 50.5 50t67.5 19q100 0 100 -97q0 -56 -40.5 -89t-113.5 -33h-129v286h71zM319 674q0 48 -38 48q-32 0 -61.5 -32t-39.5 -75h67q72 0 72 59z
" />
    <glyph glyph-name="uniFB8B" unicode="&#x698;" horiz-adv-x="406" arabic-form="final" 
d="M76 -254q-44 0 -84 10l10 105q41 -12 81 -12q54 0 81 31.5t27 108.5v481h132v-366h98v-104h-98v-4q0 -53 -10.5 -94t-36.5 -78t-76.5 -57.5t-123.5 -20.5zM331 546q-28 0 -47.5 19.5t-19.5 48.5q0 28 19.5 48t47.5 20t47 -19.5t19 -48.5q0 -28 -19 -48t-47 -20zM165 546
q-28 0 -47 19.5t-19 48.5q0 28 19 48t47 20t47 -19.5t19 -48.5q0 -28 -19 -48t-47 -20zM247 688q-25 0 -43 18.5t-18 44.5t18 44.5t43 18.5q26 0 44 -18.5t18 -44.5t-18 -44.5t-44 -18.5z" />
    <glyph glyph-name="uniFB8D" unicode="&#x691;" horiz-adv-x="406" arabic-form="final" 
d="M76 -254q-44 0 -84 10l10 105q41 -12 81 -12q54 0 81 31.5t27 108.5v481h132v-366h98v-104h-98v-4q0 -53 -10.5 -94t-36.5 -78t-76.5 -57.5t-123.5 -20.5zM186 845v-78q0 -21 -7 -58h1q19 31 50.5 50t67.5 19q100 0 100 -97q0 -56 -40.5 -89t-113.5 -33h-129v286h71z
M324 674q0 48 -38 48q-32 0 -61.5 -32t-39.5 -75h67q72 0 72 59z" />
    <glyph glyph-name="uniFB8F" unicode="&#x6a9;" horiz-adv-x="846" arabic-form="final" 
d="M861 0h-444q-196 0 -281.5 76t-85.5 220q0 86 26 157l141 23q-34 -74 -34 -165q0 -109 55.5 -158t192.5 -49h221q-4 116 -64.5 185t-179.5 97v97l395 248v-131l-244 -147q209 -94 222 -349h80v-104z" />
    <glyph glyph-name="uniFB90" unicode="&#x6a9;" horiz-adv-x="491" arabic-form="initial" 
d="M0 0v104h297q-4 116 -64.5 185t-180.5 97v97l396 248v-131l-244 -147q107 -48 164.5 -139.5t57.5 -246.5v-67h-426z" />
    <glyph glyph-name="uniFB91" unicode="&#x6a9;" horiz-adv-x="491" arabic-form="medial" 
d="M0 0v104h297q-4 116 -64.5 185t-180.5 97v97l396 248v-131l-244 -147q101 -46 157.5 -129t63.5 -220h81v-104h-506z" />
    <glyph glyph-name="uniFB93" unicode="&#x6af;" horiz-adv-x="846" arabic-form="final" 
d="M417 0q-196 0 -281.5 76t-85.5 220q0 86 26 157l141 23q-34 -74 -34 -165q0 -109 55.5 -158t192.5 -49h221q-4 116 -64.5 185t-179.5 97v85l395 249v-120l-244 -147q209 -94 222 -349h80v-104h-444zM408 553v113l395 249v-114z" />
    <glyph glyph-name="uniFB94" unicode="&#x6af;" horiz-adv-x="491" arabic-form="initial" 
d="M0 0v104h297q-4 116 -64.5 185t-180.5 97v85l396 249v-120l-244 -147q107 -48 164.5 -139.5t57.5 -246.5v-67h-426zM52 553v113l396 249v-114z" />
    <glyph glyph-name="uniFB95" unicode="&#x6af;" horiz-adv-x="491" arabic-form="medial" 
d="M0 0v104h297q-4 116 -64.5 185t-180.5 97v85l396 249v-120l-244 -147q101 -46 157.5 -129t63.5 -220h81v-104h-506zM52 553v113l396 249v-114z" />
    <glyph glyph-name="uniFB9F" unicode="&#x6ba;" horiz-adv-x="665" arabic-form="final" 
d="M581 470v-366h99v-104h-104q-30 -230 -277 -230q-125 0 -194.5 69.5t-69.5 214.5q0 92 24 179l136 25q-28 -100 -28 -192q0 -105 40.5 -149t101.5 -44q69 0 104.5 43.5t35.5 146.5v407h132z" />
    <glyph glyph-name="uniFBA5" unicode="&#x6c0;" horiz-adv-x="595" arabic-form="final" 
d="M610 0h-304q-268 0 -268 232q0 107 67.5 179t197.5 72q52 0 104.5 -8.5t78.5 -17.5l26 -9v-344h98v-104zM384 104v257q-38 18 -95 18q-55 0 -87 -37.5t-32 -97.5q0 -140 150 -140h64zM151 554v75q37 0 56 -4q-19 9 -19 39q0 47 36 79.5t109 32.5q24 0 59 -5l-12 -75
q-25 5 -50 5q-48 0 -48 -34q0 -38 69 -38h57v-75h-257z" />
    <glyph glyph-name="uniFBA7" unicode="&#x6c1;" horiz-adv-x="565" arabic-form="final" 
d="M580 104v-104h-27q-123 0 -181 52.5t-58 158.5v30q-109 -23 -195 -153l-82 68q137 200 355 200l50 -2v-111q0 -77 27 -108t94 -31h17z" />
    <glyph glyph-name="uniFBA8" unicode="&#x6c1;" horiz-adv-x="346" arabic-form="initial" 
d="M0 0v104h140v366h132v-470h-272zM112 -242q-28 0 -44 18.5t-16 47.5q0 39 34.5 75t105.5 54l21 -46q-50 -26 -50 -54q0 -9 4 -20t4 -19q0 -23 -16 -39.5t-43 -16.5z" />
    <glyph glyph-name="uniFBA9" unicode="&#x6c1;" horiz-adv-x="719" arabic-form="medial" 
d="M734 104v-104h-112v-260h-121q-138 0 -213.5 68t-75.5 189q0 58 11 99l-2 1q-22 -45 -62.5 -71t-94.5 -26h-64v104h74q62 0 98.5 48t36.5 122v96h127v-343q0 -182 158 -184v261h240zM96 -267q-30 0 -47.5 20.5t-17.5 51.5q0 81 100 149l37 -37q-36 -35 -36 -63
q0 -11 11 -28.5t11 -36.5q0 -22 -16.5 -39t-41.5 -17z" />
    <glyph glyph-name="uniFBAB" unicode="&#x6be;" horiz-adv-x="661" arabic-form="final" 
d="M676 104v-104h-92q-32 0 -78 8v-2q86 -25 86 -119t-60 -150.5t-163 -56.5q-126 0 -191 85t-74 235h-104v104h105q11 126 68 233.5t158 174.5q243 -124 243 -278q0 -98 -69 -134v-2q58 6 78 6h93zM306 0h-72q16 -216 142 -216q41 0 64 26t23 72q0 54 -40.5 86t-116.5 32z
M340 361q-95 -88 -107 -257h83q130 0 130 109q0 79 -106 148z" />
    <glyph glyph-name="uniFBAF" unicode="&#x6d2;" horiz-adv-x="791" arabic-form="final" 
d="M694 -320h-630q-13 113 27.5 208.5t136.5 155.5t232 60h346v-104h-363q-118 0 -185 -68t-67 -148h503v-104z" />
    <glyph glyph-name="uniFBB1" unicode="&#x6d3;" horiz-adv-x="791" arabic-form="final" 
d="M694 -320h-630q-13 113 27.5 208.5t136.5 155.5t232 60h346v-104h-363q-118 0 -185 -68t-67 -148h503v-104zM44 190v75q37 0 56 -4q-19 9 -19 39q0 47 36 79.5t109 32.5q24 0 59 -5l-12 -75q-25 5 -50 5q-48 0 -48 -34q0 -38 69 -38h57v-75h-257z" />
    <glyph glyph-name="uniFBE8" unicode="&#x649;" horiz-adv-x="346" arabic-form="initial" 
d="M0 0v104h140v366h132v-470h-272z" />
    <glyph glyph-name="uniFBE9" unicode="&#x649;" horiz-adv-x="355" arabic-form="medial" 
d="M0 0v104h140v366h132v-366h98v-104h-370z" />
    <glyph glyph-name="uniFBFD" unicode="&#x6cc;" horiz-adv-x="1000" arabic-form="final" 
d="M626 0h-209q-196 0 -281.5 76t-85.5 220q0 86 26 157l141 23q-34 -74 -34 -165q0 -109 55.5 -158t192.5 -49h68v360q93 19 201 19q126 0 178.5 -56t52.5 -165v-158h84v-104h-212v248q0 72 -24.5 101.5t-86.5 29.5l-66 -6v-373z" />
    <glyph glyph-name="uniFBFE" unicode="&#x6cc;" horiz-adv-x="394" arabic-form="initial" 
d="M0 0v104h188v366h132v-470h-320zM317 -150q0 -28 -19 -48t-47 -20t-47 19.5t-19 48.5q0 28 19 48t47 20t47 -19.5t19 -48.5zM152 -150q0 -28 -19.5 -48t-47.5 -20t-47 19.5t-19 48.5q0 28 19 48t47 20t47.5 -19.5t19.5 -48.5z" />
    <glyph glyph-name="uniFBFF" unicode="&#x6cc;" horiz-adv-x="403" arabic-form="medial" 
d="M0 0v104h188v366h132v-366h98v-104h-418zM152 -150q0 -28 -19.5 -48t-47.5 -20t-47 19.5t-19 48.5q0 28 19 48t47 20t47.5 -19.5t19.5 -48.5zM317 -150q0 -28 -19 -48t-47 -20t-47 19.5t-19 48.5q0 28 19 48t47 20t47 -19.5t19 -48.5z" />
    <glyph glyph-name="uniFDF2" unicode="&#xfdf2;" horiz-adv-x="1468" arabic-form="isolated" 
d="M306 0q-268 0 -268 232q0 107 67.5 179t197.5 72q52 0 104.5 -8.5t78.5 -17.5l26 -9v-344h208v528h132v-528h209v601h132v-705h-887zM384 104v257q-38 18 -95 18q-55 0 -87 -37.5t-32 -97.5q0 -140 150 -140h64z" />
    <glyph glyph-name="uniFE78" unicode="&#xfe78;" horiz-adv-x="404" arabic-form="isolated" 
d="M6 787l-12 53l77 16q-6 14 -6 33q0 40 28.5 65.5t70.5 25.5q39 0 61 -20.5t22 -52.5q0 -69 -95 -89zM129 869l18 3q40 9 40 30q0 25 -27 25q-16 0 -26 -10t-10 -27z" />
    <glyph glyph-name="uniFE82" unicode="&#x622;" horiz-adv-x="302" arabic-form="final" 
d="M85 0v705h132v-601h100v-104h-232zM26 767l-46 63l105 78q42 -39 94 -39q54 0 104 41v-96q-47 -38 -110 -38q-54 0 -89 32z" />
    <glyph glyph-name="uniFE84" unicode="&#x623;" horiz-adv-x="302" arabic-form="final" 
d="M85 0v675h132v-571h100v-104h-232zM14 729v69q41 0 60 -4q-23 12 -23 44q0 40 36 70.5t109 30.5q38 0 59 -6l-12 -68q-25 5 -51 5q-50 0 -50 -34q0 -38 71 -38h59v-69h-258z" />
    <glyph glyph-name="uniFE86" unicode="&#x624;" horiz-adv-x="595" arabic-form="final" 
d="M199 -252q-33 0 -71 3t-60 7l-21 3l8 108q78 -17 156 -17q173 0 173 133v15h-78q-268 0 -268 232q0 107 67.5 179t197.5 72q52 0 104.5 -8.5t78.5 -17.5l26 -9v-344h98v-104h-98v-2q0 -111 -77 -180.5t-236 -69.5zM384 104v257q-38 18 -95 18q-55 0 -87 -37.5t-32 -97.5
q0 -140 150 -140h64zM159 548v75q37 0 56 -4q-19 9 -19 39q0 47 36 79.5t109 32.5q24 0 59 -5l-12 -75q-25 5 -50 5q-48 0 -48 -34q0 -38 69 -38h57v-75h-257z" />
    <glyph glyph-name="uniFE88" unicode="&#x625;" horiz-adv-x="302" arabic-form="final" 
d="M85 0v705h132v-601h100v-104h-232zM5 -263v70q36 0 53 -4q-17 13 -17 38q0 40 36 68t103 28q38 0 59 -6l-12 -68q-35 5 -50 5q-21 0 -33 -8.5t-12 -20.5q0 -32 64 -32h61v-70h-252z" />
    <glyph glyph-name="uniFE8A" unicode="&#x626;" horiz-adv-x="1000" arabic-form="final" 
d="M44 551v75q37 0 56 -4q-19 10 -19 39q0 47 36 79.5t109 32.5q24 0 59 -5l-12 -75q-25 5 -50 5q-48 0 -48 -34q0 -38 69 -38h57v-75h-257zM626 0h-209q-196 0 -281.5 76t-85.5 220q0 86 26 157l141 23q-34 -74 -34 -165q0 -109 55.5 -158t192.5 -49h68v360q93 19 201 19
q126 0 178.5 -56t52.5 -165v-158h84v-104h-212v248q0 72 -24.5 101.5t-86.5 29.5l-66 -6v-373z" />
    <glyph glyph-name="uniFE8B" unicode="&#x626;" horiz-adv-x="346" arabic-form="initial" 
d="M57 549v75q37 0 56 -4q-19 10 -19 39q0 47 36 79.5t109 32.5q24 0 59 -5l-12 -75q-25 5 -50 5q-48 0 -48 -34q0 -38 69 -38h57v-75h-257zM0 0v104h140v366h132v-470h-272z" />
    <glyph glyph-name="uniFE8C" unicode="&#x626;" horiz-adv-x="355" arabic-form="medial" 
d="M0 0v104h140v366h132v-366h98v-104h-370zM57 551v75q37 0 56 -4q-19 10 -19 39q0 47 36 79.5t109 32.5q24 0 59 -5l-12 -75q-25 5 -50 5q-48 0 -48 -34q0 -38 69 -38h57v-75h-257z" />
    <glyph glyph-name="uniFE8E" unicode="&#x627;" horiz-adv-x="302" arabic-form="final" 
d="M85 0v705h132v-601h100v-104h-232z" />
    <glyph glyph-name="uniFE90" unicode="&#x628;" horiz-adv-x="782" arabic-form="final" 
d="M417 0q-196 0 -281.5 76t-85.5 220q0 86 26 157l141 23q-34 -74 -34 -165q0 -109 55.5 -158t192.5 -49h136v366h132v-366h98v-104h-380zM395 -219q-29 0 -49 20t-20 49q0 28 20 48.5t49 20.5t49 -20t20 -49q0 -28 -20 -48.5t-49 -20.5z" />
    <glyph glyph-name="uniFE91" unicode="&#x628;" horiz-adv-x="346" arabic-form="initial" 
d="M0 0v104h140v366h132v-470h-272zM132 -219q-29 0 -49 20t-20 49q0 28 20.5 48.5t48.5 20.5q29 0 49 -20t20 -49q0 -28 -20.5 -48.5t-48.5 -20.5z" />
    <glyph glyph-name="uniFE92" unicode="&#x628;" horiz-adv-x="355" arabic-form="medial" 
d="M0 0v104h140v366h132v-366h98v-104h-370zM132 -219q-29 0 -49 20t-20 49q0 28 20.5 48.5t48.5 20.5q29 0 49 -20t20 -49q0 -28 -20.5 -48.5t-48.5 -20.5z" />
    <glyph glyph-name="uniFE94" unicode="&#x629;" horiz-adv-x="595" arabic-form="final" 
d="M610 0h-304q-268 0 -268 232q0 107 67.5 179t197.5 72q52 0 104.5 -8.5t78.5 -17.5l26 -9v-344h98v-104zM384 104v257q-38 18 -95 18q-55 0 -87 -37.5t-32 -97.5q0 -140 150 -140h64zM373 546q-28 0 -47 19.5t-19 48.5q0 28 19 48t47 20t47 -19.5t19 -48.5q0 -28 -19 -48
t-47 -20zM207 546q-28 0 -47 19.5t-19 48.5q0 28 19 48t47 20t47.5 -19.5t19.5 -48.5q0 -28 -19.5 -48t-47.5 -20z" />
    <glyph glyph-name="uniFE96" unicode="&#x62a;" horiz-adv-x="782" arabic-form="final" 
d="M417 0q-196 0 -281.5 76t-85.5 220q0 86 26 157l141 23q-34 -74 -34 -165q0 -109 55.5 -158t192.5 -49h136v366h132v-366h98v-104h-380zM319 546q-28 0 -47 19.5t-19 48.5q0 28 19 48t47 20t47.5 -19.5t19.5 -48.5q0 -28 -19.5 -48t-47.5 -20zM485 546q-28 0 -47 19.5
t-19 48.5q0 28 19 48t47 20t47 -19.5t19 -48.5q0 -28 -19 -48t-47 -20z" />
    <glyph glyph-name="uniFE97" unicode="&#x62a;" horiz-adv-x="346" arabic-form="initial" 
d="M0 0v104h140v366h132v-470h-272zM270 546q-28 0 -47 19.5t-19 48.5q0 28 19 48t47 20t47 -19.5t19 -48.5q0 -28 -19 -48t-47 -20zM104 546q-28 0 -47 19.5t-19 48.5q0 28 19 48t47 20t47.5 -19.5t19.5 -48.5q0 -28 -19.5 -48t-47.5 -20z" />
    <glyph glyph-name="uniFE98" unicode="&#x62a;" horiz-adv-x="346" arabic-form="medial" 
d="M0 0v104h140v366h132v-366h89v-104h-361zM104 546q-28 0 -47 19.5t-19 48.5q0 28 19 48t47 20t47.5 -19.5t19.5 -48.5q0 -28 -19.5 -48t-47.5 -20zM270 546q-28 0 -47 19.5t-19 48.5q0 28 19 48t47 20t47 -19.5t19 -48.5q0 -28 -19 -48t-47 -20z" />
    <glyph glyph-name="uniFE9A" unicode="&#x62b;" horiz-adv-x="782" arabic-form="final" 
d="M417 0q-196 0 -281.5 76t-85.5 220q0 86 26 157l141 23q-34 -74 -34 -165q0 -109 55.5 -158t192.5 -49h136v366h132v-366h98v-104h-380zM485 546q-28 0 -47.5 19.5t-19.5 48.5q0 28 19.5 48t47.5 20t47 -19.5t19 -48.5q0 -28 -19 -48t-47 -20zM319 546q-28 0 -47 19.5
t-19 48.5q0 28 19 48t47 20t47 -19.5t19 -48.5q0 -28 -19 -48t-47 -20zM401 688q-25 0 -43 18.5t-18 44.5t18 44.5t43 18.5q26 0 44 -18.5t18 -44.5t-18 -44.5t-44 -18.5z" />
    <glyph glyph-name="uniFE9B" unicode="&#x62b;" horiz-adv-x="346" arabic-form="initial" 
d="M0 0v104h140v366h132v-470h-272zM186 688q-25 0 -43 18.5t-18 44.5t18 44.5t43 18.5q26 0 44 -18.5t18 -44.5t-18 -44.5t-44 -18.5zM270 546q-28 0 -47.5 19.5t-19.5 48.5q0 28 19.5 48t47.5 20t47 -19.5t19 -48.5q0 -28 -19 -48t-47 -20zM104 546q-28 0 -47 19.5
t-19 48.5q0 28 19 48t47 20t47 -19.5t19 -48.5q0 -28 -19 -48t-47 -20z" />
    <glyph glyph-name="uniFE9C" unicode="&#x62b;" horiz-adv-x="355" arabic-form="medial" 
d="M0 0v104h140v366h132v-366h98v-104h-370zM270 546q-28 0 -47.5 19.5t-19.5 48.5q0 28 19.5 48t47.5 20t47 -19.5t19 -48.5q0 -28 -19 -48t-47 -20zM104 546q-28 0 -47 19.5t-19 48.5q0 28 19 48t47 20t47 -19.5t19 -48.5q0 -28 -19 -48t-47 -20zM186 688q-25 0 -43 18.5
t-18 44.5t18 44.5t43 18.5q26 0 44 -18.5t18 -44.5t-18 -44.5t-44 -18.5z" />
    <glyph glyph-name="uniFE9E" unicode="&#x62c;" horiz-adv-x="593" arabic-form="final" 
d="M608 0h-272q-189 0 -189 -110q0 -45 42 -75.5t124 -30.5l-9 -104q-142 0 -215 55.5t-73 146.5q0 100 80.5 161t243.5 61h68q5 40 5 76q0 98 -45 145t-150 47q-57 0 -115 -8v103q68 9 128 9q165 0 239 -72t74 -219q0 -42 -4 -81h68v-104zM402 -219q-29 0 -49 20t-20 49
q0 28 20.5 48.5t48.5 20.5q29 0 49 -20t20 -49q0 -28 -20.5 -48.5t-48.5 -20.5z" />
    <glyph glyph-name="uniFE9F" unicode="&#x62c;" horiz-adv-x="578" arabic-form="initial" 
d="M0 0v104h387q5 40 5 76q0 98 -45.5 145t-150.5 47q-56 0 -115 -8v103q70 9 128 9q165 0 239.5 -72t74.5 -219q0 -83 -17 -185h-506zM237 -219q-29 0 -49 20t-20 49q0 28 20 48.5t49 20.5t49 -20t20 -49q0 -28 -20 -48.5t-49 -20.5z" />
    <glyph glyph-name="uniFEA0" unicode="&#x62c;" horiz-adv-x="582" arabic-form="medial" 
d="M0 0v104h387q5 40 5 76q0 98 -45.5 145t-150.5 47q-56 0 -115 -8v103q70 9 128 9q165 0 239.5 -72t74.5 -219q0 -42 -4 -81h78v-104h-597zM237 -219q-29 0 -49 20t-20 49q0 28 20 48.5t49 20.5t49 -20t20 -49q0 -28 -20 -48.5t-49 -20.5z" />
    <glyph glyph-name="uniFEA2" unicode="&#x62d;" horiz-adv-x="592" arabic-form="final" 
d="M336 0q-189 0 -189 -108q0 -48 42 -78t128 -30q78 0 171 18l9 -102q-105 -20 -193 -20q-143 0 -215.5 54.5t-72.5 148.5q0 100 80.5 160.5t243.5 60.5h57q5 40 5 76q0 98 -45.5 145t-150.5 47q-56 0 -115 -8v103q70 9 128 9q165 0 239.5 -72t74.5 -219q0 -42 -4 -81h78
v-104h-271z" />
    <glyph glyph-name="uniFEA3" unicode="&#x62d;" horiz-adv-x="578" arabic-form="initial" 
d="M0 0v104h387q5 40 5 76q0 98 -45.5 145t-150.5 47q-56 0 -115 -8v103q70 9 128 9q165 0 239.5 -72t74.5 -219q0 -83 -17 -185h-506z" />
    <glyph glyph-name="uniFEA4" unicode="&#x62d;" horiz-adv-x="582" arabic-form="medial" 
d="M0 0v104h387q5 40 5 76q0 98 -45.5 145t-150.5 47q-56 0 -115 -8v103q70 9 128 9q165 0 239.5 -72t74.5 -219q0 -42 -4 -81h78v-104h-597z" />
    <glyph glyph-name="uniFEA6" unicode="&#x62e;" horiz-adv-x="592" arabic-form="final" 
d="M336 0q-189 0 -189 -108q0 -48 42 -78t128 -30q78 0 171 18l9 -102q-105 -20 -193 -20q-143 0 -215.5 54.5t-72.5 148.5q0 100 80.5 160.5t243.5 60.5h57q5 40 5 76q0 98 -45.5 145t-150.5 47q-56 0 -115 -8v103q70 9 128 9q165 0 239.5 -72t74.5 -219q0 -42 -4 -81h78
v-104h-271zM247 554q-29 0 -49 20t-20 49t20 49t49 20t49 -20t20 -49t-20 -49t-49 -20z" />
    <glyph glyph-name="uniFEA7" unicode="&#x62e;" horiz-adv-x="578" arabic-form="initial" 
d="M0 0v104h387q5 40 5 76q0 98 -45.5 145t-150.5 47q-56 0 -115 -8v103q70 9 128 9q165 0 239.5 -72t74.5 -219q0 -83 -17 -185h-506zM237 554q-29 0 -49 20t-20 49t20 49t49 20t49 -20t20 -49t-20 -49t-49 -20z" />
    <glyph glyph-name="uniFEA8" unicode="&#x62e;" horiz-adv-x="582" arabic-form="medial" 
d="M0 0v104h387q5 40 5 76q0 98 -45.5 145t-150.5 47q-56 0 -115 -8v103q70 9 128 9q165 0 239.5 -72t74.5 -219q0 -42 -4 -81h78v-104h-597zM237 554q-29 0 -49 20t-20 49t20 49t49 20t49 -20t20 -49t-20 -49t-49 -20z" />
    <glyph glyph-name="uniFEAA" unicode="&#x62f;" horiz-adv-x="521" arabic-form="final" 
d="M46 0v104h297q-5 112 -62 181t-174 99l32 110q159 -42 241 -134.5t91 -255.5h65v-104h-490z" />
    <glyph glyph-name="uniFEAC" unicode="&#x630;" horiz-adv-x="521" arabic-form="final" 
d="M46 0v104h297q-5 112 -62 181t-174 99l32 110q159 -42 241 -134.5t91 -255.5h65v-104h-490zM198 554q-29 0 -49 20t-20 49t20.5 49t48.5 20t48.5 -20t20.5 -49t-20.5 -49t-48.5 -20z" />
    <glyph glyph-name="uniFEAE" unicode="&#x631;" horiz-adv-x="406" arabic-form="final" 
d="M76 -254q-44 0 -84 10l10 105q41 -12 81 -12q54 0 81 31.5t27 108.5v481h132v-366h98v-104h-98v-4q0 -53 -10.5 -94t-36.5 -78t-76.5 -57.5t-123.5 -20.5z" />
    <glyph glyph-name="uniFEB0" unicode="&#x632;" horiz-adv-x="406" arabic-form="final" 
d="M76 -254q-44 0 -84 10l10 105q41 -12 81 -12q54 0 81 31.5t27 108.5v481h132v-366h98v-104h-98v-4q0 -53 -10.5 -94t-36.5 -78t-76.5 -57.5t-123.5 -20.5zM256 554q-29 0 -49 20t-20 49t20.5 49t48.5 20t48.5 -20t20.5 -49t-20.5 -49t-48.5 -20z" />
    <glyph glyph-name="uniFEB2" unicode="&#x633;" horiz-adv-x="1211" arabic-form="final" 
d="M953 0q-86 0 -127 16t-59 53q-18 -42 -56 -58.5t-69 -16.5q-53 0 -75 31q1 -131 -72.5 -193t-189.5 -62q-258 0 -258 284q0 92 24 179l136 25q-28 -100 -28 -192q0 -193 137 -193q125 0 125 189v348h132v-185q0 -70 17 -99.5t57 -29.5q41 0 58.5 30.5t17.5 97.5v226h126
v-251q0 -58 24.5 -76.5t94.5 -18.5h26q7 70 7 120q0 138 -29 268l129 18q32 -135 32 -277q0 -56 -5 -129h98v-104h-273z" />
    <glyph glyph-name="uniFEB3" unicode="&#x633;" horiz-adv-x="900" arabic-form="initial" 
d="M0 0v104h50q49 0 69.5 26t20.5 98v182h132v-185q0 -72 13 -100.5t56 -28.5q41 0 60.5 29t19.5 99v226h127v-251q0 -58 24 -76.5t94 -18.5h26q7 56 7 120q0 138 -29 268l129 18q32 -135 32 -277q0 -127 -15 -233h-165q-82 0 -123 14.5t-62 54.5q-16 -34 -55 -55.5
t-96 -21.5q-48 0 -84.5 21t-48.5 57q-30 -70 -133 -70h-49z" />
    <glyph glyph-name="uniFEB4" unicode="&#x633;" horiz-adv-x="909" arabic-form="medial" 
d="M651 0q-82 0 -123 14.5t-62 54.5q-16 -34 -55 -55.5t-96 -21.5q-48 0 -84.5 21t-48.5 57q-30 -70 -133 -70h-49v104h50q49 0 69.5 26t20.5 98v182h132v-185q0 -72 13 -100.5t56 -28.5q41 0 60.5 29t19.5 99v226h127v-251q0 -58 24 -76.5t94 -18.5h26q7 56 7 120
q0 138 -29 268l129 18q32 -135 32 -277q0 -56 -5 -129h98v-104h-273z" />
    <glyph glyph-name="uniFEB6" unicode="&#x634;" horiz-adv-x="1211" arabic-form="final" 
d="M305 -230q-258 0 -258 284q0 92 24 179l136 25q-28 -100 -28 -192q0 -193 137 -193q125 0 125 189v348h132v-185q0 -70 17 -99.5t57 -29.5q41 0 58.5 30.5t17.5 97.5v226h126v-251q0 -58 24.5 -76.5t94.5 -18.5h26q7 70 7 120q0 138 -29 268l129 18q32 -135 32 -277
q0 -56 -5 -129h98v-104h-273q-86 0 -127 16t-59 53q-18 -42 -56 -58.5t-69 -16.5q-53 0 -75 31q1 -131 -72.5 -193t-189.5 -62zM866 546q-28 0 -47.5 19.5t-19.5 48.5q0 28 19.5 48t47.5 20t47 -19.5t19 -48.5q0 -28 -19 -48t-47 -20zM700 546q-28 0 -47 19.5t-19 48.5
q0 28 19 48t47 20t47 -19.5t19 -48.5q0 -28 -19 -48t-47 -20zM782 688q-25 0 -43 18.5t-18 44.5t18 44.5t43 18.5q26 0 44 -18.5t18 -44.5t-18 -44.5t-44 -18.5z" />
    <glyph glyph-name="uniFEB7" unicode="&#x634;" horiz-adv-x="900" arabic-form="initial" 
d="M0 0v104h50q49 0 69.5 26t20.5 98v182h132v-185q0 -72 13 -100.5t56 -28.5q41 0 60.5 29t19.5 99v226h127v-251q0 -58 24 -76.5t94 -18.5h26q7 56 7 120q0 138 -29 268l129 18q32 -135 32 -277q0 -127 -15 -233h-165q-82 0 -123 14.5t-62 54.5q-16 -34 -55 -55.5
t-96 -21.5q-48 0 -84.5 21t-48.5 57q-30 -70 -133 -70h-49zM479 688q-25 0 -43 18.5t-18 44.5t18 44.5t43 18.5q26 0 44 -18.5t18 -44.5t-18 -44.5t-44 -18.5zM563 546q-28 0 -47.5 19.5t-19.5 48.5q0 28 19.5 48t47.5 20t47 -19.5t19 -48.5q0 -28 -19 -48t-47 -20zM397 546
q-28 0 -47 19.5t-19 48.5q0 28 19 48t47 20t47 -19.5t19 -48.5q0 -28 -19 -48t-47 -20z" />
    <glyph glyph-name="uniFEB8" unicode="&#x634;" horiz-adv-x="909" arabic-form="medial" 
d="M0 0v104h50q49 0 69.5 26t20.5 98v182h132v-185q0 -72 13 -100.5t56 -28.5q41 0 60.5 29t19.5 99v226h127v-251q0 -58 24 -76.5t94 -18.5h26q7 56 7 120q0 138 -29 268l129 18q32 -135 32 -277q0 -56 -5 -129h98v-104h-273q-82 0 -123 14.5t-62 54.5q-16 -34 -55 -55.5
t-96 -21.5q-48 0 -84.5 21t-48.5 57q-30 -70 -133 -70h-49zM563 546q-28 0 -47.5 19.5t-19.5 48.5q0 28 19.5 48t47.5 20t47 -19.5t19 -48.5q0 -28 -19 -48t-47 -20zM397 546q-28 0 -47 19.5t-19 48.5q0 28 19 48t47 20t47 -19.5t19 -48.5q0 -28 -19 -48t-47 -20zM479 688
q-25 0 -43 18.5t-18 44.5t18 44.5t43 18.5q26 0 44 -18.5t18 -44.5t-18 -44.5t-44 -18.5z" />
    <glyph glyph-name="uniFEBA" unicode="&#x635;" horiz-adv-x="1068" arabic-form="final" 
d="M567 0q-12 -116 -82.5 -173t-179.5 -57q-258 0 -258 284q0 92 24 179l136 25q-28 -100 -28 -192q0 -193 137 -193q125 0 125 189v408h132v-25q0 -82 -11 -148h1q32 88 101.5 137t151.5 49q103 0 157.5 -60t54.5 -167q0 -90 -44 -152h105v-104h-352h-16h-154zM572 104h161
q88 0 123.5 38.5t35.5 105.5q0 130 -102 130q-79 0 -140.5 -81.5t-77.5 -192.5z" />
    <glyph glyph-name="uniFEBB" unicode="&#x635;" horiz-adv-x="764" arabic-form="initial" 
d="M0 0v104h134v366h132v-25q0 -84 -12 -148h2q32 88 101.5 137t151.5 49q103 0 157 -60t54 -167q0 -116 -74 -186t-232 -70h-414zM264 104h162q87 0 122.5 38t35.5 106q0 130 -102 130q-78 0 -140 -82t-78 -192z" />
    <glyph glyph-name="uniFEBC" unicode="&#x635;" horiz-adv-x="761" arabic-form="medial" 
d="M0 0v104h134v366h132v-25q0 -84 -12 -148h2q32 88 101.5 137t151.5 49q103 0 157 -60t54 -167q0 -92 -43 -152h105v-104h-352h-16h-414zM264 104h162q87 0 122.5 38t35.5 106q0 130 -102 130q-78 0 -140 -82t-78 -192z" />
    <glyph glyph-name="uniFEBE" unicode="&#x636;" horiz-adv-x="1068" arabic-form="final" 
d="M305 -230q-258 0 -258 284q0 92 24 179l136 25q-28 -100 -28 -192q0 -193 137 -193q125 0 125 189v408h132v-25q0 -82 -11 -148h1q32 88 101.5 137t151.5 49q103 0 157.5 -60t54.5 -167q0 -90 -44 -152h105v-104h-522q-12 -116 -82.5 -173t-179.5 -57zM572 104h161
q88 0 123.5 38.5t35.5 105.5q0 130 -102 130q-79 0 -140.5 -81.5t-77.5 -192.5zM802 554q-29 0 -49 20t-20 49t20.5 49t48.5 20t48.5 -20t20.5 -49t-20.5 -49t-48.5 -20z" />
    <glyph glyph-name="uniFEBF" unicode="&#x636;" horiz-adv-x="756" arabic-form="initial" 
d="M0 0v104h134v366h132v-25q0 -84 -12 -148h2q32 88 101.5 137t151.5 49q103 0 157 -60t54 -167q0 -116 -74 -186t-232 -70h-414zM264 104h162q87 0 122.5 38t35.5 106q0 130 -102 130q-78 0 -140 -82t-78 -192zM484 554q-29 0 -49 20t-20 49t20.5 49t48.5 20t48.5 -20
t20.5 -49t-20.5 -49t-48.5 -20z" />
    <glyph glyph-name="uniFEC0" unicode="&#x636;" horiz-adv-x="749" arabic-form="medial" 
d="M0 0v104h134v366h132v-25q0 -84 -12 -148h2q32 88 101.5 137t151.5 49q103 0 157 -60t54 -167q0 -92 -43 -152h93v-104h-770zM264 104h162q87 0 122.5 38t35.5 106q0 130 -102 130q-78 0 -140 -82t-78 -192zM484 554q-29 0 -49 20t-20 49t20.5 49t48.5 20t48.5 -20
t20.5 -49t-20.5 -49t-48.5 -20z" />
    <glyph glyph-name="uniFEC2" unicode="&#x637;" horiz-adv-x="749" arabic-form="final" 
d="M0 0v104h122v601h132v-260q0 -82 -11 -148h1q32 88 101.5 137t151.5 49q103 0 157.5 -60t54.5 -167q0 -90 -44 -152h105v-104h-352h-16h-402zM253 104h161q88 0 123.5 38.5t35.5 105.5q0 130 -102 130q-79 0 -140.5 -81.5t-77.5 -192.5z" />
    <glyph glyph-name="uniFEC3" unicode="&#x637;" horiz-adv-x="744" arabic-form="initial" 
d="M0 0v104h122v601h132v-260q0 -82 -11 -148h1q32 88 101.5 137t151.5 49q103 0 157.5 -60t54.5 -167q0 -116 -74.5 -186t-232.5 -70h-402zM253 104h161q88 0 123.5 38.5t35.5 105.5q0 130 -102 130q-79 0 -140.5 -81.5t-77.5 -192.5z" />
    <glyph glyph-name="uniFEC4" unicode="&#x637;" horiz-adv-x="759" arabic-form="medial" 
d="M0 0v104h122v601h132v-260q0 -82 -11 -148h1q32 88 101.5 137t151.5 49q103 0 157.5 -60t54.5 -167q0 -90 -44 -152h116v-104h-363h-16h-402zM253 104h161q88 0 123.5 38.5t35.5 105.5q0 130 -102 130q-79 0 -140.5 -81.5t-77.5 -192.5z" />
    <glyph glyph-name="uniFEC6" unicode="&#x638;" horiz-adv-x="749" arabic-form="final" 
d="M0 0v104h122v601h132v-260q0 -82 -11 -148h1q32 88 101.5 137t151.5 49q103 0 157.5 -60t54.5 -167q0 -90 -44 -152h105v-104h-770zM253 104h161q88 0 123.5 38.5t35.5 105.5q0 130 -102 130q-79 0 -140.5 -81.5t-77.5 -192.5zM484 554q-29 0 -49 20t-20 49t20.5 49
t48.5 20t48.5 -20t20.5 -49t-20.5 -49t-48.5 -20z" />
    <glyph glyph-name="uniFEC7" unicode="&#x638;" horiz-adv-x="744" arabic-form="initial" 
d="M0 0v104h122v601h132v-260q0 -82 -11 -148h1q32 88 101.5 137t151.5 49q103 0 157.5 -60t54.5 -167q0 -116 -74.5 -186t-232.5 -70h-402zM253 104h161q88 0 123.5 38.5t35.5 105.5q0 130 -102 130q-79 0 -140.5 -81.5t-77.5 -192.5zM484 554q-29 0 -49 20t-20 49t20.5 49
t48.5 20t48.5 -20t20.5 -49t-20.5 -49t-48.5 -20z" />
    <glyph glyph-name="uniFEC8" unicode="&#x638;" horiz-adv-x="749" arabic-form="medial" 
d="M0 0v104h122v601h132v-260q0 -82 -11 -148h1q32 88 101.5 137t151.5 49q103 0 157.5 -60t54.5 -167q0 -90 -44 -152h105v-104h-770zM253 104h161q88 0 123.5 38.5t35.5 105.5q0 130 -102 130q-79 0 -140.5 -81.5t-77.5 -192.5zM484 554q-29 0 -49 20t-20 49t20.5 49
t48.5 20t48.5 -20t20.5 -49t-20.5 -49t-48.5 -20z" />
    <glyph glyph-name="uniFECA" unicode="&#x639;" horiz-adv-x="629" arabic-form="final" 
d="M312 -255q-143 0 -213 49t-70 127q0 35 14.5 66t33 51t55 42.5t59.5 33.5t67 31q-41 39 -62.5 58t-60.5 43t-77 35l11 94q154 111 289 111q105 0 158 -46.5t53 -117.5q0 -108 -114 -186q61 -32 123 -32h66v-104h-81q-124 0 -222 74q-106 -52 -131 -70q-46 -33 -46 -70
q0 -86 163 -86q34 0 71.5 3t57.5 7l21 3l8 -100q-87 -16 -173 -16zM191 329q19 -7 36.5 -17.5t37.5 -26t32 -25.5t36 -31.5t32 -28.5q73 48 73 105q0 37 -24.5 60.5t-70.5 23.5q-62 0 -152 -60z" />
    <glyph glyph-name="uniFECB" unicode="&#x639;" horiz-adv-x="549" arabic-form="initial" 
d="M0 0v104h153q-34 20 -56 60t-22 89q0 99 67.5 164.5t194.5 65.5q30 0 61 -4.5t47 -9.5l16 -5l-23 -105q-46 21 -104 21q-56 0 -91 -35t-35 -92q0 -67 56.5 -108t170.5 -41h78v-104h-513z" />
    <glyph glyph-name="uniFECC" unicode="&#x639;" horiz-adv-x="629" arabic-form="medial" 
d="M0 0v104h35q138 0 233 31q-4 4 -23 22t-25 23t-23 20.5t-25.5 21.5t-25 17.5t-28.5 17.5t-28 13t-32 11l11 94q154 111 289 111q105 0 158 -46.5t53 -117.5q0 -107 -102 -192q54 -26 111 -26h66v-104h-81q-113 0 -206 62q-139 -62 -330 -62h-27zM191 329
q24 -10 50.5 -27.5t44 -32t47 -40.5t43.5 -38q62 49 62 114q0 37 -24.5 60.5t-70.5 23.5q-62 0 -152 -60z" />
    <glyph glyph-name="uniFECE" unicode="&#x63a;" horiz-adv-x="629" arabic-form="final" 
d="M312 -255q-143 0 -213 49t-70 127q0 35 14.5 66t33 51t55 42.5t59.5 33.5t67 31q-41 39 -62.5 58t-60.5 43t-77 35l11 94q154 111 289 111q105 0 158 -46.5t53 -117.5q0 -108 -114 -186q61 -32 123 -32h66v-104h-81q-124 0 -222 74q-106 -52 -131 -70q-46 -33 -46 -70
q0 -86 163 -86q34 0 71.5 3t57.5 7l21 3l8 -100q-87 -16 -173 -16zM191 329q19 -7 36.5 -17.5t37.5 -26t32 -25.5t36 -31.5t32 -28.5q73 48 73 105q0 37 -24.5 60.5t-70.5 23.5q-62 0 -152 -60zM342 560q-29 0 -49 20t-20 49t20.5 49t48.5 20t48.5 -20t20.5 -49t-20.5 -49
t-48.5 -20z" />
    <glyph glyph-name="uniFECF" unicode="&#x63a;" horiz-adv-x="549" arabic-form="initial" 
d="M0 0v104h153q-34 20 -56 60t-22 89q0 99 67.5 164.5t194.5 65.5q30 0 61 -4.5t47 -9.5l16 -5l-23 -105q-46 21 -104 21q-56 0 -91 -35t-35 -92q0 -67 56.5 -108t170.5 -41h78v-104h-513zM309 554q-29 0 -49 20t-20 49t20 49t49 20t49 -20t20 -49t-20 -49t-49 -20z" />
    <glyph glyph-name="uniFED0" unicode="&#x63a;" horiz-adv-x="629" arabic-form="medial" 
d="M0 0v104h35q138 0 233 31q-4 4 -23 22t-25 23t-23 20.5t-25.5 21.5t-25 17.5t-28.5 17.5t-28 13t-32 11l11 94q154 111 289 111q105 0 158 -46.5t53 -117.5q0 -107 -102 -192q54 -26 111 -26h66v-104h-81q-113 0 -206 62q-139 -62 -330 -62h-27zM191 329
q24 -10 50.5 -27.5t44 -32t47 -40.5t43.5 -38q62 49 62 114q0 37 -24.5 60.5t-70.5 23.5q-62 0 -152 -60zM342 560q-29 0 -49 20t-20 49t20.5 49t48.5 20t48.5 -20t20.5 -49t-20.5 -49t-48.5 -20z" />
    <glyph glyph-name="uniFED2" unicode="&#x641;" horiz-adv-x="941" arabic-form="final" 
d="M956 104v-104h-539q-196 0 -281.5 76t-85.5 220q0 86 26 157l141 23q-34 -74 -34 -165q0 -107 53.5 -157t172.5 -50h33q-44 41 -44 130q0 109 70.5 179t183.5 70q110 0 171.5 -58.5t61.5 -174.5q0 -45 -15 -86.5t-43 -64.5q42 5 76 5h53zM752 243q0 136 -109 136
q-47 0 -80 -34t-33 -100q0 -141 111 -141q49 0 80 36t31 103zM643 558q-29 0 -49 20t-20 49t20 49t49 20t49 -20t20 -49t-20 -49t-49 -20z" />
    <glyph glyph-name="uniFED3" unicode="&#x641;" horiz-adv-x="612" arabic-form="initial" 
d="M543 0h-543v104h57q16 0 30 -2t20 -4l6 -1q-56 41 -56 143t68 172.5t192 70.5q114 0 170 -60.5t56 -169.5v-253zM414 104v133q0 142 -107 142q-55 0 -87 -37.5t-32 -97.5q0 -71 36.5 -105.5t113.5 -34.5h76zM304 558q-29 0 -49 20t-20 49t20.5 49t48.5 20t48.5 -20
t20.5 -49t-20.5 -49t-48.5 -20z" />
    <glyph glyph-name="uniFED4" unicode="&#x641;" horiz-adv-x="600" arabic-form="medial" 
d="M0 0v104h42l61 -5q-46 48 -46 135q0 109 70.5 179t183.5 70q110 0 171.5 -58.5t61.5 -174.5q0 -45 -15 -86.5t-43 -64.5q42 5 76 5h53v-104h-615zM300 104q49 0 80 36t31 103q0 136 -109 136q-47 0 -80 -34t-33 -100q0 -141 111 -141zM302 558q-29 0 -49 20t-20 49
t20.5 49t48.5 20t48.5 -20t20.5 -49t-20.5 -49t-48.5 -20z" />
    <glyph glyph-name="uniFED6" unicode="&#x642;" horiz-adv-x="893" arabic-form="final" 
d="M810 448v-344h98v-104h-98v-239q-194 -11 -323 -11q-234 0 -337 74t-103 232q0 90 24 177l136 25q-28 -100 -28 -189q0 -118 71.5 -167t255.5 -49l165 6v141h-68q-267 0 -267 232q0 107 67 179t197 72q53 0 105.5 -8.5t78.5 -17.5zM681 104v257q-38 18 -94 18
q-55 0 -87.5 -37.5t-32.5 -97.5q0 -140 150 -140h64zM505 546q-28 0 -47 19.5t-19 48.5q0 28 19 48t47 20t47.5 -19.5t19.5 -48.5q0 -28 -19.5 -48t-47.5 -20zM671 546q-28 0 -47 19.5t-19 48.5q0 28 19 48t47 20t47 -19.5t19 -48.5q0 -28 -19 -48t-47 -20z" />
    <glyph glyph-name="uniFED7" unicode="&#x642;" horiz-adv-x="612" arabic-form="initial" 
d="M543 0h-543v104h57q16 0 30 -2t20 -4l6 -1q-56 41 -56 143t68 172.5t192 70.5q114 0 170 -60.5t56 -169.5v-253zM414 104v133q0 142 -107 142q-55 0 -87 -37.5t-32 -97.5q0 -71 36.5 -105.5t113.5 -34.5h76zM387 546q-28 0 -47 19.5t-19 48.5q0 28 19 48t47 20t47 -19.5
t19 -48.5q0 -28 -19 -48t-47 -20zM221 546q-28 0 -47 19.5t-19 48.5q0 28 19 48t47 20t47.5 -19.5t19.5 -48.5q0 -28 -19.5 -48t-47.5 -20z" />
    <glyph glyph-name="uniFED8" unicode="&#x642;" horiz-adv-x="600" arabic-form="medial" 
d="M0 0v104h42l61 -5q-46 48 -46 135q0 109 70.5 179t183.5 70q110 0 171.5 -58.5t61.5 -174.5q0 -45 -15 -86.5t-43 -64.5q42 5 76 5h53v-104h-615zM300 104q49 0 80 36t31 103q0 136 -109 136q-47 0 -80 -34t-33 -100q0 -141 111 -141zM386 546q-28 0 -47 19.5t-19 48.5
q0 28 19 48t47 20t47 -19.5t19 -48.5q0 -28 -19 -48t-47 -20zM220 546q-28 0 -47 19.5t-19 48.5q0 28 19 48t47 20t47.5 -19.5t19.5 -48.5q0 -28 -19.5 -48t-47.5 -20z" />
    <glyph glyph-name="uniFEDA" unicode="&#x643;" horiz-adv-x="857" arabic-form="final" 
d="M417 0q-196 0 -281.5 76t-85.5 220q0 86 26 157l141 23q-34 -74 -34 -165q0 -109 55.5 -158t192.5 -49h209v601h132v-601h100v-104h-455zM302 412v75q37 0 56 -4q-19 9 -19 39q0 47 36 79.5t109 32.5q24 0 59 -5l-12 -75q-25 5 -50 5q-48 0 -48 -34q0 -38 69 -38h57v-75
h-257z" />
    <glyph glyph-name="uniFEDB" unicode="&#x643;" horiz-adv-x="491" arabic-form="initial" 
d="M0 0v104h297q-4 116 -64.5 185t-180.5 97v97l396 248v-131l-244 -147q107 -48 164.5 -139.5t57.5 -246.5v-67h-426z" />
    <glyph glyph-name="uniFEDC" unicode="&#x643;" horiz-adv-x="491" arabic-form="medial" 
d="M0 0v104h297q-4 116 -64.5 185t-180.5 97v97l396 248v-131l-244 -147q101 -46 157.5 -129t63.5 -220h81v-104h-506z" />
    <glyph glyph-name="uniFEDE" unicode="&#x644;" horiz-adv-x="652" arabic-form="final" 
d="M441 66v639h132v-601h94v-104h-99q-32 -230 -263 -230q-258 0 -258 284q0 92 24 179l136 25q-28 -100 -28 -192q0 -193 137 -193q125 0 125 193z" />
    <glyph glyph-name="uniFEDF" unicode="&#x644;" horiz-adv-x="341" arabic-form="initial" 
d="M0 0v104h124v601h132v-705h-256z" />
    <glyph glyph-name="uniFEE0" unicode="&#x644;" horiz-adv-x="341" arabic-form="medial" 
d="M0 0v104h124v601h132v-601h100v-104h-356z" />
    <glyph glyph-name="uniFEE2" unicode="&#x645;" horiz-adv-x="806" arabic-form="final" 
d="M517 0q-243 0 -264 194h-22q-44 0 -57 -28.5t-2 -98.5l52 -327h-127l-51 317q-17 112 28.5 176.5t160.5 64.5h24q18 82 83 133.5t168 51.5q114 0 170 -60.5t56 -169.5v-149h85v-104h-304zM608 104v133q0 142 -107 142q-55 0 -87 -37.5t-32 -97.5q0 -71 36.5 -105.5
t113.5 -34.5h76z" />
    <glyph glyph-name="uniFEE3" unicode="&#x645;" horiz-adv-x="612" arabic-form="initial" 
d="M543 0h-543v104h57q16 0 30 -2t20 -4l6 -1q-56 41 -56 143t68 172.5t192 70.5q114 0 170 -60.5t56 -169.5v-253zM414 104v133q0 142 -107 142q-55 0 -87 -37.5t-32 -97.5q0 -71 36.5 -105.5t113.5 -34.5h76z" />
    <glyph glyph-name="uniFEE4" unicode="&#x645;" horiz-adv-x="652" arabic-form="medial" 
d="M378 0q-99 0 -146 19.5t-78 58.5q-31 -78 -159 -78h-15v104q59 0 88 30.5t29 105.5q0 102 68 172.5t192 70.5q114 0 170 -60.5t56 -169.5v-149h84v-104h-289zM454 104v133q0 142 -107 142q-55 0 -87 -37.5t-32 -97.5q0 -71 36.5 -105.5t113.5 -34.5h76z" />
    <glyph glyph-name="uniFEE6" unicode="&#x646;" horiz-adv-x="665" arabic-form="final" 
d="M581 470v-366h99v-104h-104q-30 -230 -277 -230q-125 0 -194.5 69.5t-69.5 214.5q0 92 24 179l136 25q-28 -100 -28 -192q0 -105 40.5 -149t101.5 -44q69 0 104.5 43.5t35.5 146.5v407h132zM295 345q-29 0 -49 20t-20 49q0 28 20 48.5t49 20.5t49 -20.5t20 -48.5
t-20 -48.5t-49 -20.5z" />
    <glyph glyph-name="uniFEE7" unicode="&#x646;" horiz-adv-x="346" arabic-form="initial" 
d="M206 554q-29 0 -49 20t-20 49t20.5 49t48.5 20t48.5 -20t20.5 -49t-20.5 -49t-48.5 -20zM0 0v104h140v366h132v-470h-272z" />
    <glyph glyph-name="uniFEE8" unicode="&#x646;" horiz-adv-x="355" arabic-form="medial" 
d="M0 0v104h140v366h132v-366h98v-104h-370zM206 554q-29 0 -49 20t-20 49t20.5 49t48.5 20t48.5 -20t20.5 -49t-20.5 -49t-48.5 -20z" />
    <glyph glyph-name="uniFEEA" unicode="&#x647;" horiz-adv-x="595" arabic-form="final" 
d="M610 0h-304q-268 0 -268 232q0 107 67.5 179t197.5 72q52 0 104.5 -8.5t78.5 -17.5l26 -9v-344h98v-104zM384 104v257q-38 18 -95 18q-55 0 -87 -37.5t-32 -97.5q0 -140 150 -140h64z" />
    <glyph glyph-name="uniFEEB" unicode="&#x647;" horiz-adv-x="766" arabic-form="initial" 
d="M707 0h-707v104h83l47 -5q-26 24 -26 64q0 75 51.5 121.5t140.5 46.5q95 0 139.5 -56t44.5 -148v-23h101v12q0 157 -67.5 231t-215.5 74q-104 0 -214 -36l-12 94q120 39 242 39q193 0 293 -99t100 -312v-107zM372 100v29q0 119 -85 119q-34 0 -54.5 -18.5t-20.5 -50.5
q0 -40 26.5 -59.5t67.5 -19.5h66z" />
    <glyph glyph-name="uniFEEC" unicode="&#x647;" horiz-adv-x="766" arabic-form="medial" 
d="M781 0h-781v104h83l47 -5q-26 24 -26 64q0 75 51.5 121.5t140.5 46.5q95 0 139.5 -56t44.5 -148v-23h101v12q0 157 -67.5 231t-215.5 74q-104 0 -214 -36l-12 94q120 39 242 39q193 0 293 -99t100 -312v-3h74v-104zM372 100v29q0 119 -85 119q-34 0 -54.5 -18.5
t-20.5 -50.5q0 -40 26.5 -59.5t67.5 -19.5h66z" />
    <glyph glyph-name="uniFEEE" unicode="&#x648;" horiz-adv-x="611" arabic-form="final" 
d="M215 -252q-33 0 -71 3t-60 7l-21 3l8 108q78 -17 156 -17q173 0 173 133v15h-78q-268 0 -268 232q0 107 67.5 179t197.5 72q52 0 104.5 -8.5t78.5 -17.5l26 -9v-344h98v-104h-98v-2q0 -111 -77 -180.5t-236 -69.5zM400 104v257q-38 18 -95 18q-55 0 -87 -37.5t-32 -97.5
q0 -140 150 -140h64z" />
    <glyph glyph-name="uniFEF0" unicode="&#x649;" horiz-adv-x="1000" arabic-form="final" 
d="M626 0h-209q-196 0 -281.5 76t-85.5 220q0 86 26 157l141 23q-34 -74 -34 -165q0 -109 55.5 -158t192.5 -49h68v360q93 19 201 19q126 0 178.5 -56t52.5 -165v-158h84v-104h-212v248q0 72 -24.5 101.5t-86.5 29.5l-66 -6v-373z" />
    <glyph glyph-name="uniFEF2" unicode="&#x64a;" horiz-adv-x="1000" arabic-form="final" 
d="M626 0h-209q-196 0 -281.5 76t-85.5 220q0 86 26 157l141 23q-34 -74 -34 -165q0 -109 55.5 -158t192.5 -49h68v360q93 19 201 19q126 0 178.5 -56t52.5 -165v-158h84v-104h-212v248q0 72 -24.5 101.5t-86.5 29.5l-66 -6v-373zM541 -150q0 -28 -19 -48t-47 -20t-47 19.5
t-19 48.5q0 28 19 48t47 20t47 -19.5t19 -48.5zM376 -150q0 -28 -19.5 -48t-47.5 -20t-47 19.5t-19 48.5q0 28 19 48t47 20t47.5 -19.5t19.5 -48.5z" />
    <glyph glyph-name="uniFEF3" unicode="&#x64a;" horiz-adv-x="394" arabic-form="initial" 
d="M0 0v104h188v366h132v-470h-320zM317 -150q0 -28 -19 -48t-47 -20t-47 19.5t-19 48.5q0 28 19 48t47 20t47 -19.5t19 -48.5zM152 -150q0 -28 -19.5 -48t-47.5 -20t-47 19.5t-19 48.5q0 28 19 48t47 20t47.5 -19.5t19.5 -48.5z" />
    <glyph glyph-name="uniFEF4" unicode="&#x64a;" horiz-adv-x="393" arabic-form="medial" 
d="M0 0v104h140v366h132v-366h136v-104h-408zM152 -150q0 -28 -19.5 -48t-47.5 -20t-47 19.5t-19 48.5q0 28 19 48t47 20t47.5 -19.5t19.5 -48.5zM317 -150q0 -28 -19 -48t-47 -20t-47 19.5t-19 48.5q0 28 19 48t47 20t47 -19.5t19 -48.5z" />
    <glyph glyph-name=".notdef" horiz-adv-x="550" 
d="M300 150h-150v250h50v-200h100v-50zM500 50h-450v450h450v-450zM350 350h-100v50h150v-250h-50v100h-100v50h100v50zM100 100h350v350h-350v-350z" />
    <glyph glyph-name=".null" 
 />
    <glyph glyph-name=".null" 
 />
    <glyph glyph-name="nonmarkingreturn" horiz-adv-x="333" 
 />
    <glyph glyph-name="CR" unicode="&#xd;" horiz-adv-x="500" 
 />
    <glyph glyph-name="space" unicode=" " horiz-adv-x="218" 
 />
    <glyph glyph-name="exclam" unicode="!" horiz-adv-x="321" 
d="M244 708l-19 -520h-110l-21 520h150zM247 65q0 -32 -22.5 -54t-56.5 -22q-33 0 -55.5 22t-22.5 54t22.5 54t55.5 22q34 0 56.5 -22t22.5 -54z" />
    <glyph glyph-name="quotedbl" unicode="&#x22;" horiz-adv-x="405" 
d="M361 702l-17 -254h-95l-16 254h128zM172 702l-16 -254h-96l-16 254h128z" />
    <glyph glyph-name="numbersign" unicode="#" horiz-adv-x="583" 
d="M555 411h-88l-15 -143h80v-90h-90l-18 -178h-102l19 178h-132l-19 -178h-102l19 178h-79v90h88l16 143h-80v89h89l18 175h102l-19 -175h132l19 175h102l-19 -175h79v-89zM365 411h-131l-16 -143h132z" />
    <glyph glyph-name="dollar" unicode="$" horiz-adv-x="494" 
d="M448 185q0 -69 -44.5 -120.5t-120.5 -68.5v-122h-92v115q-55 1 -121 13l9 116q59 -21 127 -21q107 0 107 75q0 30 -27.5 50t-66.5 34t-78.5 32.5t-67 57.5t-27.5 96q0 67 43.5 115t114.5 62v101h91v-94q54 -2 102 -12l-8 -109q-62 17 -111 17q-51 0 -75.5 -18.5
t-24.5 -48.5q0 -28 28 -47.5t67.5 -34.5t79 -34t67.5 -58t28 -96z" />
    <glyph glyph-name="percent" unicode="%" horiz-adv-x="760" 
d="M722 154q0 -73 -45 -119t-112 -46q-72 0 -110 41t-38 115q0 71 44.5 117t111.5 46q70 0 109.5 -39t39.5 -115zM669 638l-501 -660l-80 57l501 661zM343 534q0 -73 -44.5 -119.5t-112.5 -46.5q-72 0 -110 41.5t-38 114.5q0 71 45 117t112 46q70 0 109 -39t39 -114z
M625 148q0 79 -55 79q-25 0 -40.5 -20.5t-15.5 -56.5q0 -81 57 -81q23 0 38.5 21.5t15.5 57.5zM247 527q0 43 -13.5 61.5t-42.5 18.5q-24 0 -39.5 -21t-15.5 -57q0 -81 56 -81q24 0 39.5 21t15.5 58z" />
    <glyph glyph-name="ampersand" unicode="&#x26;" horiz-adv-x="797" 
d="M755 74l-84 -97q-86 60 -137 100q-110 -88 -260 -88q-111 0 -169 56t-58 142q0 61 32.5 110.5t94.5 97.5q-46 55 -65.5 95t-19.5 83q0 70 53 117.5t146 47.5q85 0 131.5 -40t46.5 -107q0 -100 -119 -193q85 -85 181 -160v-1q65 99 60 221h127q3 -165 -91 -290
q80 -60 131 -94zM340 582q0 26 -15.5 43t-46.5 17q-28 0 -45.5 -17.5t-17.5 -44.5q0 -44 57 -110q68 58 68 112zM440 147q-109 88 -191 172q-69 -59 -69 -116q0 -43 31.5 -74t84.5 -31q79 0 144 49z" />
    <glyph glyph-name="quotesingle" unicode="'" horiz-adv-x="216" 
d="M172 702l-16 -254h-96l-16 254h128z" />
    <glyph glyph-name="parenleft" unicode="(" horiz-adv-x="306" 
d="M297 -170l-97 -45q-148 233 -148 500q0 269 149 502l93 -43q-116 -207 -116 -454q0 -254 119 -460z" />
    <glyph glyph-name="parenright" unicode=")" horiz-adv-x="306" 
d="M256 288q0 -270 -149 -503l-93 43q117 206 117 455q0 250 -118 460l97 44q146 -234 146 -499z" />
    <glyph glyph-name="asterisk" unicode="*" horiz-adv-x="384" 
d="M350 531l-45 -78l-85 68l16 -108h-91l16 108l-86 -68l-44 78l101 40l-101 40l45 79l85 -68l-16 108h91l-16 -108l85 68l45 -78l-101 -40z" />
    <glyph glyph-name="plus" unicode="+" horiz-adv-x="550" 
d="M511 244h-176v-186h-121v186h-175v107h175v185h121v-185h176v-107z" />
    <glyph glyph-name="comma" unicode="," horiz-adv-x="258" 
d="M128 149q51 0 72 -50q29 -69 -26 -162q-33 -57 -94 -110l-53 47q50 53 58.5 90.5t-17.5 63.5q-29 33 -10 77t70 44z" />
    <glyph glyph-name="hyphen" unicode="-" horiz-adv-x="334" 
d="M290 226h-246v103h246v-103z" />
    <glyph glyph-name="hyphen" unicode="&#xad;" horiz-adv-x="334" 
d="M290 226h-246v103h246v-103z" />
    <glyph glyph-name="period" unicode="." horiz-adv-x="258" 
d="M211 71q0 -34 -24 -58t-58 -24t-58 24t-24 58q0 33 24 57t58 24t58 -24t24 -57z" />
    <glyph glyph-name="slash" unicode="/" horiz-adv-x="463" 
d="M465 757l-350 -918h-126l350 918h126z" />
    <glyph glyph-name="zero" unicode="0" horiz-adv-x="589" 
d="M553 345q0 -171 -76.5 -262.5t-190.5 -91.5q-250 0 -250 339q0 171 76.5 262.5t190.5 91.5q250 0 250 -339zM417 336q0 125 -30 183t-91 58q-124 0 -124 -239q0 -125 30 -182.5t91 -57.5q124 0 124 238z" />
    <glyph glyph-name="one" unicode="1" horiz-adv-x="359" 
d="M286 0h-132v542l-116 -46l-19 122l166 57h101v-675z" />
    <glyph glyph-name="two" unicode="2" horiz-adv-x="498" 
d="M458 0h-408v108l101 114q83 90 114 148t31 104q0 42 -25 68t-72 26q-62 0 -125 -38l-19 116q80 39 179 39t151.5 -53t52.5 -136q0 -132 -159 -306l-60 -70v-1q70 4 239 4v-123z" />
    <glyph glyph-name="three" unicode="3" horiz-adv-x="473" 
d="M429 210q0 -98 -76.5 -159t-197.5 -61q-67 0 -113 13l14 112q38 -14 102 -14q62 0 97.5 28t35.5 73q0 43 -35.5 69t-107.5 26q-38 0 -70 -5v103q193 -5 193 102q0 37 -24 58.5t-71 21.5q-53 0 -111 -28l-10 107q72 29 155 29q94 0 145 -45t51 -117q0 -54 -29 -94.5
t-79 -58.5l-1 -2q61 -15 96.5 -57.5t35.5 -100.5z" />
    <glyph glyph-name="four" unicode="4" horiz-adv-x="554" 
d="M536 148h-101v-148h-126v148h-283l-9 102l246 425h172v-410h101v-117zM311 263v295h-1l-172 -297q44 2 173 2z" />
    <glyph glyph-name="five" unicode="5" horiz-adv-x="461" 
d="M429 229q0 -107 -80 -172t-206 -65q-55 0 -100 10l13 114q36 -13 94 -13q67 0 105.5 31t38.5 82q0 102 -165 102q-39 0 -64 -4v361h333v-122l-213 1v-134q117 1 180.5 -49.5t63.5 -141.5z" />
    <glyph glyph-name="six" unicode="6" horiz-adv-x="578" 
d="M541 231q0 -108 -70.5 -175t-183.5 -67q-118 0 -176.5 83t-58.5 211q0 194 97.5 297.5t250.5 103.5q54 0 79 -4v-115q-36 9 -81 9q-160 0 -202 -162l-8 -34l1 -1q55 55 145 55q96 0 151.5 -55t55.5 -146zM406 213q0 53 -27 83t-78 30q-49 0 -79 -30.5t-30 -74.5
q0 -57 28 -90t78 -33q49 0 78.5 32t29.5 83z" />
    <glyph glyph-name="seven" unicode="7" horiz-adv-x="459" 
d="M435 565q-117 -259 -180 -565h-143q30 139 82 296t97 256q-76 -2 -269 -2v125h413v-110z" />
    <glyph glyph-name="eight" unicode="8" horiz-adv-x="557" 
d="M514 183q0 -93 -71 -144t-176 -51t-165 48.5t-60 129.5q0 98 122 174q-111 63 -111 158q0 87 66 139t169 52q95 0 153.5 -47t58.5 -119q0 -52 -30.5 -91t-84.5 -76q129 -72 129 -173zM369 512q0 31 -23.5 52.5t-67.5 21.5q-45 0 -70 -20.5t-25 -54.5q0 -31 24 -54.5
t74 -49.5q46 29 67 53t21 52zM380 174q0 36 -28.5 61t-84.5 54q-45 -29 -68 -53.5t-23 -57.5q0 -39 27.5 -61.5t75.5 -22.5q44 0 72.5 21.5t28.5 58.5z" />
    <glyph glyph-name="nine" unicode="9" horiz-adv-x="581" 
d="M530 393q0 -194 -90.5 -298.5t-263.5 -104.5q-51 0 -90 7v116q44 -13 100 -13q148 0 186 143q3 10 7.5 26.5t5.5 21.5l-1 1q-45 -56 -139 -56q-93 0 -148 56t-55 151q0 105 69.5 174t177.5 69q84 0 139.5 -42t78.5 -105.5t23 -145.5zM386 451q0 59 -28 92t-76 33
t-77.5 -32t-29.5 -84q0 -51 27 -81.5t77 -30.5q47 0 77 32t30 71z" />
    <glyph glyph-name="colon" unicode=":" horiz-adv-x="298" 
d="M242 354q0 -34 -23.5 -58t-57.5 -24t-58 24t-24 58q0 33 24 57t58 24t57.5 -24t23.5 -57zM242 71q0 -34 -23.5 -58t-57.5 -24t-58 24t-24 58q0 33 24 57t58 24t57.5 -24t23.5 -57z" />
    <glyph glyph-name="semicolon" unicode=";" horiz-adv-x="298" 
d="M242 354q0 -34 -23.5 -58t-57.5 -24t-58 24t-24 58q0 33 24 57t58 24t57.5 -24t23.5 -57zM160 149q49 0 72.5 -45t-4.5 -123t-115 -154l-53 47q49 53 57.5 90.5t-16.5 63.5q-29 33 -10 77t69 44z" />
    <glyph glyph-name="semicolon" unicode="&#x37e;" horiz-adv-x="298" 
d="M242 354q0 -34 -23.5 -58t-57.5 -24t-58 24t-24 58q0 33 24 57t58 24t57.5 -24t23.5 -57zM160 149q49 0 72.5 -45t-4.5 -123t-115 -154l-53 47q49 53 57.5 90.5t-16.5 63.5q-29 33 -10 77t69 44z" />
    <glyph glyph-name="less" unicode="&#x3c;" horiz-adv-x="550" 
d="M466 93l-84 -87l-319 295l318 294l84 -84l-237 -209z" />
    <glyph glyph-name="equal" unicode="=" horiz-adv-x="550" 
d="M497 341h-444v103h444v-103zM497 150h-444v103h444v-103z" />
    <glyph glyph-name="greater" unicode="&#x3e;" horiz-adv-x="550" 
d="M487 300l-318 -294l-84 84l237 209l-238 209l84 87z" />
    <glyph glyph-name="question" unicode="?" horiz-adv-x="451" 
d="M404 512q0 -39 -14.5 -71t-35 -52t-43.5 -42t-39.5 -41t-23 -50t5.5 -68h-125q-16 45 -12 81.5t19 60.5t36.5 46.5t42 39t35 38.5t14.5 45q0 45 -52.5 72t-144.5 30l16 116q156 -4 238.5 -62.5t82.5 -142.5zM271 65q0 -32 -22.5 -54t-55.5 -22t-55.5 22t-22.5 54t22.5 54
t55.5 22t55.5 -22t22.5 -54z" />
    <glyph glyph-name="at" unicode="@" horiz-adv-x="970" 
d="M881 413q0 -135 -67 -209t-174 -74q-53 0 -80 27t-25 69h-3q-18 -37 -56.5 -66.5t-84.5 -29.5q-48 0 -74.5 36.5t-26.5 106.5q0 118 59.5 192.5t174.5 74.5q69 0 122 -20l-35 -198q-9 -49 2 -70.5t42 -21.5q50 0 80.5 44t30.5 133q0 97 -61 162t-189 65q-136 0 -228 -95
t-92 -246q0 -129 71 -199.5t213 -70.5q88 0 175 29l19 -100q-102 -34 -210 -34q-185 0 -284.5 97t-99.5 265q0 197 128 326.5t315 129.5q171 0 264.5 -91.5t93.5 -231.5zM538 449q-20 6 -44 6q-48 0 -76.5 -52t-28.5 -109q0 -65 32 -65q30 0 60.5 45t47.5 131z" />
    <glyph glyph-name="A" unicode="A" horiz-adv-x="626" 
d="M625 0h-144l-46 138h-256l-47 -138h-131l233 675h153zM402 241l-69 201q-18 53 -27 93h-1q-16 -60 -26 -93l-69 -201h192z" />
    <glyph glyph-name="B" unicode="B" horiz-adv-x="580" 
d="M539 208q0 -88 -67 -149t-205 -61q-17 0 -83 1t-114 1v674q95 5 224 5q109 0 167.5 -43t58.5 -124q0 -51 -27 -91.5t-75 -59.5v-2q54 -11 87.5 -53t33.5 -98zM382 491q0 84 -109 84q-31 0 -73 -2v-177q16 -1 53 -1q129 0 129 96zM400 204q0 94 -143 94q-43 0 -57 -1v-191
q48 -3 72 -3q62 0 95 27.5t33 73.5z" />
    <glyph glyph-name="C" unicode="C" horiz-adv-x="566" 
d="M526 23q-82 -31 -176 -31q-85 0 -147.5 26.5t-97.5 73t-51 102.5t-16 122q0 166 86.5 265.5t251.5 99.5q76 0 144 -20l-18 -120q-62 24 -132 24q-92 0 -140.5 -62t-48.5 -165q0 -228 197 -228q70 0 128 28z" />
    <glyph glyph-name="D" unicode="D" horiz-adv-x="667" 
d="M630 349q0 -169 -101.5 -261t-270.5 -92q-46 0 -188 5v673q132 5 218 5q342 0 342 -330zM490 339q0 113 -49.5 172t-161.5 59q-47 0 -79 -3v-455q30 -5 71 -5q100 0 159.5 58t59.5 174z" />
    <glyph glyph-name="E" unicode="E" horiz-adv-x="493" 
d="M437 0h-367v675h367v-109h-237v-166h225v-106h-225v-182h237v-112z" />
    <glyph glyph-name="F" unicode="F" horiz-adv-x="465" 
d="M431 564h-231v-173h218v-107h-218v-284h-130v675h361v-111z" />
    <glyph glyph-name="G" unicode="G" horiz-adv-x="675" 
d="M608 32q-104 -42 -231 -42q-164 0 -252.5 87t-88.5 240q0 168 98 268t277 100q99 0 191 -29l-26 -119q-78 32 -173 32q-114 0 -170 -66t-56 -169q0 -108 55.5 -167.5t159.5 -59.5q47 0 86 12v235h130v-322z" />
    <glyph glyph-name="H" unicode="H" horiz-adv-x="686" 
d="M617 0h-131v293h-286v-293h-130v675h130v-270h286v270h131v-675z" />
    <glyph glyph-name="I" unicode="I" horiz-adv-x="270" 
d="M200 0h-130v675h130v-675z" />
    <glyph glyph-name="J" unicode="J" horiz-adv-x="335" 
d="M266 189q0 -198 -182 -198q-38 0 -84 8v112q27 -10 62 -10q38 0 56 20.5t18 72.5v481h130v-486z" />
    <glyph glyph-name="K" unicode="K" horiz-adv-x="597" 
d="M588 0h-171l-217 324v-324h-130v675h130v-306l218 306h160l-248 -326z" />
    <glyph glyph-name="L" unicode="L" horiz-adv-x="429" 
d="M419 0h-349v675h130v-561h219v-114z" />
    <glyph glyph-name="M" unicode="M" horiz-adv-x="881" 
d="M850 0h-135l-49 326q-11 73 -21 169h-2q-20 -96 -38 -154l-109 -341h-126l-104 317q-28 91 -44 178h-2q-8 -95 -18 -180l-39 -315h-131l103 675h153l114 -349q22 -73 37 -142h2q21 90 37 140l115 351h152z" />
    <glyph glyph-name="N" unicode="N" horiz-adv-x="699" 
d="M629 0h-172l-209 372q-43 84 -60 132q7 -103 7 -321v-183h-125v675h172l204 -363q34 -60 65 -135q-7 119 -7 328v170h125v-675z" />
    <glyph glyph-name="O" unicode="O" horiz-adv-x="703" 
d="M670 348q0 -163 -95 -261t-235 -98q-151 0 -229 89.5t-78 248.5q0 163 95 261t235 98q151 0 229 -89.5t78 -248.5zM531 333q0 110 -45 173t-134 63q-79 0 -129.5 -60t-50.5 -166q0 -111 45 -173.5t134 -62.5q79 0 129.5 60t50.5 166z" />
    <glyph glyph-name="P" unicode="P" horiz-adv-x="538" 
d="M515 471q0 -106 -70.5 -173t-197.5 -67l-47 2v-233h-130v675q93 4 189 4q124 0 190 -54t66 -154zM380 458q0 114 -130 114l-50 -1v-227q25 -5 55 -5q61 0 93 31.5t32 87.5z" />
    <glyph glyph-name="Q" unicode="Q" horiz-adv-x="703" 
d="M702 -66q-58 -9 -106.5 -2t-75 20t-67.5 25t-84 12h-29q-151 0 -229 89.5t-78 248.5q0 163 95 261t235 98q151 0 229 -89.5t78 -248.5q0 -101 -37 -175.5t-102 -107.5q19 0 71.5 -13t99.5 -7v-111zM531 333q0 110 -45 173t-134 63q-79 0 -129.5 -60t-50.5 -166
q0 -111 45 -173.5t134 -62.5q78 0 129 60t51 166z" />
    <glyph glyph-name="R" unicode="R" horiz-adv-x="567" 
d="M554 0h-161l-182 279h-11v-279h-130v675q71 4 194 4q245 0 245 -190q0 -73 -47 -124.5t-119 -63.5q38 -50 54 -74zM373 476q0 97 -122 97q-31 0 -51 -3v-195q18 -2 47 -2q58 0 92 28t34 75z" />
    <glyph glyph-name="S" unicode="S" horiz-adv-x="503" 
d="M467 207q0 -95 -72.5 -156.5t-188.5 -61.5q-88 0 -156 18l14 125q69 -29 147 -29q50 0 81.5 21.5t31.5 66.5q0 35 -29.5 57.5t-71 37.5t-83 34.5t-71 60t-29.5 102.5q0 92 67.5 147.5t187.5 55.5q60 0 122 -13l-12 -114q-59 19 -116 19q-55 0 -83 -22t-28 -59
q0 -33 30 -55t72 -38t84.5 -36t72.5 -61t30 -100z" />
    <glyph glyph-name="T" unicode="T" horiz-adv-x="510" 
d="M495 564h-175v-564h-130v564h-175v111h480v-111z" />
    <glyph glyph-name="U" unicode="U" horiz-adv-x="681" 
d="M611 262q0 -137 -72 -205t-208 -68q-77 0 -130 19.5t-80.5 55.5t-39 76.5t-11.5 93.5v441h130v-433q0 -70 30.5 -107.5t109.5 -37.5q76 0 109 36t33 121v421h129v-413z" />
    <glyph glyph-name="V" unicode="V" horiz-adv-x="628" 
d="M625 675l-237 -675h-150l-235 675h142l131 -395q26 -77 39 -130h2q15 60 41 138l133 387h134z" />
    <glyph glyph-name="W" unicode="W" horiz-adv-x="951" 
d="M927 675l-172 -675h-160l-98 372q-13 52 -26 139h-1q-7 -70 -25 -136l-98 -375h-151l-172 675h139l92 -373q15 -61 25 -137h1q12 80 26 133l103 377h138l104 -375q19 -72 27 -131h1q11 72 25 129l92 377h130z" />
    <glyph glyph-name="X" unicode="X" horiz-adv-x="628" 
d="M618 0h-164l-145 248l-145 -248h-154l215 345l-202 330h151l137 -234l136 234h148l-199 -329z" />
    <glyph glyph-name="Y" unicode="Y" horiz-adv-x="561" 
d="M559 675l-215 -436v-239h-130v238l-211 437h142l89 -194q25 -56 46 -112h2q14 39 54 125l85 181h138z" />
    <glyph glyph-name="Z" unicode="Z" horiz-adv-x="537" 
d="M493 0h-448v100l243 396q28 43 44 64q-48 -2 -123 -2h-156v117h436v-105l-257 -405q-21 -34 -31 -47q17 2 146 2h146v-120z" />
    <glyph glyph-name="bracketleft" unicode="[" horiz-adv-x="328" 
d="M292 -205h-221v982h221v-101h-101v-778h101v-103z" />
    <glyph glyph-name="backslash" unicode="\" horiz-adv-x="479" 
d="M483 -161h-126l-350 918h126z" />
    <glyph glyph-name="bracketright" unicode="]" horiz-adv-x="328" 
d="M256 -205h-220v103h100v778h-100v101h220v-982z" />
    <glyph glyph-name="asciicircum" unicode="^" horiz-adv-x="550" 
d="M488 383l-92 -46l-131 247l-125 -247l-85 45l164 293h98z" />
    <glyph glyph-name="underscore" unicode="_" horiz-adv-x="550" 
d="M550 -246h-550v103h550v-103z" />
    <glyph glyph-name="grave" unicode="`" horiz-adv-x="374" 
d="M281 611l-67 -54l-141 149l82 65z" />
    <glyph glyph-name="a" unicode="a" horiz-adv-x="524" 
d="M457 0h-122q0 52 5 84l-1 1q-18 -43 -61 -69t-98 -26q-66 0 -104 40t-38 102q0 86 76 129.5t211 43.5v18q0 46 -20 66.5t-69 20.5q-71 0 -150 -34l-21 98q85 34 188 34q111 0 155.5 -43.5t44.5 -131.5v-205q0 -73 4 -128zM325 208v13q-164 0 -164 -75q0 -25 16.5 -41.5
t43.5 -16.5q45 0 74.5 36.5t29.5 83.5z" />
    <glyph glyph-name="b" unicode="b" horiz-adv-x="559" 
d="M523 274q0 -128 -71.5 -206t-197.5 -78q-100 0 -185 24v716h128v-214q0 -55 -8 -97h1q19 41 59 64.5t91 23.5q89 0 136 -61t47 -172zM389 261q0 140 -85 140q-48 0 -77.5 -47.5t-29.5 -112.5v-140q27 -9 67 -9q125 0 125 169z" />
    <glyph glyph-name="c" unicode="c" horiz-adv-x="425" 
d="M398 14q-60 -23 -140 -23q-107 0 -165.5 59t-58.5 182q0 122 64.5 198t188.5 76q60 0 109 -17l-20 -110q-47 19 -93 19q-56 0 -85.5 -41t-29.5 -112q0 -144 116 -144q52 0 97 20z" />
    <glyph glyph-name="d" unicode="d" horiz-adv-x="558" 
d="M488 0h-119q0 42 6 83h-2q-20 -43 -61 -68.5t-96 -25.5q-89 0 -135 62t-46 171q0 128 70.5 206t192.5 78q34 0 63 -4v228h127v-730zM361 258v139q-37 8 -67 8q-125 0 -125 -169q0 -141 85 -141q48 0 77.5 48t29.5 115z" />
    <glyph glyph-name="e" unicode="e" horiz-adv-x="514" 
d="M476 296q0 -44 -5 -72h-307q0 -134 137 -134q72 0 144 29l14 -97q-86 -32 -180 -32q-245 0 -245 254q0 115 63.5 189t172.5 74q104 0 155 -58.5t51 -152.5zM349 309q1 50 -22 77t-64 27q-40 0 -66.5 -28t-31.5 -76h184z" />
    <glyph glyph-name="f" unicode="f" horiz-adv-x="354" 
d="M374 730l-9 -105q-26 9 -62 9q-42 0 -61.5 -23t-19.5 -72v-42h116v-99h-116v-398h-127v398h-87v99h87v41q0 101 48.5 150.5t149.5 49.5q46 0 81 -8z" />
    <glyph glyph-name="g" unicode="g" horiz-adv-x="545" 
d="M520 -53q0 -83 -76 -140.5t-197 -57.5q-100 0 -156.5 38t-56.5 110q0 37 22.5 71t54.5 51q-49 23 -49 76q0 29 16.5 53.5t42.5 35.5q-74 40 -74 136q0 80 57.5 134t161.5 54q39 0 81 -11h169v-100h-68q25 -23 25 -63q0 -82 -54.5 -130.5t-158.5 -48.5q-20 0 -39 4
q-24 -11 -24 -32q0 -17 16.5 -23t60.5 -8l77 -3q169 -6 169 -146zM393 -70q0 61 -78 64l-86 3h-23q-46 -33 -46 -76q0 -34 29 -54t77 -20q60 0 93.5 23t33.5 60zM351 327q0 41 -23.5 64.5t-66.5 23.5t-67.5 -24.5t-24.5 -62.5q0 -40 24 -63t68 -23q42 0 66 22.5t24 62.5z
" />
    <glyph glyph-name="h" unicode="h" horiz-adv-x="571" 
d="M501 0h-127v318q0 41 -14 61.5t-48 20.5q-48 0 -81.5 -47.5t-33.5 -113.5v-239h-128v730h128v-214q0 -62 -9 -101h2q49 92 163 92q148 0 148 -158v-349z" />
    <glyph glyph-name="i" unicode="i" horiz-adv-x="266" 
d="M213 648q0 -32 -23.5 -54.5t-56.5 -22.5t-56 22.5t-23 54.5t23 55t56 23t56.5 -22.5t23.5 -55.5zM197 0h-128v497h128v-497z" />
    <glyph glyph-name="j" unicode="j" horiz-adv-x="271" 
d="M217 648q0 -32 -23.5 -54.5t-56.5 -22.5t-56.5 22.5t-23.5 54.5t23.5 55t56.5 23t56.5 -22.5t23.5 -55.5zM201 -37q0 -105 -44 -158t-149 -53q-36 0 -71 10l9 109q31 -12 59 -12q39 0 54 20t15 71v547h127v-534z" />
    <glyph glyph-name="k" unicode="k" horiz-adv-x="523" 
d="M511 0h-160l-154 246v-246h-128v730h128v-440l145 207h156l-174 -227z" />
    <glyph glyph-name="l" unicode="l" horiz-adv-x="266" 
d="M197 0h-128v730h128v-730z" />
    <glyph glyph-name="m" unicode="m" horiz-adv-x="866" 
d="M797 0h-128v314q0 43 -13 64.5t-46 21.5q-44 0 -79 -46t-35 -116v-238h-126v315q0 41 -12.5 63t-46.5 22q-45 0 -79.5 -47t-34.5 -115v-238h-128v497h121q0 -47 -6 -89l1 -1q23 46 66 73t98 27q112 0 137 -99q20 41 62 70t100 29q149 0 149 -165v-342z" />
    <glyph glyph-name="n" unicode="n" horiz-adv-x="571" 
d="M501 0h-127v318q0 41 -14 61.5t-48 20.5q-48 0 -81.5 -47t-33.5 -113v-240h-128v497h121q0 -53 -7 -89h1q23 45 66.5 72t102.5 27q148 0 148 -158v-349z" />
    <glyph glyph-name="o" unicode="o" horiz-adv-x="553" 
d="M520 258q0 -117 -71.5 -192.5t-182.5 -75.5q-110 0 -171.5 61t-61.5 189q0 117 70.5 192t183.5 75q110 0 171.5 -62t61.5 -187zM388 251q0 148 -110 148q-47 0 -80 -37t-33 -109q0 -154 111 -154q49 0 80.5 39.5t31.5 112.5z" />
    <glyph glyph-name="p" unicode="p" horiz-adv-x="559" 
d="M523 275q0 -132 -67.5 -207t-194.5 -75q-36 0 -64 4v-238h-128v738h119q0 -51 -5 -83h2q45 93 156 93q88 0 135 -60.5t47 -171.5zM389 261q0 141 -85 141q-48 0 -77.5 -48t-29.5 -115v-138q30 -9 67 -9q125 0 125 169z" />
    <glyph glyph-name="q" unicode="q" horiz-adv-x="559" 
d="M489 -241h-127v225q0 59 7 96l-2 1q-20 -43 -59 -67.5t-88 -24.5q-90 0 -137 59.5t-47 173.5q0 129 71 206.5t200 77.5q92 0 182 -15v-732zM362 260v138q-37 7 -67 7q-125 0 -125 -169q0 -141 84 -141q49 0 78.5 48.5t29.5 116.5z" />
    <glyph glyph-name="r" unicode="r" horiz-adv-x="355" 
d="M341 507l-6 -125q-69 14 -103.5 -31t-34.5 -148v-203h-128v497h121q0 -47 -9 -100h2q46 120 158 110z" />
    <glyph glyph-name="s" unicode="s" horiz-adv-x="417" 
d="M378 155q0 -74 -60 -119.5t-159 -45.5q-65 0 -111 13l9 107q46 -20 106 -20q36 0 58 14.5t22 39.5q0 24 -21 38.5t-50.5 24t-59 22.5t-50.5 43t-21 77q0 70 54 114.5t157 44.5q43 0 90 -10l-6 -100q-44 13 -90 13q-73 0 -73 -51q0 -23 21 -37.5t51.5 -24.5t60.5 -24
t51 -44t21 -75z" />
    <glyph glyph-name="t" unicode="t" horiz-adv-x="375" 
d="M344 4q-56 -14 -108 -14q-82 0 -113 34t-31 122v252h-86v99h86v153l127 34v-187h121v-99h-121v-218q0 -47 13 -64.5t46 -17.5t57 7z" />
    <glyph glyph-name="u" unicode="u" horiz-adv-x="570" 
d="M501 0h-120q0 58 6 89h-1q-51 -99 -169 -99q-148 0 -148 158v349h127v-318q0 -41 14 -61.5t48 -20.5q48 0 81.5 47t33.5 113v240h128v-497z" />
    <glyph glyph-name="v" unicode="v" horiz-adv-x="506" 
d="M500 497l-172 -497h-152l-171 497h138l80 -240q22 -74 32 -124h2q13 61 30 123l78 241h135z" />
    <glyph glyph-name="w" unicode="w" horiz-adv-x="796" 
d="M786 497l-156 -497h-139l-72 220q-16 56 -28 112h-1q-12 -57 -34 -125l-63 -207h-132l-152 497h140l53 -188q33 -123 39 -150h1q10 58 36 144l60 194h123l61 -188q30 -100 40 -150h2q12 61 34 144l57 194h131z" />
    <glyph glyph-name="x" unicode="x" horiz-adv-x="528" 
d="M517 0h-161l-96 167l-96 -167h-153l171 251l-161 246h153l96 -164l97 164h142l-156 -245z" />
    <glyph glyph-name="y" unicode="y" horiz-adv-x="502" 
d="M499 497l-197 -525q-47 -125 -104 -173t-146 -48q-37 0 -70 7l15 110q32 -10 63 -10q79 0 113 98l16 44l-184 497h143l67 -190q22 -68 39 -137h1q16 67 48 158l59 169h137z" />
    <glyph glyph-name="z" unicode="z" horiz-adv-x="450" 
d="M403 0h-358v91l200 293q-38 -2 -106 -2h-88v115h348v-91l-196 -290q21 1 113 1h87v-117z" />
    <glyph glyph-name="braceleft" unicode="{" horiz-adv-x="362" 
d="M330 -205h-21q-97 0 -139.5 53t-42.5 170v135q0 60 -23.5 84.5t-76.5 27.5v96q54 3 77 25.5t23 82.5v87q0 112 42.5 166.5t139.5 54.5h21v-101q-49 0 -66.5 -23.5t-17.5 -94.5v-86q0 -142 -92 -158v-2q92 -13 92 -161v-134q0 -72 17.5 -95.5t66.5 -23.5v-103z" />
    <glyph glyph-name="bar" unicode="|" horiz-adv-x="288" 
d="M193 -241h-102v1000h102v-1000z" />
    <glyph glyph-name="braceright" unicode="}" horiz-adv-x="360" 
d="M338 265q-52 -3 -76 -27.5t-24 -84.5v-135q0 -117 -42.5 -170t-138.5 -53h-22v103q50 0 67.5 23.5t17.5 95.5v134q0 148 92 161v2q-92 13 -92 155v89q0 71 -17.5 94.5t-67.5 23.5v101h22q97 0 139 -54.5t42 -166.5v-84q0 -62 23 -85t77 -26v-96z" />
    <glyph glyph-name="asciitilde" unicode="~" horiz-adv-x="550" 
d="M509 566q0 -72 -41 -116t-110 -44q-32 0 -56 10.5t-38.5 26t-26 31t-25 26t-28.5 10.5q-45 0 -47 -80h-95v18q0 72 41 116t110 44q32 0 56 -11t38.5 -26t26 -30.5t25 -26.5t28.5 -11q45 0 47 81h95v-18z" />
    <glyph glyph-name="uni00A0" unicode="&#xa0;" horiz-adv-x="218" 
 />
    <glyph glyph-name="exclamdown" unicode="&#xa1;" horiz-adv-x="321" 
d="M231 432q0 -32 -22.5 -54t-55.5 -22t-55.5 22t-22.5 54t22.5 54t55.5 22t55.5 -22t22.5 -54zM227 -211h-150l19 520h110z" />
    <glyph glyph-name="cent" unicode="&#xa2;" horiz-adv-x="454" 
d="M409 55q-44 -17 -90 -21v-102h-96v102q-89 11 -136 73.5t-47 161.5q0 96 49 162.5t134 82.5v93h96v-86q48 -3 89 -17l-12 -108q-42 21 -96 21q-59 0 -93.5 -37t-34.5 -104q0 -62 31 -98.5t95 -36.5q52 0 102 25z" />
    <glyph glyph-name="sterling" unicode="&#xa3;" horiz-adv-x="476" 
d="M451 0h-409v89q47 33 67.5 68t20.5 83q0 31 -4 61h-97v98h86q-11 68 -11 101q0 91 53 139t151 48q64 0 111 -15l-22 -105q-40 15 -82 15q-82 0 -82 -82q0 -21 10 -101h135v-98h-123q2 -20 2 -49q0 -89 -67 -147q36 6 107 6h154v-111z" />
    <glyph glyph-name="currency" unicode="&#xa4;" horiz-adv-x="550" 
d="M515 118l-98 -71l-77 103q-35 -16 -74 -16q-31 0 -55 9l-69 -95l-99 70l68 85q-34 49 -34 123q0 73 39 123l-72 92l97 69l71 -97q32 13 72 13q36 0 64 -11l70 96l97 -71l-71 -89q29 -43 29 -115q0 -68 -37 -119zM361 334q0 99 -87 99q-36 0 -60.5 -27t-24.5 -75
q0 -47 21 -75.5t65 -28.5q36 0 61 27.5t25 79.5z" />
    <glyph glyph-name="yen" unicode="&#xa5;" horiz-adv-x="601" 
d="M581 675l-186 -366h124v-81h-155v-58h155v-83h-155v-87h-129v87h-155v83h155v58h-155v81h125l-183 366h142l89 -184q28 -57 47 -113h2q21 60 55 126l87 171h137z" />
    <glyph glyph-name="brokenbar" unicode="&#xa6;" horiz-adv-x="288" 
d="M193 391h-102v368h102v-368zM193 -241h-102v378h102v-378z" />
    <glyph glyph-name="section" unicode="&#xa7;" horiz-adv-x="530" 
d="M458 247q0 -86 -77 -145q37 -45 37 -104q0 -69 -55.5 -117t-169.5 -48q-46 0 -83 10l8 107q40 -12 77 -12q42 0 64 17t22 44q0 25 -23 51t-55.5 52t-64.5 56t-55 73.5t-23 93.5q0 90 76 145q-37 46 -37 104q0 72 51.5 118t158.5 46q49 0 82 -8l-7 -106q-34 10 -71 10
q-77 0 -77 -56q0 -23 23 -50t55.5 -54t65 -58.5t55.5 -75.5t23 -93zM342 230q0 19 -6 36t-21.5 35.5t-27.5 30.5t-38.5 36.5t-40.5 37.5q-32 -25 -32 -64q0 -40 29 -74.5t106 -100.5q31 24 31 63z" />
    <glyph glyph-name="dieresis" unicode="&#xa8;" horiz-adv-x="546" 
d="M434 648q0 -28 -20 -48.5t-49 -20.5t-49 20.5t-20 48.5q0 29 20 49t49 20t49 -20t20 -49zM232 648q0 -28 -20 -48.5t-49 -20.5t-49 20.5t-20 48.5q0 29 20 49t49 20t49 -20t20 -49z" />
    <glyph glyph-name="copyright" unicode="&#xa9;" horiz-adv-x="762" 
d="M722 334q0 -142 -100 -242t-242 -100q-144 0 -243 99.5t-99 241.5t100 242t242 100t242 -99.5t100 -241.5zM625 333q0 102 -71.5 174.5t-173.5 72.5t-174 -72t-72 -174t72 -174.5t174 -72.5t173.5 72t71.5 174zM480 177q-43 -20 -102 -20q-76 0 -118.5 46.5t-42.5 126.5
q0 79 44.5 130.5t131.5 51.5q45 0 82 -15l-14 -85q-25 17 -63 17q-75 0 -75 -97q0 -87 70 -87q41 0 70 14z" />
    <glyph glyph-name="ordfeminine" unicode="&#xaa;" horiz-adv-x="403" 
d="M341 325h-97q0 28 4 49l-1 1q-11 -25 -39.5 -42t-61.5 -17q-53 0 -79.5 26.5t-26.5 70.5q0 64 55 97t144 32v15q0 47 -58 47q-54 0 -110 -27l-9 86q61 22 135 22q77 0 110 -32.5t33 -83.5v-159q0 -61 1 -85zM361 176h-311v99h311v-99zM239 467v10q-103 0 -103 -50
q0 -14 10 -23t27 -9q30 0 48 24t18 48z" />
    <glyph glyph-name="guillemotleft" unicode="&#xab;" horiz-adv-x="534" 
d="M477 150l-100 -47l-118 189l120 192l96 -46l-92 -145zM252 144l-103 -46l-107 194l110 197l98 -45l-85 -151z" />
    <glyph glyph-name="logicalnot" unicode="&#xac;" horiz-adv-x="550" 
d="M489 95h-113v149h-337v107h450v-256z" />
    <glyph glyph-name="registered" unicode="&#xae;" horiz-adv-x="564" 
d="M516 530q0 -96 -69 -163t-165 -67q-98 0 -166 66.5t-68 163.5q0 96 68.5 163.5t165.5 67.5q98 0 166 -66.5t68 -164.5zM438 530q0 65 -46 111.5t-110 46.5q-65 0 -111 -46t-46 -111t46 -111.5t111 -46.5t110.5 46t45.5 111zM377 420h-72l-38 85h-7v-85h-60v223h93
q79 0 79 -62q0 -50 -45 -63q9 -10 17 -27zM306 573q0 24 -30 24h-16v-51h11q35 0 35 27z" />
    <glyph glyph-name="macron" unicode="&#xaf;" horiz-adv-x="395" 
d="M332 600h-269v92h269v-92z" />
    <glyph glyph-name="macron" unicode="&#x2c9;" horiz-adv-x="395" 
d="M332 600h-269v92h269v-92z" />
    <glyph glyph-name="degree" unicode="&#xb0;" horiz-adv-x="388" 
d="M340 604q0 -66 -45.5 -104t-108.5 -38q-67 0 -105.5 37.5t-38.5 101.5q0 63 46 102t105 39q74 0 110.5 -39t36.5 -99zM245 604q0 23 -13.5 40.5t-39.5 17.5q-24 0 -39.5 -16.5t-15.5 -43.5t15 -43t39 -16t39 17t15 44z" />
    <glyph glyph-name="plusminus" unicode="&#xb1;" horiz-adv-x="550" 
d="M511 346h-175v-183h-122v183h-175v106h175v182h122v-182h175v-106zM507 0h-464v107h464v-107z" />
    <glyph glyph-name="twosuperior" unicode="&#xb2;" horiz-adv-x="372" 
d="M337 358h-302v86l72 73q30 31 46 48.5t30 41.5t14 43q0 53 -59 53q-42 0 -84 -20l-15 89q57 24 130 24t114 -30.5t41 -91.5q0 -49 -20 -86t-63 -84l-50 -51q39 2 146 2v-97z" />
    <glyph glyph-name="threesuperior" unicode="&#xb3;" horiz-adv-x="364" 
d="M323 493q0 -65 -52.5 -104t-141.5 -39q-50 0 -101 11l13 80q30 -10 80 -10q38 0 59.5 15t21.5 40q0 31 -37.5 45.5t-106.5 5.5v76q133 0 133 61q0 43 -60 43q-49 0 -86 -17l-11 77q54 19 125 19q150 0 150 -107q0 -69 -62 -97q76 -22 76 -99z" />
    <glyph glyph-name="acute" unicode="&#xb4;" horiz-adv-x="393" 
d="M317 707l-143 -150l-66 53l127 161z" />
    <glyph glyph-name="mu" unicode="&#xb5;" horiz-adv-x="582" 
d="M556 -4q-28 -5 -51 -5q-61 0 -86 25t-27 71h-1q-40 -94 -142 -94q-43 0 -64 23l15 -257h-131v738h128v-322q0 -78 61 -78q51 0 83.5 45t32.5 117v238h127v-318q0 -51 11 -66.5t44 -15.5v-101z" />
    <glyph glyph-name="mu" unicode="&#x3bc;" horiz-adv-x="582" 
d="M556 -4q-28 -5 -51 -5q-61 0 -86 25t-27 71h-1q-40 -94 -142 -94q-43 0 -64 23l15 -257h-131v738h128v-322q0 -78 61 -78q51 0 83.5 45t32.5 117v238h127v-318q0 -51 11 -66.5t44 -15.5v-101z" />
    <glyph glyph-name="paragraph" unicode="&#xb6;" horiz-adv-x="595" 
d="M544 573h-65v-669h-179v102h70v669h174v-102zM293 231q-118 -1 -178.5 62.5t-60.5 160.5q0 100 66.5 160.5t172.5 60.5v-444z" />
    <glyph glyph-name="periodcentered" unicode="&#xb7;" horiz-adv-x="269" 
d="M218 298q0 -34 -24.5 -58.5t-58.5 -24.5q-35 0 -59 24.5t-24 58.5t24.5 58.5t58.5 24.5t58.5 -24.5t24.5 -58.5z" />
    <glyph glyph-name="periodcentered" unicode="&#x2219;" horiz-adv-x="269" 
d="M218 298q0 -34 -24.5 -58.5t-58.5 -24.5q-35 0 -59 24.5t-24 58.5t24.5 58.5t58.5 24.5t58.5 -24.5t24.5 -58.5z" />
    <glyph glyph-name="cedilla" unicode="&#xb8;" horiz-adv-x="400" 
d="M256 -40q72 -99 -20 -194h-96q38 45 41 79.5t-31 81.5z" />
    <glyph glyph-name="onesuperior" unicode="&#xb9;" horiz-adv-x="296" 
d="M235 358h-123v324l-82 -30l-19 94l119 42h105v-430z" />
    <glyph glyph-name="ordmasculine" unicode="&#xba;" horiz-adv-x="426" 
d="M385 506q0 -85 -51.5 -137t-131.5 -52q-74 0 -119 44t-45 138q0 84 51.5 135.5t128.5 51.5t122 -43t45 -137zM371 176h-318v99h318v-99zM281 504q0 92 -69 92q-29 0 -49.5 -23t-20.5 -71q0 -96 67 -96q32 0 52 23.5t20 74.5z" />
    <glyph glyph-name="guillemotright" unicode="&#xbb;" horiz-adv-x="534" 
d="M492 295l-110 -197l-99 45l86 151l-87 149l103 46zM275 295l-121 -192l-96 46l93 145l-94 143l100 47z" />
    <glyph glyph-name="onequarter" unicode="&#xbc;" horiz-adv-x="850" 
d="M235 358h-123v324l-82 -30l-19 94l119 42h105v-430zM759 754l-651 -904l-79 54l652 905zM819 -22h-63v-90h-108v90h-196l-8 79l147 261h165v-250h63v-90zM647 67v181l-100 -182q27 1 100 1z" />
    <glyph glyph-name="onehalf" unicode="&#xbd;" horiz-adv-x="858" 
d="M759 754l-651 -904l-79 54l652 905zM235 358h-123v324l-82 -30l-19 94l119 42h105v-430zM816 -112h-301v86l72 73q29 30 45.5 48.5t30 42t13.5 42.5q0 53 -58 53q-42 0 -84 -20l-16 89q58 24 131 24q72 0 113 -30.5t41 -91.5q0 -49 -19.5 -86.5t-62.5 -83.5l-50 -51
q39 2 145 2v-97z" />
    <glyph glyph-name="threequarters" unicode="&#xbe;" horiz-adv-x="868" 
d="M778 754l-652 -904l-78 54l651 905zM323 493q0 -65 -52.5 -104t-141.5 -39q-50 0 -101 11l13 80q30 -10 80 -10q38 0 59.5 15t21.5 40q0 31 -37.5 45.5t-106.5 5.5v76q133 0 133 61q0 43 -60 43q-49 0 -86 -17l-11 77q54 19 125 19q150 0 150 -107q0 -69 -62 -97
q76 -22 76 -99zM837 -22h-62v-90h-108v90h-197l-7 79l147 261h165v-250h62v-90zM665 67v181l-99 -182q26 1 99 1z" />
    <glyph glyph-name="questiondown" unicode="&#xbf;" horiz-adv-x="451" 
d="M336 432q0 -32 -22.5 -54t-55.5 -22t-55.5 22t-22.5 54t22.5 54t55.5 22t55.5 -22t22.5 -54zM384 -104l-16 -116q-156 4 -238.5 62.5t-82.5 142.5q0 39 14.5 71t35 52t43.5 42t39.5 41t23 50t-5.5 68h125q16 -45 12 -81.5t-19 -60.5t-36.5 -46.5t-42 -39t-35 -38.5
t-14.5 -45q0 -45 52.5 -72t144.5 -30z" />
    <glyph glyph-name="Agrave" unicode="&#xc0;" horiz-adv-x="626" 
d="M625 0h-144l-46 138h-256l-47 -138h-131l233 675h153zM402 241l-69 201q-18 53 -27 93h-1q-16 -60 -26 -93l-69 -201h192zM393 786l-21 -70l-215 53l29 92z" />
    <glyph glyph-name="Aacute" unicode="&#xc1;" horiz-adv-x="626" 
d="M625 0h-144l-46 138h-256l-47 -138h-131l233 675h153zM402 241l-69 201q-18 53 -27 93h-1q-16 -60 -26 -93l-69 -201h192zM459 769l-216 -53l-21 70l208 75z" />
    <glyph glyph-name="Acircumflex" unicode="&#xc2;" horiz-adv-x="626" 
d="M625 0h-144l-46 138h-256l-47 -138h-131l233 675h153zM402 241l-69 201q-18 53 -27 93h-1q-16 -60 -26 -93l-69 -201h192zM476 783l-31 -68l-139 56l-133 -55l-28 64l165 85z" />
    <glyph glyph-name="Atilde" unicode="&#xc3;" horiz-adv-x="626" 
d="M625 0h-144l-46 138h-256l-47 -138h-131l233 675h153zM402 241l-69 201q-18 53 -27 93h-1q-16 -60 -26 -93l-69 -201h192zM499 810q-46 -82 -125 -82q-38 0 -75 23.5t-53 23.5q-33 0 -58 -43l-63 44q46 82 125 82q38 0 75 -23.5t53 -23.5q32 0 58 42z" />
    <glyph glyph-name="Adieresis" unicode="&#xc4;" horiz-adv-x="626" 
d="M625 0h-144l-46 138h-256l-47 -138h-131l233 675h153zM402 241l-69 201q-18 53 -27 93h-1q-16 -60 -26 -93l-69 -201h192zM484 785q0 -28 -19.5 -47t-47.5 -19t-47 19t-19 47t19 47t47 19t47.5 -19t19.5 -47zM269 785q0 -28 -19.5 -47t-47.5 -19t-47.5 19t-19.5 47
t19.5 47t47.5 19t47.5 -19t19.5 -47z" />
    <glyph glyph-name="Aring" unicode="&#xc5;" horiz-adv-x="626" 
d="M625 0h-144l-46 138h-256l-47 -138h-131l233 675h153zM402 241l-69 201q-18 53 -27 93h-1q-16 -60 -26 -93l-69 -201h192zM431 824q0 -47 -35 -80t-83 -33q-49 0 -82.5 31.5t-33.5 79.5t34.5 80t82.5 32q49 0 83 -31t34 -79zM361 823q0 20 -14 34t-33 14q-20 0 -34 -14.5
t-14 -33.5t14 -33.5t34 -14.5q19 0 33 14t14 34z" />
    <glyph glyph-name="AE" unicode="&#xc6;" horiz-adv-x="785" 
d="M729 0h-365v149h-197l-72 -149h-133l334 675h426v-109h-233v-166h225v-106h-225v-182h240v-112zM364 251v315h-2q-26 -65 -62 -141l-89 -174h153z" />
    <glyph glyph-name="Ccedilla" unicode="&#xc7;" horiz-adv-x="566" 
d="M526 23q-82 -31 -176 -31q-85 0 -147.5 26.5t-97.5 73t-51 102.5t-16 122q0 166 86.5 265.5t251.5 99.5q76 0 144 -20l-18 -120q-62 24 -132 24q-92 0 -140.5 -62t-48.5 -165q0 -228 197 -228q70 0 128 28zM363 -40q72 -99 -20 -194h-96q38 45 41 79.5t-31 81.5z" />
    <glyph glyph-name="Egrave" unicode="&#xc8;" horiz-adv-x="493" 
d="M437 0h-367v675h367v-109h-237v-166h225v-106h-225v-182h237v-112zM335 786l-21 -70l-215 53l29 92z" />
    <glyph glyph-name="Eacute" unicode="&#xc9;" horiz-adv-x="493" 
d="M437 0h-367v675h367v-109h-237v-166h225v-106h-225v-182h237v-112zM401 769l-216 -53l-21 70l208 75z" />
    <glyph glyph-name="Ecircumflex" unicode="&#xca;" horiz-adv-x="493" 
d="M437 0h-367v675h367v-109h-237v-166h225v-106h-225v-182h237v-112zM418 783l-31 -68l-139 56l-133 -55l-28 64l165 85z" />
    <glyph glyph-name="Edieresis" unicode="&#xcb;" horiz-adv-x="493" 
d="M437 0h-367v675h367v-109h-237v-166h225v-106h-225v-182h237v-112zM424 785q0 -28 -19.5 -47t-47.5 -19t-47 19t-19 47t19 47t47 19t47.5 -19t19.5 -47zM209 785q0 -28 -19.5 -47t-47.5 -19t-47.5 19t-19.5 47t19.5 47t47.5 19t47.5 -19t19.5 -47z" />
    <glyph glyph-name="Igrave" unicode="&#xcc;" horiz-adv-x="270" 
d="M200 0h-130v675h130v-675zM218 786l-21 -70l-215 53l29 92z" />
    <glyph glyph-name="Iacute" unicode="&#xcd;" horiz-adv-x="270" 
d="M200 0h-130v675h130v-675zM290 769l-216 -53l-21 70l208 75z" />
    <glyph glyph-name="Icircumflex" unicode="&#xce;" horiz-adv-x="270" 
d="M200 0h-130v675h130v-675zM302 783l-31 -68l-139 56l-133 -55l-28 64l165 85z" />
    <glyph glyph-name="Idieresis" unicode="&#xcf;" horiz-adv-x="270" 
d="M200 0h-130v675h130v-675zM309 785q0 -28 -19.5 -47t-47.5 -19t-47 19t-19 47t19 47t47 19t47.5 -19t19.5 -47zM94 785q0 -28 -19.5 -47t-47.5 -19t-47.5 19t-19.5 47t19.5 47t47.5 19t47.5 -19t19.5 -47z" />
    <glyph glyph-name="Eth" unicode="&#xd0;" horiz-adv-x="676" 
d="M639 349q0 -168 -100 -260.5t-272 -92.5q-45 0 -188 5v295h-75v99h75v279q133 5 219 5q341 0 341 -330zM499 339q0 113 -50 172t-162 59q-47 0 -79 -3v-172h122v-99h-122v-184q30 -5 71 -5q101 0 160.5 58t59.5 174z" />
    <glyph glyph-name="Ntilde" unicode="&#xd1;" horiz-adv-x="699" 
d="M629 0h-172l-209 372q-43 84 -60 132q7 -103 7 -321v-183h-125v675h172l204 -363q34 -60 65 -135q-7 119 -7 328v170h125v-675zM538 810q-46 -82 -125 -82q-38 0 -75 23.5t-53 23.5q-33 0 -58 -43l-63 44q46 82 125 82q38 0 75 -23.5t53 -23.5q33 0 58 42z" />
    <glyph glyph-name="Ograve" unicode="&#xd2;" horiz-adv-x="703" 
d="M670 348q0 -163 -95 -261t-235 -98q-151 0 -229 89.5t-78 248.5q0 163 95 261t235 98q151 0 229 -89.5t78 -248.5zM531 333q0 110 -45 173t-134 63q-79 0 -129.5 -60t-50.5 -166q0 -111 45 -173.5t134 -62.5q79 0 129.5 60t50.5 166zM433 786l-21 -70l-215 53l29 92z" />
    <glyph glyph-name="Oacute" unicode="&#xd3;" horiz-adv-x="703" 
d="M670 348q0 -163 -95 -261t-235 -98q-151 0 -229 89.5t-78 248.5q0 163 95 261t235 98q151 0 229 -89.5t78 -248.5zM531 333q0 110 -45 173t-134 63q-79 0 -129.5 -60t-50.5 -166q0 -111 45 -173.5t134 -62.5q79 0 129.5 60t50.5 166zM516 769l-216 -53l-21 70l208 75z
" />
    <glyph glyph-name="Ocircumflex" unicode="&#xd4;" horiz-adv-x="703" 
d="M670 348q0 -163 -95 -261t-235 -98q-151 0 -229 89.5t-78 248.5q0 163 95 261t235 98q151 0 229 -89.5t78 -248.5zM531 333q0 110 -45 173t-134 63q-79 0 -129.5 -60t-50.5 -166q0 -111 45 -173.5t134 -62.5q79 0 129.5 60t50.5 166zM525 783l-31 -68l-139 56l-133 -55
l-28 64l165 85z" />
    <glyph glyph-name="Otilde" unicode="&#xd5;" horiz-adv-x="703" 
d="M670 348q0 -163 -95 -261t-235 -98q-151 0 -229 89.5t-78 248.5q0 163 95 261t235 98q151 0 229 -89.5t78 -248.5zM531 333q0 110 -45 173t-134 63q-79 0 -129.5 -60t-50.5 -166q0 -111 45 -173.5t134 -62.5q79 0 129.5 60t50.5 166zM540 810q-46 -82 -125 -82
q-38 0 -75 23.5t-53 23.5q-33 0 -58 -43l-63 44q46 82 125 82q38 0 75 -23.5t53 -23.5q33 0 58 42z" />
    <glyph glyph-name="Odieresis" unicode="&#xd6;" horiz-adv-x="703" 
d="M670 348q0 -163 -95 -261t-235 -98q-151 0 -229 89.5t-78 248.5q0 163 95 261t235 98q151 0 229 -89.5t78 -248.5zM531 333q0 110 -45 173t-134 63q-79 0 -129.5 -60t-50.5 -166q0 -111 45 -173.5t134 -62.5q79 0 129.5 60t50.5 166zM532 785q0 -28 -19.5 -47t-47.5 -19
t-47 19t-19 47t19 47t47 19t47.5 -19t19.5 -47zM317 785q0 -28 -19.5 -47t-47.5 -19t-47.5 19t-19.5 47t19.5 47t47.5 19t47.5 -19t19.5 -47z" />
    <glyph glyph-name="multiply" unicode="&#xd7;" horiz-adv-x="550" 
d="M503 147l-78 -78l-154 154l-154 -154l-70 70l154 154l-154 154l78 78l154 -154l154 154l70 -70l-154 -154z" />
    <glyph glyph-name="Oslash" unicode="&#xd8;" horiz-adv-x="703" 
d="M670 345q0 -163 -94 -259.5t-237 -96.5q-49 0 -89 9l-45 -101l-91 41l45 100q-126 80 -126 291q0 162 95 259.5t235 97.5q42 0 82 -8l45 100l91 -40l-43 -97q132 -79 132 -296zM536 336q0 132 -57 187l-177 -415q18 -5 44 -5q81 0 135.5 58.5t54.5 174.5zM394 569h-1
q-20 4 -42 4q-77 0 -130.5 -60t-53.5 -170q0 -123 52 -182z" />
    <glyph glyph-name="Ugrave" unicode="&#xd9;" horiz-adv-x="681" 
d="M611 262q0 -137 -72 -205t-208 -68q-77 0 -130 19.5t-80.5 55.5t-39 76.5t-11.5 93.5v441h130v-433q0 -70 30.5 -107.5t109.5 -37.5q76 0 109 36t33 121v421h129v-413zM401 786l-21 -70l-215 53l29 92z" />
    <glyph glyph-name="Uacute" unicode="&#xda;" horiz-adv-x="681" 
d="M611 262q0 -137 -72 -205t-208 -68q-77 0 -130 19.5t-80.5 55.5t-39 76.5t-11.5 93.5v441h130v-433q0 -70 30.5 -107.5t109.5 -37.5q76 0 109 36t33 121v421h129v-413zM534 769l-216 -53l-21 70l208 75z" />
    <glyph glyph-name="Ucircumflex" unicode="&#xdb;" horiz-adv-x="681" 
d="M611 262q0 -137 -72 -205t-208 -68q-77 0 -130 19.5t-80.5 55.5t-39 76.5t-11.5 93.5v441h130v-433q0 -70 30.5 -107.5t109.5 -37.5q76 0 109 36t33 121v421h129v-413zM508 783l-31 -68l-139 56l-133 -55l-28 64l165 85z" />
    <glyph glyph-name="Udieresis" unicode="&#xdc;" horiz-adv-x="681" 
d="M611 262q0 -137 -72 -205t-208 -68q-77 0 -130 19.5t-80.5 55.5t-39 76.5t-11.5 93.5v441h130v-433q0 -70 30.5 -107.5t109.5 -37.5q76 0 109 36t33 121v421h129v-413zM514 785q0 -28 -19.5 -47t-47.5 -19t-47 19t-19 47t19 47t47 19t47.5 -19t19.5 -47zM299 785
q0 -28 -19.5 -47t-47.5 -19t-47.5 19t-19.5 47t19.5 47t47.5 19t47.5 -19t19.5 -47z" />
    <glyph glyph-name="Yacute" unicode="&#xdd;" horiz-adv-x="561" 
d="M559 675l-215 -436v-239h-130v238l-211 437h142l89 -194q25 -56 46 -112h2q14 39 54 125l85 181h138zM467 769l-216 -53l-21 70l208 75z" />
    <glyph glyph-name="Thorn" unicode="&#xde;" horiz-adv-x="544" 
d="M528 365q0 -106 -76 -173.5t-202 -67.5q-34 0 -50 2v-126h-130v675h130v-94q44 2 73 2q121 0 188 -55.5t67 -162.5zM394 357q0 55 -34 87.5t-106 32.5q-16 0 -54 -4v-239q23 -4 58 -4q62 0 99 33t37 94z" />
    <glyph glyph-name="germandbls" unicode="&#xdf;" horiz-adv-x="607" 
d="M576 157q0 -76 -57 -122t-150 -46q-67 0 -106 14l7 105q45 -20 91 -20q42 0 62.5 16t20.5 40t-18.5 42t-44.5 32.5t-52 32t-44.5 49t-18.5 74.5q0 32 11.5 57.5t28 41.5t33.5 31t28.5 34t11.5 42q0 28 -20 43t-55 15q-107 0 -107 -138v-500h-128v494q0 125 66.5 184
t173.5 59q93 0 148 -40t55 -109q0 -35 -12 -61.5t-29 -42t-34 -28.5t-29 -29.5t-12 -37.5q0 -23 18.5 -41.5t45 -33.5t53 -33.5t45 -50t18.5 -73.5z" />
    <glyph glyph-name="agrave" unicode="&#xe0;" horiz-adv-x="524" 
d="M457 0h-122q0 52 5 84l-1 1q-18 -43 -61 -69t-98 -26q-66 0 -104 40t-38 102q0 86 76 129.5t211 43.5v18q0 46 -20 66.5t-69 20.5q-71 0 -150 -34l-21 98q85 34 188 34q111 0 155.5 -43.5t44.5 -131.5v-205q0 -73 4 -128zM325 208v13q-164 0 -164 -75q0 -25 16.5 -41.5
t43.5 -16.5q45 0 74.5 36.5t29.5 83.5zM327 611l-67 -54l-141 149l82 65z" />
    <glyph glyph-name="aacute" unicode="&#xe1;" horiz-adv-x="524" 
d="M457 0h-122q0 52 5 84l-1 1q-18 -43 -61 -69t-98 -26q-66 0 -104 40t-38 102q0 86 76 129.5t211 43.5v18q0 46 -20 66.5t-69 20.5q-71 0 -150 -34l-21 98q85 34 188 34q111 0 155.5 -43.5t44.5 -131.5v-205q0 -73 4 -128zM325 208v13q-164 0 -164 -75q0 -25 16.5 -41.5
t43.5 -16.5q45 0 74.5 36.5t29.5 83.5zM402 707l-143 -150l-66 53l127 161z" />
    <glyph glyph-name="acircumflex" unicode="&#xe2;" horiz-adv-x="524" 
d="M457 0h-122q0 52 5 84l-1 1q-18 -43 -61 -69t-98 -26q-66 0 -104 40t-38 102q0 86 76 129.5t211 43.5v18q0 46 -20 66.5t-69 20.5q-71 0 -150 -34l-21 98q85 34 188 34q111 0 155.5 -43.5t44.5 -131.5v-205q0 -73 4 -128zM325 208v13q-164 0 -164 -75q0 -25 16.5 -41.5
t43.5 -16.5q45 0 74.5 36.5t29.5 83.5zM418 619l-50 -59l-104 81l-103 -81l-49 58l153 136z" />
    <glyph glyph-name="atilde" unicode="&#xe3;" horiz-adv-x="524" 
d="M457 0h-122q0 52 5 84l-1 1q-18 -43 -61 -69t-98 -26q-66 0 -104 40t-38 102q0 86 76 129.5t211 43.5v18q0 46 -20 66.5t-69 20.5q-71 0 -150 -34l-21 98q85 34 188 34q111 0 155.5 -43.5t44.5 -131.5v-205q0 -73 4 -128zM325 208v13q-164 0 -164 -75q0 -25 16.5 -41.5
t43.5 -16.5q45 0 74.5 36.5t29.5 83.5zM444 666q-45 -89 -121 -89q-37 0 -73 25.5t-51 25.5q-30 0 -55 -45l-61 47q45 89 122 89q37 0 72 -25.5t51 -25.5q30 0 55 45z" />
    <glyph glyph-name="adieresis" unicode="&#xe4;" horiz-adv-x="524" 
d="M457 0h-122q0 52 5 84l-1 1q-18 -43 -61 -69t-98 -26q-66 0 -104 40t-38 102q0 86 76 129.5t211 43.5v18q0 46 -20 66.5t-69 20.5q-71 0 -150 -34l-21 98q85 34 188 34q111 0 155.5 -43.5t44.5 -131.5v-205q0 -73 4 -128zM325 208v13q-164 0 -164 -75q0 -25 16.5 -41.5
t43.5 -16.5q45 0 74.5 36.5t29.5 83.5zM434 648q0 -28 -20 -48.5t-49 -20.5t-49 20.5t-20 48.5q0 29 20 49t49 20t49 -20t20 -49zM232 648q0 -28 -20 -48.5t-49 -20.5t-49 20.5t-20 48.5q0 29 20 49t49 20t49 -20t20 -49z" />
    <glyph glyph-name="aring" unicode="&#xe5;" horiz-adv-x="524" 
d="M457 0h-122q0 52 5 84l-1 1q-18 -43 -61 -69t-98 -26q-66 0 -104 40t-38 102q0 86 76 129.5t211 43.5v18q0 46 -20 66.5t-69 20.5q-71 0 -150 -34l-21 98q85 34 188 34q111 0 155.5 -43.5t44.5 -131.5v-205q0 -73 4 -128zM325 208v13q-164 0 -164 -75q0 -25 16.5 -41.5
t43.5 -16.5q45 0 74.5 36.5t29.5 83.5zM394 668q0 -51 -37.5 -86.5t-90.5 -35.5t-90 34t-37 87q0 52 37.5 87t90.5 35q54 0 90.5 -34.5t36.5 -86.5zM319 667q0 22 -15 37.5t-37 15.5t-37.5 -15.5t-15.5 -37.5t15.5 -37.5t37.5 -15.5t37 15.5t15 37.5z" />
    <glyph glyph-name="ae" unicode="&#xe6;" horiz-adv-x="800" 
d="M762 285q0 -28 -4 -59h-308q-1 -68 33.5 -102t103.5 -34q75 0 144 31l14 -98q-81 -33 -180 -33q-78 0 -129 27t-71 74h-1q-55 -101 -183 -101q-67 0 -105 40t-38 102q0 86 76.5 130t210.5 44v25q0 40 -22.5 59.5t-74.5 19.5q-70 0 -140 -35l-23 101q84 32 185 32
q111 0 156 -62h1q52 62 146 62q104 0 156.5 -62t52.5 -161zM635 312q1 48 -22 75t-64 27q-40 0 -66 -27.5t-31 -74.5h183zM325 208v15q-165 0 -165 -77q0 -25 16 -41.5t43 -16.5q46 0 76 36.5t30 83.5z" />
    <glyph glyph-name="ccedilla" unicode="&#xe7;" horiz-adv-x="425" 
d="M398 14q-60 -23 -140 -23q-107 0 -165.5 59t-58.5 182q0 122 64.5 198t188.5 76q60 0 109 -17l-20 -110q-47 19 -93 19q-56 0 -85.5 -41t-29.5 -112q0 -144 116 -144q52 0 97 20zM278 -40q72 -99 -20 -194h-96q38 45 41 79.5t-31 81.5z" />
    <glyph glyph-name="egrave" unicode="&#xe8;" horiz-adv-x="514" 
d="M476 296q0 -44 -5 -72h-307q0 -134 137 -134q72 0 144 29l14 -97q-86 -32 -180 -32q-245 0 -245 254q0 115 63.5 189t172.5 74q104 0 155 -58.5t51 -152.5zM349 309q1 50 -22 77t-64 27q-40 0 -66.5 -28t-31.5 -76h184zM328 611l-67 -54l-141 149l82 65z" />
    <glyph glyph-name="eacute" unicode="&#xe9;" horiz-adv-x="514" 
d="M476 296q0 -44 -5 -72h-307q0 -134 137 -134q72 0 144 29l14 -97q-86 -32 -180 -32q-245 0 -245 254q0 115 63.5 189t172.5 74q104 0 155 -58.5t51 -152.5zM349 309q1 50 -22 77t-64 27q-40 0 -66.5 -28t-31.5 -76h184zM401 707l-143 -150l-66 53l127 161z" />
    <glyph glyph-name="ecircumflex" unicode="&#xea;" horiz-adv-x="514" 
d="M476 296q0 -44 -5 -72h-307q0 -134 137 -134q72 0 144 29l14 -97q-86 -32 -180 -32q-245 0 -245 254q0 115 63.5 189t172.5 74q104 0 155 -58.5t51 -152.5zM349 309q1 50 -22 77t-64 27q-40 0 -66.5 -28t-31.5 -76h184zM420 619l-50 -59l-104 81l-103 -81l-49 58l153 136
z" />
    <glyph glyph-name="edieresis" unicode="&#xeb;" horiz-adv-x="514" 
d="M476 296q0 -44 -5 -72h-307q0 -134 137 -134q72 0 144 29l14 -97q-86 -32 -180 -32q-245 0 -245 254q0 115 63.5 189t172.5 74q104 0 155 -58.5t51 -152.5zM349 309q1 50 -22 77t-64 27q-40 0 -66.5 -28t-31.5 -76h184zM436 648q0 -28 -20 -48.5t-49 -20.5t-49 20.5
t-20 48.5q0 29 20 49t49 20t49 -20t20 -49zM234 648q0 -28 -20 -48.5t-49 -20.5t-49 20.5t-20 48.5q0 29 20 49t49 20t49 -20t20 -49z" />
    <glyph glyph-name="igrave" unicode="&#xec;" horiz-adv-x="266" 
d="M197 0h-128v497h128v-497zM206 611l-67 -54l-141 149l82 65z" />
    <glyph glyph-name="iacute" unicode="&#xed;" horiz-adv-x="266" 
d="M197 0h-128v497h128v-497zM268 707l-143 -150l-66 53l127 161z" />
    <glyph glyph-name="icircumflex" unicode="&#xee;" horiz-adv-x="266" 
d="M197 0h-128v497h128v-497zM270 619l-49 -59l-88 81l-92 -81l-45 58l137 135z" />
    <glyph glyph-name="idieresis" unicode="&#xef;" horiz-adv-x="266" 
d="M197 0h-128v497h128v-497zM295 648q0 -28 -20.5 -48.5t-48.5 -20.5t-48.5 20.5t-20.5 48.5q0 29 20 49t49 20t49 -20t20 -49zM110 648q0 -28 -20 -48.5t-49 -20.5t-49 20t-20 49t20 49t49 20t49 -20t20 -49z" />
    <glyph glyph-name="eth" unicode="&#xf0;" horiz-adv-x="555" 
d="M518 278q0 -140 -69.5 -214t-178.5 -74t-173 63t-64 187q0 118 68 191.5t173 73.5q56 0 79 -31q-5 10 -14.5 25t-10.5 16q-19 33 -53 69l-92 -41l-52 60l84 37q-29 25 -76 57l125 53q36 -27 69 -60l89 39l51 -60l-86 -37q131 -161 131 -354zM385 260q0 66 -27.5 102.5
t-81.5 36.5q-47 0 -78.5 -38t-31.5 -111t30 -112t83 -39q49 0 77.5 40t28.5 121z" />
    <glyph glyph-name="ntilde" unicode="&#xf1;" horiz-adv-x="571" 
d="M501 0h-127v318q0 41 -14 61.5t-48 20.5q-48 0 -81.5 -47t-33.5 -113v-240h-128v497h121q0 -53 -7 -89h1q23 45 66.5 72t102.5 27q148 0 148 -158v-349zM468 666q-45 -89 -121 -89q-37 0 -73 25.5t-51 25.5q-30 0 -55 -45l-61 47q45 89 122 89q37 0 72 -25.5t51 -25.5
q30 0 55 45z" />
    <glyph glyph-name="ograve" unicode="&#xf2;" horiz-adv-x="553" 
d="M520 258q0 -117 -71.5 -192.5t-182.5 -75.5q-110 0 -171.5 61t-61.5 189q0 117 70.5 192t183.5 75q110 0 171.5 -62t61.5 -187zM388 251q0 148 -110 148q-47 0 -80 -37t-33 -109q0 -154 111 -154q49 0 80.5 39.5t31.5 112.5zM342 611l-67 -54l-141 149l82 65z" />
    <glyph glyph-name="oacute" unicode="&#xf3;" horiz-adv-x="553" 
d="M520 258q0 -117 -71.5 -192.5t-182.5 -75.5q-110 0 -171.5 61t-61.5 189q0 117 70.5 192t183.5 75q110 0 171.5 -62t61.5 -187zM388 251q0 148 -110 148q-47 0 -80 -37t-33 -109q0 -154 111 -154q49 0 80.5 39.5t31.5 112.5zM413 707l-143 -150l-66 53l127 161z" />
    <glyph glyph-name="ocircumflex" unicode="&#xf4;" horiz-adv-x="553" 
d="M520 258q0 -117 -71.5 -192.5t-182.5 -75.5q-110 0 -171.5 61t-61.5 189q0 117 70.5 192t183.5 75q110 0 171.5 -62t61.5 -187zM388 251q0 148 -110 148q-47 0 -80 -37t-33 -109q0 -154 111 -154q49 0 80.5 39.5t31.5 112.5zM436 619l-50 -59l-104 81l-103 -81l-49 58
l153 136z" />
    <glyph glyph-name="otilde" unicode="&#xf5;" horiz-adv-x="553" 
d="M520 258q0 -117 -71.5 -192.5t-182.5 -75.5q-110 0 -171.5 61t-61.5 189q0 117 70.5 192t183.5 75q110 0 171.5 -62t61.5 -187zM388 251q0 148 -110 148q-47 0 -80 -37t-33 -109q0 -154 111 -154q49 0 80.5 39.5t31.5 112.5zM465 666q-45 -89 -121 -89q-37 0 -73 25.5
t-51 25.5q-30 0 -55 -45l-61 47q45 89 122 89q36 0 72 -25.5t51 -25.5q30 0 55 45z" />
    <glyph glyph-name="odieresis" unicode="&#xf6;" horiz-adv-x="553" 
d="M520 258q0 -117 -71.5 -192.5t-182.5 -75.5q-110 0 -171.5 61t-61.5 189q0 117 70.5 192t183.5 75q110 0 171.5 -62t61.5 -187zM388 251q0 148 -110 148q-47 0 -80 -37t-33 -109q0 -154 111 -154q49 0 80.5 39.5t31.5 112.5zM452 648q0 -28 -20 -48.5t-49 -20.5t-49 20.5
t-20 48.5q0 29 20 49t49 20t49 -20t20 -49zM250 648q0 -28 -20 -48.5t-49 -20.5t-49 20.5t-20 48.5q0 29 20 49t49 20t49 -20t20 -49z" />
    <glyph glyph-name="divide" unicode="&#xf7;" horiz-adv-x="550" 
d="M352 498q0 -32 -23 -55t-55 -23t-55 23t-23 55t23 55t55 23t55 -23t23 -55zM511 244h-472v107h472v-107zM352 97q0 -32 -23 -55t-55 -23t-55 23t-23 55t23 55t55 23t55 -23t23 -55z" />
    <glyph glyph-name="oslash" unicode="&#xf8;" horiz-adv-x="555" 
d="M522 258q0 -118 -70.5 -193t-183.5 -75q-45 0 -81 10l-49 -98l-71 32l50 99q-84 60 -84 207q0 117 70.5 192t185.5 75q35 0 68 -6l45 88l70 -33l-45 -87q95 -62 95 -211zM400 251q0 75 -36 107l-121 -261q13 -5 35 -5q56 0 89 41t33 118zM302 405q-14 2 -23 2
q-51 0 -87.5 -38t-36.5 -115q0 -68 29 -103z" />
    <glyph glyph-name="ugrave" unicode="&#xf9;" horiz-adv-x="570" 
d="M501 0h-120q0 58 6 89h-1q-51 -99 -169 -99q-148 0 -148 158v349h127v-318q0 -41 14 -61.5t48 -20.5q48 0 81.5 47t33.5 113v240h128v-497zM341 611l-67 -54l-141 149l82 65z" />
    <glyph glyph-name="uacute" unicode="&#xfa;" horiz-adv-x="570" 
d="M501 0h-120q0 58 6 89h-1q-51 -99 -169 -99q-148 0 -148 158v349h127v-318q0 -41 14 -61.5t48 -20.5q48 0 81.5 47t33.5 113v240h128v-497zM429 707l-143 -150l-66 53l127 161z" />
    <glyph glyph-name="ucircumflex" unicode="&#xfb;" horiz-adv-x="570" 
d="M501 0h-120q0 58 6 89h-1q-51 -99 -169 -99q-148 0 -148 158v349h127v-318q0 -41 14 -61.5t48 -20.5q48 0 81.5 47t33.5 113v240h128v-497zM438 619l-50 -59l-104 81l-103 -81l-49 58l153 136z" />
    <glyph glyph-name="udieresis" unicode="&#xfc;" horiz-adv-x="570" 
d="M501 0h-120q0 58 6 89h-1q-51 -99 -169 -99q-148 0 -148 158v349h127v-318q0 -41 14 -61.5t48 -20.5q48 0 81.5 47t33.5 113v240h128v-497zM455 648q0 -28 -20.5 -48.5t-48.5 -20.5t-48.5 20.5t-20.5 48.5q0 29 20 49t49 20t49 -20t20 -49zM253 648q0 -28 -20.5 -48.5
t-48.5 -20.5t-48.5 20.5t-20.5 48.5q0 29 20 49t49 20t49 -20t20 -49z" />
    <glyph glyph-name="yacute" unicode="&#xfd;" horiz-adv-x="502" 
d="M499 497l-197 -525q-47 -125 -104 -173t-146 -48q-37 0 -70 7l15 110q32 -10 63 -10q79 0 113 98l16 44l-184 497h143l67 -190q22 -68 39 -137h1q16 67 48 158l59 169h137zM404 707l-143 -150l-66 53l127 161z" />
    <glyph glyph-name="thorn" unicode="&#xfe;" horiz-adv-x="559" 
d="M523 275q0 -132 -67.5 -207t-194.5 -75q-36 0 -64 4v-238h-128v971h128v-204q0 -64 -5 -102h2q42 83 147 83q88 0 135 -60.5t47 -171.5zM389 261q0 141 -85 141q-48 0 -77.5 -48t-29.5 -115v-138q30 -9 67 -9q125 0 125 169z" />
    <glyph glyph-name="ydieresis" unicode="&#xff;" horiz-adv-x="502" 
d="M499 497l-197 -525q-47 -125 -104 -173t-146 -48q-37 0 -70 7l15 110q32 -10 63 -10q79 0 113 98l16 44l-184 497h143l67 -190q22 -68 39 -137h1q16 67 48 158l59 169h137zM425 648q0 -28 -20.5 -48.5t-48.5 -20.5t-48.5 20.5t-20.5 48.5q0 29 20 49t49 20t49 -20t20 -49
zM223 648q0 -28 -20.5 -48.5t-48.5 -20.5t-48.5 20.5t-20.5 48.5q0 29 20 49t49 20t49 -20t20 -49z" />
    <glyph glyph-name="dotlessi" unicode="&#x131;" horiz-adv-x="266" 
d="M197 0h-128v497h128v-497z" />
    <glyph glyph-name="Lslash" unicode="&#x141;" horiz-adv-x="438" 
d="M428 0h-349v315l-66 -31l-23 101l89 41v249h130v-188l98 45l24 -101l-122 -55v-262h219v-114z" />
    <glyph glyph-name="lslash" unicode="&#x142;" horiz-adv-x="300" 
d="M295 437l-80 -44v-393h-128v326l-51 -29l-25 95l76 42v296h128v-229l54 31z" />
    <glyph glyph-name="OE" unicode="&#x152;" horiz-adv-x="860" 
d="M804 0h-355q-53 -11 -109 -11q-151 0 -229 90t-78 250q0 162 94 259.5t231 97.5q55 0 105 -11h341v-109h-236v-166h224v-106h-224v-182h236v-112zM438 123v433q-44 13 -86 13q-76 0 -128 -59t-52 -167q0 -111 44.5 -173.5t132.5 -62.5q44 0 89 16z" />
    <glyph glyph-name="oe" unicode="&#x153;" horiz-adv-x="860" 
d="M821 285q0 -28 -4 -59h-307q-1 -136 136 -136q76 0 144 31l14 -98q-81 -33 -180 -33q-126 0 -185 81q-61 -81 -174 -81q-110 0 -171 61t-61 189q0 118 70.5 192.5t183.5 74.5q112 0 166 -73q59 74 159 74q104 0 156.5 -62t52.5 -161zM694 312q1 48 -22 75t-64 27
q-40 0 -66 -27.5t-31 -74.5h183zM387 251q0 148 -109 148q-47 0 -80 -37t-33 -109q0 -154 111 -154q49 0 80 39.5t31 112.5z" />
    <glyph glyph-name="Scaron" unicode="&#x160;" horiz-adv-x="503" 
d="M467 207q0 -95 -72.5 -156.5t-188.5 -61.5q-88 0 -156 18l14 125q69 -29 147 -29q50 0 81.5 21.5t31.5 66.5q0 35 -29.5 57.5t-71 37.5t-83 34.5t-71 60t-29.5 102.5q0 92 67.5 147.5t187.5 55.5q60 0 122 -13l-12 -114q-59 19 -116 19q-55 0 -83 -22t-28 -59
q0 -33 30 -55t72 -38t84.5 -36t72.5 -61t30 -100zM420 801l-165 -86l-166 82l31 68l138 -56l134 55z" />
    <glyph glyph-name="scaron" unicode="&#x161;" horiz-adv-x="417" 
d="M378 155q0 -74 -60 -119.5t-159 -45.5q-65 0 -111 13l9 107q46 -20 106 -20q36 0 58 14.5t22 39.5q0 24 -21 38.5t-50.5 24t-59 22.5t-50.5 43t-21 77q0 70 54 114.5t157 44.5q43 0 90 -10l-6 -100q-44 13 -90 13q-73 0 -73 -51q0 -23 21 -37.5t51.5 -24.5t60.5 -24
t51 -44t21 -75zM364 695l-154 -135l-153 134l50 60l104 -82l103 82z" />
    <glyph glyph-name="Ydieresis" unicode="&#x178;" horiz-adv-x="561" 
d="M559 675l-215 -436v-239h-130v238l-211 437h142l89 -194q25 -56 46 -112h2q14 39 54 125l85 181h138zM458 785q0 -28 -19.5 -47t-47.5 -19t-47 19t-19 47t19 47t47 19t47.5 -19t19.5 -47zM243 785q0 -28 -19.5 -47t-47.5 -19t-47.5 19t-19.5 47t19.5 47t47.5 19t47.5 -19
t19.5 -47z" />
    <glyph glyph-name="Zcaron" unicode="&#x17d;" horiz-adv-x="537" 
d="M493 0h-448v100l243 396q28 43 44 64q-48 -2 -123 -2h-156v117h436v-105l-257 -405q-21 -34 -31 -47q17 2 146 2h146v-120zM436 801l-165 -86l-166 82l31 68l138 -56l134 55z" />
    <glyph glyph-name="zcaron" unicode="&#x17e;" horiz-adv-x="450" 
d="M403 0h-358v91l200 293q-38 -2 -106 -2h-88v115h348v-91l-196 -290q21 1 113 1h87v-117zM380 695l-154 -135l-153 134l50 60l104 -82l103 82z" />
    <glyph glyph-name="florin" unicode="&#x192;" horiz-adv-x="454" 
d="M253 324l-22 -219q-16 -148 -67.5 -209t-156.5 -61q-39 0 -74 9l19 111q37 -13 64 -13q41 0 59 28.5t26 106.5l24 247h-111v98h120l11 99q11 111 62.5 165t149.5 54q40 0 72 -7l-14 -105q-29 8 -62 8q-36 0 -55.5 -24.5t-25.5 -81.5l-10 -108h144v-98h-153z" />
    <glyph glyph-name="circumflex" unicode="&#x2c6;" horiz-adv-x="426" 
d="M365 619l-50 -59l-104 81l-103 -81l-49 58l153 136z" />
    <glyph glyph-name="caron" unicode="&#x2c7;" horiz-adv-x="426" 
d="M364 695l-154 -135l-153 134l50 60l104 -82l103 82z" />
    <glyph glyph-name="breve" unicode="&#x2d8;" horiz-adv-x="373" 
d="M239 720h83q0 -65 -34.5 -109t-103.5 -44q-68 0 -101.5 44t-33.5 109h82q0 -27 14 -44t40 -17q54 0 54 61z" />
    <glyph glyph-name="dotaccent" unicode="&#x2d9;" horiz-adv-x="287" 
d="M219 648q0 -32 -23.5 -54.5t-56.5 -22.5t-56.5 22.5t-23.5 54.5t23.5 55t56.5 23t56.5 -22.5t23.5 -55.5z" />
    <glyph glyph-name="ring" unicode="&#x2da;" horiz-adv-x="365" 
d="M310 661q0 -51 -37.5 -86.5t-90.5 -35.5t-90 34t-37 87q0 52 37.5 87t90.5 35q54 0 90.5 -34.5t36.5 -86.5zM235 660q0 22 -15 37.5t-37 15.5t-37.5 -15.5t-15.5 -37.5t15.5 -37.5t37.5 -15.5t37 15.5t15 37.5z" />
    <glyph glyph-name="ogonek" unicode="&#x2db;" horiz-adv-x="405" 
d="M77 10l120 -10q-88 -43 -88 -94q0 -31 33 -31q30 0 52 32l49 -57q-54 -74 -148 -74q-48 0 -76.5 23t-28.5 67q0 81 87 144z" />
    <glyph glyph-name="tilde" unicode="&#x2dc;" horiz-adv-x="463" 
d="M414 666q-45 -89 -121 -89q-37 0 -73 25.5t-51 25.5q-30 0 -55 -45l-61 47q45 89 122 89q37 0 72 -25.5t51 -25.5q30 0 55 45z" />
    <glyph glyph-name="hungarumlaut" unicode="&#x2dd;" horiz-adv-x="504" 
d="M467 691l-156 -131l-56 51l143 147zM265 704l-143 -144l-60 51l129 155z" />
    <glyph glyph-name="Delta" unicode="&#x394;" horiz-adv-x="614" 
d="M588 0h-561v98l198 577h159l204 -577v-98zM440 117l-113 333q-15 48 -26 102h-2q-9 -44 -27 -105l-111 -330h279z" />
    <glyph glyph-name="Delta" unicode="&#x2206;" horiz-adv-x="614" 
d="M588 0h-561v98l198 577h159l204 -577v-98zM440 117l-113 333q-15 48 -26 102h-2q-9 -44 -27 -105l-111 -330h279z" />
    <glyph glyph-name="Omega" unicode="&#x3a9;" horiz-adv-x="713" 
d="M676 0h-263v103q59 45 88 103t29 143q0 102 -44 161.5t-131 59.5q-76 0 -124.5 -59t-48.5 -159q0 -88 26.5 -143.5t91.5 -105.5v-103h-263v105h123q-117 81 -117 248q0 149 90.5 241t233.5 92q134 0 217.5 -80t83.5 -239q0 -87 -32.5 -154t-87.5 -108h128v-105z" />
    <glyph glyph-name="Omega" unicode="&#x2126;" horiz-adv-x="713" 
d="M676 0h-263v103q59 45 88 103t29 143q0 102 -44 161.5t-131 59.5q-76 0 -124.5 -59t-48.5 -159q0 -88 26.5 -143.5t91.5 -105.5v-103h-263v105h123q-117 81 -117 248q0 149 90.5 241t233.5 92q134 0 217.5 -80t83.5 -239q0 -87 -32.5 -154t-87.5 -108h128v-105z" />
    <glyph glyph-name="pi" unicode="&#x3c0;" horiz-adv-x="630" 
d="M600 392h-105q0 -160 15 -230q6 -36 17.5 -50.5t29.5 -14.5q9 0 31 4l12 -102q-30 -8 -72 -8q-66 0 -98.5 29.5t-46.5 104.5q-17 90 -17 267h-127q2 -228 -56 -405l-136 26q70 202 69 379h-104v105h588v-105z" />
    <glyph glyph-name="uni060C" unicode="&#x60c;" horiz-adv-x="258" 
d="M129 -11q-51 0 -72 50q-29 69 26 162q33 57 94 110l53 -47q-50 -53 -58.5 -90.5t17.5 -63.5q29 -33 10 -77t-70 -44z" />
    <glyph glyph-name="uni0615" unicode="&#x615;" horiz-adv-x="351" 
d="M8 739v56h46v185h69v-70q0 -28 -4 -43h1q29 48 92 48q59 0 78.5 -40.5t1.5 -135.5h-284zM123 795h100q16 64 -25 64q-24 0 -44 -17.5t-31 -46.5z" />
    <glyph glyph-name="uni061B" unicode="&#x61b;" horiz-adv-x="298" 
d="M56 71q0 33 24 57t58 24q33 0 57 -24t24 -57q0 -34 -24 -58t-57 -24q-34 0 -58 24t-24 58zM138 275q-49 0 -72 45.5t5 123.5t115 153l52 -47q-49 -53 -57.5 -90t16.5 -63q30 -34 11 -78t-70 -44z" />
    <glyph glyph-name="uni061F" unicode="&#x61f;" horiz-adv-x="459" 
d="M337 192h-128q7 23 7 40q0 33 -16.5 61.5t-39.5 52t-46 47.5t-39.5 58t-16.5 74q0 88 64.5 143t188.5 55q54 0 91 -9l-21 -110q-47 10 -79 10q-52 0 -78 -23t-26 -57q0 -30 23.5 -62.5t51 -58t51 -68t23.5 -91.5q0 -30 -10 -62zM269 -11q-33 0 -55.5 22t-22.5 54t22.5 54
t55.5 22q34 0 56.5 -22t22.5 -54t-22.5 -54t-56.5 -22z" />
    <glyph glyph-name="uni0640" unicode="&#x640;" horiz-adv-x="108" 
d="M0 0v104h110v-104h-110z" />
    <glyph glyph-name="uni064F" unicode="&#x64f;" 
d="M6 787l-12 53l77 16q-6 14 -6 33q0 40 28.5 65.5t70.5 25.5q39 0 61 -20.5t22 -52.5q0 -69 -95 -89zM129 869l18 3q40 9 40 30q0 25 -27 25q-16 0 -26 -10t-10 -27z" />
    <glyph glyph-name="uni0653" unicode="&#x653;" 
d="M69 767l-46 63l105 78q42 -39 94 -39q54 0 104 41v-96q-47 -38 -110 -38q-54 0 -89 32z" />
    <glyph glyph-name="uni0654" unicode="&#x654;" 
d="M27 770v69q41 0 60 -4q-23 12 -23 44q0 40 36 70.5t109 30.5q38 0 59 -6l-12 -68q-25 5 -51 5q-50 0 -50 -34q0 -38 71 -38h59v-69h-258z" />
    <glyph glyph-name="uni0655" unicode="&#x655;" 
d="M28 -263v70q36 0 53 -4q-17 13 -17 38q0 40 36 68t103 28q38 0 59 -6l-12 -68q-35 5 -50 5q-21 0 -33 -8.5t-12 -20.5q0 -32 64 -32h61v-70h-252z" />
    <glyph glyph-name="uni0656" unicode="&#x656;" 
d="M63 -320v192h95v-177z" />
    <glyph glyph-name="uni0658" unicode="&#x658;" horiz-adv-x="192" 
d="M239 914h83q0 -65 -34.5 -109t-103.5 -44q-68 0 -101.5 44t-33.5 109h82q0 -27 14 -44t40 -17q54 0 54 61z" />
    <glyph glyph-name="uni0660" unicode="&#x660;" horiz-adv-x="382" 
d="M286 288q0 -40 -27.5 -67.5t-67.5 -27.5t-67.5 27.5t-27.5 67.5q0 39 27.5 67t67.5 28t67.5 -28t27.5 -67z" />
    <glyph glyph-name="uni0661" unicode="&#x661;" horiz-adv-x="310" 
d="M217 600v-600h-132v600h132z" />
    <glyph glyph-name="uni0662" unicode="&#x662;" horiz-adv-x="536" 
d="M217 0h-132v600h132v-95q0 -52 18 -74.5t57 -22.5t55.5 23.5t16.5 72.5v96h132v-88q0 -93 -56.5 -150t-154.5 -57q-51 0 -72 24q4 -35 4 -75v-254z" />
    <glyph glyph-name="uni0663" unicode="&#x663;" horiz-adv-x="655" 
d="M85 0v600h132v-111q0 -76 52 -76q27 0 35.5 18.5t8.5 56.5v112h94v-112q0 -40 9 -57t38 -17q25 0 37 16t12 58v112h121v-102q0 -87 -43 -137.5t-127 -50.5q-76 0 -103 48q-26 -48 -85 -48q-43 0 -53 23q4 -52 4 -74v-259h-132z" />
    <glyph glyph-name="uni0664" unicode="&#x664;" horiz-adv-x="429" 
d="M377 621l-13 -104q-37 9 -72 9q-36 0 -65 -18.5t-29 -54.5q0 -66 101 -66h61l-9 -81q-95 -48 -135.5 -80.5t-40.5 -68.5q0 -28 17.5 -40.5t59.5 -12.5h158l-14 -104h-170q-184 0 -184 126q0 111 170 199q-69 3 -107.5 35.5t-38.5 90.5q0 69 61 122.5t175 53.5z" />
    <glyph glyph-name="uni0665" unicode="&#x665;" horiz-adv-x="570" 
d="M523 295q0 -152 -68 -229t-176 -77q-115 0 -173.5 68t-58.5 235q0 153 68 236.5t177 83.5q231 0 231 -317zM385 292q0 113 -24.5 164.5t-75.5 51.5q-99 0 -99 -210q0 -110 22.5 -158t76.5 -48q50 0 75 46t25 154z" />
    <glyph glyph-name="uni0666" unicode="&#x666;" horiz-adv-x="466" 
d="M251 0v496h-207v104h339v-600h-132z" />
    <glyph glyph-name="uni0667" unicode="&#x667;" horiz-adv-x="546" 
d="M535 596l-183 -596h-167l-175 600h143l89 -332q17 -65 31 -135h2q12 71 32 142l94 342z" />
    <glyph glyph-name="uni0668" unicode="&#x668;" horiz-adv-x="546" 
d="M362 600l171 -588l-134 -30l-94 349q-24 99 -30 135h-3q-12 -67 -32 -142l-90 -324h-138l183 600h167z" />
    <glyph glyph-name="uni0669" unicode="&#x669;" horiz-adv-x="538" 
d="M478 0h-132v215q-40 -10 -94 -10q-112 0 -167 54.5t-55 138.5q0 98 67 154.5t182 56.5q46 0 95.5 -3.5t76.5 -7.5l27 -4v-594zM346 317v179q-31 9 -75 9q-51 0 -77.5 -27t-26.5 -71q0 -46 26.5 -72t69.5 -26q47 0 83 8z" />
    <glyph glyph-name="uni066A" unicode="&#x66a;" horiz-adv-x="655" 
d="M581 631l-416 -694l-92 45l416 694zM250 531q0 -34 -24.5 -58.5t-58.5 -24.5q-35 0 -59 24t-24 59q0 34 24.5 58.5t58.5 24.5t58.5 -24.5t24.5 -58.5zM404 83q0 34 24.5 58.5t58.5 24.5q35 0 59 -24t24 -59t-24 -59t-59 -24q-34 0 -58.5 24.5t-24.5 58.5z" />
    <glyph glyph-name="uni066B" unicode="&#x66b;" horiz-adv-x="300" 
d="M128 149q51 0 72 -50q29 -69 -26 -162q-33 -57 -94 -110l-53 47q50 53 58.5 90.5t-17.5 63.5q-29 33 -10 77t70 44z" />
    <glyph glyph-name="uni066C" unicode="&#x66c;" horiz-adv-x="300" 
d="M128 569q51 0 72 -50q29 -69 -26 -162q-33 -57 -94 -110l-53 47q50 53 58.5 90.5t-17.5 63.5q-29 33 -10 77t70 44z" />
    <glyph glyph-name="uni066D" unicode="&#x66d;" horiz-adv-x="604" 
d="M214 11l-92 72l103 121l-155 34l38 110l143 -62l-11 158l119 1l-16 -158l144 62l41 -112l-155 -31l101 -122l-93 -71l-82 140z" />
    <glyph glyph-name="uni0670" unicode="&#x670;" horiz-adv-x="137" 
d="M158 758l-95 -14v236h95v-222z" />
    <glyph glyph-name="uni06C3" unicode="&#x6c3;" horiz-adv-x="594" 
d="M525 0h-219q-268 0 -268 231q0 108 68 180t193 72q114 0 170 -60.5t56 -169.5v-253zM396 104v133q0 142 -107 142q-55 0 -87 -37.5t-32 -97.5q0 -71 36.5 -105.5t113.5 -34.5h76zM373 546q-28 0 -47 19.5t-19 48.5q0 28 19 48t47 20t47 -19.5t19 -48.5q0 -28 -19 -48
t-47 -20zM207 546q-28 0 -47 19.5t-19 48.5q0 28 19 48t47 20t47.5 -19.5t19.5 -48.5q0 -28 -19.5 -48t-47.5 -20z" />
    <glyph glyph-name="uni06D5" unicode="&#x6d5;" horiz-adv-x="594" 
d="M525 0h-219q-268 0 -268 231q0 108 68 180t193 72q114 0 170 -60.5t56 -169.5v-253zM396 104v133q0 142 -107 142q-55 0 -87 -37.5t-32 -97.5q0 -71 36.5 -105.5t113.5 -34.5h76z" />
    <glyph glyph-name="uni06F0" unicode="&#x6f0;" horiz-adv-x="382" 
d="M286 288q0 -40 -27.5 -67.5t-67.5 -27.5t-67.5 27.5t-27.5 67.5q0 39 27.5 67t67.5 28t67.5 -28t27.5 -67z" />
    <glyph glyph-name="uni06F1" unicode="&#x6f1;" horiz-adv-x="310" 
d="M217 600v-600h-132v600h132z" />
    <glyph glyph-name="uni06F2" unicode="&#x6f2;" horiz-adv-x="536" 
d="M217 0h-132v600h132v-95q0 -52 18 -74.5t57 -22.5t55.5 23.5t16.5 72.5v96h132v-88q0 -93 -56.5 -150t-154.5 -57q-51 0 -72 24q4 -35 4 -75v-254z" />
    <glyph glyph-name="uni06F3" unicode="&#x6f3;" horiz-adv-x="655" 
d="M85 0v600h132v-111q0 -76 52 -76q27 0 35.5 18.5t8.5 56.5v112h94v-112q0 -40 9 -57t38 -17q25 0 37 16t12 58v112h121v-102q0 -87 -43 -137.5t-127 -50.5q-76 0 -103 48q-26 -48 -85 -48q-43 0 -53 23q4 -52 4 -74v-259h-132z" />
    <glyph glyph-name="uni06F4" unicode="&#x6f4;" horiz-adv-x="621" 
d="M85 0v600h132v-68q0 -54 19 -82.5t57 -40.5q-18 25 -18 62q0 69 39 112t112 43q62 0 106 -32l-42 -77q-30 22 -63 22q-51 0 -51 -65q0 -21 8.5 -43t16.5 -29q70 8 143 66l51 -83q-108 -87 -229 -87q-105 0 -152 52q3 -34 3 -68v-282h-132z" />
    <glyph glyph-name="uni06F5" unicode="&#x6f5;" horiz-adv-x="600" 
d="M234 479q-41 26 -105 56l92 105q174 -92 255 -196t81 -242q0 -94 -43 -153t-122 -59q-64 0 -95 48q-28 -48 -93 -48q-75 0 -118 48.5t-43 143.5q0 189 191 297zM427 190q0 132 -109 232q-72 -37 -108.5 -97.5t-36.5 -132.5q0 -98 46 -98q15 0 25.5 11.5t16 26t15.5 26
t24 11.5q21 0 40.5 -37.5t42.5 -37.5q19 0 31.5 23.5t12.5 72.5z" />
    <glyph glyph-name="uni06F6" unicode="&#x6f6;" horiz-adv-x="535" 
d="M159 -11l-116 33q42 123 110 212q-86 57 -86 162q0 98 73 160t207 62q64 0 101 -10l-22 -103q-33 10 -84 10q-72 0 -107.5 -29.5t-35.5 -78.5q0 -53 43 -86q100 85 246 115v-118q-238 -61 -329 -329z" />
    <glyph glyph-name="uni06F7" unicode="&#x6f7;" horiz-adv-x="546" 
d="M535 596l-183 -596h-167l-175 600h143l89 -332q17 -65 31 -135h2q12 71 32 142l94 342z" />
    <glyph glyph-name="uni06F8" unicode="&#x6f8;" horiz-adv-x="546" 
d="M362 600l171 -588l-134 -30l-94 349q-24 99 -30 135h-3q-12 -67 -32 -142l-90 -324h-138l183 600h167z" />
    <glyph glyph-name="uni06F9" unicode="&#x6f9;" horiz-adv-x="538" 
d="M478 0h-132v215q-40 -10 -94 -10q-112 0 -167 54.5t-55 138.5q0 98 67 154.5t182 56.5q46 0 95.5 -3.5t76.5 -7.5l27 -4v-594zM346 317v179q-31 9 -75 9q-51 0 -77.5 -27t-26.5 -71q0 -46 26.5 -72t69.5 -26q47 0 83 8z" />
    <glyph glyph-name="endash" unicode="&#x2013;" horiz-adv-x="550" 
d="M550 242h-550v111h550v-111z" />
    <glyph glyph-name="emdash" unicode="&#x2014;" horiz-adv-x="1000" 
d="M889 242h-778v111h778v-111z" />
    <glyph glyph-name="quoteleft" unicode="&#x2018;" horiz-adv-x="267" 
d="M230 709q-90 -96 -41 -154q30 -33 11 -77t-70 -44q-49 0 -72 45t5 123t115 154z" />
    <glyph glyph-name="quoteright" unicode="&#x2019;" horiz-adv-x="267" 
d="M136 747q49 0 72 -45t-5 -123t-115 -154l-53 47q50 53 58.5 90.5t-17.5 63.5q-29 33 -10 77t70 44z" />
    <glyph glyph-name="quotesinglbase" unicode="&#x201a;" horiz-adv-x="267" 
d="M136 149q49 0 72 -45t-5 -123t-115 -154l-53 47q50 53 58.5 90.5t-17.5 63.5q-29 33 -10 77t70 44z" />
    <glyph glyph-name="quotedblleft" unicode="&#x201c;" horiz-adv-x="485" 
d="M449 709q-90 -96 -41 -154q29 -33 10 -77t-69 -44q-49 0 -72.5 45t4.5 123t115 154zM230 709q-90 -96 -41 -154q30 -33 11 -77t-70 -44q-49 0 -72 45t5 123t115 154z" />
    <glyph glyph-name="quotedblright" unicode="&#x201d;" horiz-adv-x="485" 
d="M354 747q49 0 72.5 -45t-4.5 -123t-115 -154l-53 47q90 96 41 154q-29 33 -10 77t69 44zM136 747q49 0 72 -45t-5 -123t-115 -154l-53 47q50 53 58.5 90.5t-17.5 63.5q-29 33 -10 77t70 44z" />
    <glyph glyph-name="quotedblbase" unicode="&#x201e;" horiz-adv-x="485" 
d="M354 149q49 0 72.5 -45t-4.5 -123t-115 -154l-53 47q49 53 57.5 90.5t-16.5 63.5q-29 33 -10 77t69 44zM136 149q49 0 72 -45t-5 -123t-115 -154l-53 47q50 53 58.5 90.5t-17.5 63.5q-29 33 -10 77t70 44z" />
    <glyph glyph-name="dagger" unicode="&#x2020;" horiz-adv-x="457" 
d="M416 533h-135l21 -88l-23 -255h-100l-24 255l21 88h-134v99h134l-21 136h147l-21 -136h135v-99z" />
    <glyph glyph-name="daggerdbl" unicode="&#x2021;" horiz-adv-x="457" 
d="M416 287h-134l21 -122h-149l21 122h-133v98h133l-20 81l20 82h-133v98h133l-20 122h147l-20 -122h134v-98h-134l20 -82l-20 -81h134v-98z" />
    <glyph glyph-name="bullet" unicode="&#x2022;" horiz-adv-x="423" 
d="M360 297q0 -61 -44 -104.5t-105 -43.5t-104.5 43.5t-43.5 104.5t43.5 104.5t104.5 43.5t105 -43.5t44 -104.5z" />
    <glyph glyph-name="ellipsis" unicode="&#x2026;" horiz-adv-x="723" 
d="M670 67q0 -32 -23 -55t-55 -23t-55 23t-23 55t23 55t55 23t55 -23t23 -55zM437 67q0 -32 -23 -55t-55 -23t-55 23t-23 55t23 55t55 23t55 -23t23 -55zM204 67q0 -32 -23.5 -55t-55.5 -23t-55 23t-23 55t23 55t55 23t55.5 -23t23.5 -55z" />
    <glyph glyph-name="perthousand" unicode="&#x2030;" horiz-adv-x="1052" 
d="M329 536q0 -75 -43.5 -119.5t-105.5 -44.5q-65 0 -102.5 39t-37.5 113q0 73 43.5 117.5t105.5 44.5q63 0 101.5 -37t38.5 -113zM237 530q0 41 -12.5 58.5t-38.5 17.5q-23 0 -38 -20.5t-15 -56.5q0 -77 51 -77q24 0 38.5 20.5t14.5 57.5zM655 635l-519 -655l-76 59
l519 655zM677 153q0 -75 -43.5 -119.5t-105.5 -44.5q-65 0 -102.5 39t-37.5 113q0 73 43 117.5t105 44.5q64 0 102.5 -37t38.5 -113zM584 147q0 76 -50 76q-24 0 -38.5 -20.5t-14.5 -56.5q0 -77 51 -77q23 0 37.5 20.5t14.5 57.5zM1005 153q0 -75 -43.5 -119.5t-105.5 -44.5
q-65 0 -102.5 39t-37.5 113q0 73 43 117.5t105 44.5q63 0 102 -37t39 -113zM912 147q0 76 -50 76q-24 0 -38.5 -20.5t-14.5 -56.5q0 -77 51 -77q23 0 37.5 20.5t14.5 57.5z" />
    <glyph glyph-name="guilsinglleft" unicode="&#x2039;" horiz-adv-x="312" 
d="M255 148l-101 -48l-113 192l115 195l97 -47l-89 -147z" />
    <glyph glyph-name="guilsinglright" unicode="&#x203a;" horiz-adv-x="312" 
d="M272 295l-116 -195l-97 47l90 147l-91 145l101 48z" />
    <glyph glyph-name="fraction" unicode="&#x2044;" horiz-adv-x="201" 
d="M474 754l-651 -904l-79 54l652 905z" />
    <glyph glyph-name="fraction" unicode="&#x2215;" horiz-adv-x="201" 
d="M474 754l-651 -904l-79 54l652 905z" />
    <glyph glyph-name="Euro" unicode="&#x20ac;" horiz-adv-x="592" 
d="M565 40q-82 -51 -189 -51q-251 0 -286 231h-78v77h72v19q0 21 2 57h-74v77h83q24 116 102 176t194 60q97 0 165 -36l-30 -103q-57 33 -136 33q-126 0 -153 -130h194v-77h-206q0 -5 -0.5 -17t-0.5 -18q0 -28 1 -41h206v-77h-196q24 -125 159 -125q71 0 137 42z" />
    <glyph glyph-name="trademark" unicode="&#x2122;" horiz-adv-x="689" 
d="M654 394h-95l-18 121l-5 47l-9 -43l-33 -125h-85l-33 128l-8 40l-2 -36l-19 -132h-86l45 281h109l34 -123l8 -41l7 39l34 125h110zM253 598h-65v-204h-91v204h-68v77h224v-77z" />
    <glyph glyph-name="partialdiff" unicode="&#x2202;" horiz-adv-x="634" 
d="M572 399q0 -208 -103 -321q-77 -85 -196 -85q-102 0 -156.5 57t-54.5 154q0 107 68.5 176.5t179.5 69.5q89 0 130 -64l-7 66q-11 86 -66 132.5t-137 45.5l18 107q147 -2 235.5 -92.5t88.5 -245.5zM413 238q0 47 -27.5 75.5t-80.5 28.5q-51 0 -84 -36t-33 -91
q0 -54 27.5 -83t75.5 -29q52 0 87 38.5t35 96.5z" />
    <glyph glyph-name="product" unicode="&#x220f;" horiz-adv-x="784" 
d="M743 622h-97v-863h-119v863h-268v-863h-121v863h-97v108h702v-108z" />
    <glyph glyph-name="summation" unicode="&#x2211;" horiz-adv-x="607" 
d="M558 -241h-522v99l291 396l-273 376v100h489v-108h-332l264 -364l-288 -387h371v-112z" />
    <glyph glyph-name="minus" unicode="&#x2212;" horiz-adv-x="550" 
d="M511 242h-472v111h472v-111z" />
    <glyph glyph-name="radical" unicode="&#x221a;" horiz-adv-x="616" 
d="M605 758l-232 -758h-148l-135 401h-87v96h192l80 -258q19 -58 27 -97h1q14 66 21 92l141 524h140z" />
    <glyph glyph-name="infinity" unicode="&#x221e;" horiz-adv-x="984" 
d="M940 304q0 -81 -55 -135t-151 -54q-101 0 -246 107q-145 -107 -251 -107q-93 0 -143 50.5t-50 128.5q0 82 56 135.5t145 53.5q105 0 250 -109q147 109 249 109q91 0 143.5 -50t52.5 -129zM818 300q0 32 -21 52t-57 20q-52 0 -149 -71q101 -75 149 -75q37 0 57.5 21
t20.5 53zM392 296q-100 76 -148 76q-37 0 -57 -21t-20 -52q0 -32 21 -52.5t57 -20.5q52 0 147 70z" />
    <glyph glyph-name="integral" unicode="&#x222b;" horiz-adv-x="345" 
d="M316 863q-21 7 -45 7q-33 0 -46.5 -26t-13.5 -103q0 -75 10 -382.5t10 -410.5q0 -142 -40.5 -204.5t-126.5 -62.5q-30 0 -56 6v110q20 -6 43 -6q34 0 47.5 26t13.5 105q0 71 -9.5 378t-9.5 413q0 141 43.5 204t127.5 63q24 0 52 -7v-110z" />
    <glyph glyph-name="approxequal" unicode="&#x2248;" horiz-adv-x="551" 
d="M512 375q-64 -64 -140 -64q-44 0 -100 29t-94 29q-49 0 -100 -42l-40 85q70 64 144 64q48 0 106 -29.5t86 -29.5q48 0 95 44zM513 174q-65 -60 -141 -60q-49 0 -105.5 29t-88.5 29q-46 0 -98 -43l-42 86q68 64 137 64q47 0 105 -29.5t96 -29.5q51 0 96 39z" />
    <glyph glyph-name="notequal" unicode="&#x2260;" horiz-adv-x="564" 
d="M510 150h-229l-48 -121h-114l48 121h-114v103h154l35 88h-189v103h229l48 121h115l-48 -121h113v-103h-154l-35 -88h189v-103z" />
    <glyph glyph-name="lessequal" unicode="&#x2264;" horiz-adv-x="550" 
d="M468 235l-80 -90l-333 257l332 257l81 -86l-242 -170zM479 0h-408v107h408v-107z" />
    <glyph glyph-name="greaterequal" unicode="&#x2265;" horiz-adv-x="550" 
d="M495 403l-332 -258l-81 87l242 170l-242 168l80 89zM479 0h-408v107h408v-107z" />
    <glyph glyph-name="lozenge" unicode="&#x25ca;" horiz-adv-x="626" 
d="M604 336l-249 -345h-80l-253 348l251 345h78zM464 331l-156 214l-145 -203l154 -213z" />
    <glyph glyph-name="apple" unicode="&#xf8ff;" horiz-adv-x="1044" 
d="M166 306l-150 -15q-6 45 0 89l150 -14q-3 -31 0 -60zM294 607q-24 -18 -42 -42l-116 95q37 42 62 62zM566 830l-14 -145q-24 4 -59 0l-15 145q45 5 88 0zM907 659l-113 -93q-19 24 -42 42l93 113q38 -31 62 -62zM1029 292l-148 14q3 29 0 60l147 13q4 -41 1 -87zM779 335
q0 -102 -66 -171v-80l-16 -5l32 -76l-32 -8l32 -73l-33 -9l10 -24l-31 -71h-57q-3 -21 -30.5 -34.5t-65.5 -13.5q-39 0 -66 14t-30 34h-57l-54 130l31 9l-32 75l35 10l-19 44v79q-65 73 -65 170q0 107 75 182t182 75q106 0 181.5 -75t75.5 -182zM645 -51l-13 31l-234 -61
l24 -55h201l11 27l-4 10l-70 -18l-15 41zM645 32l-13 32l-234 -61l13 -30zM644 116v22h-244v-47l14 -34zM560 329q-14 3 -38 3t-40 -3l15 -137h51zM711 335q0 79 -55.5 134.5t-133.5 55.5t-133.5 -55.5t-55.5 -134.5q0 -87 66 -143h50l-16 129q-6 -1 -38 -12q-9 -3 -14 11.5
t-3 31.5t9 19q73 20 135 20t137 -20q6 -2 8 -19t-3 -31.5t-15 -11.5q-14 6 -40 12l-13 -129h49q66 57 66 143zM531 355q2 0 2 5t-2 5q3 -5 0 -10zM530 361v1q-3 0 -1.5 -2t-0.5 -2v-1q3 1 2 4zM526 357v3q0 5 -4 1q2 0 3 -1q-2 0 -3 -2h3v-1h1zM522 355q-3 5 0 10
q-2 0 -2 -5t2 -5zM518 357v1q-1 0 -1 1t1 2v1q-2 1 -2 -2q0 -2 2 -3zM514 359v3h-1v-3h-1v3h-1v-3q1 -2 3 0zM510 357v1h-2v6h-1v-7h3z" />
    <glyph glyph-name="fi" unicode="&#xfb01;" horiz-adv-x="595" 
d="M526 0h-127v398h-177v-398h-127v398h-87v99h87v18q0 112 60 167.5t185 55.5q75 0 154 -19l-22 -106q-62 20 -122 20q-67 0 -97.5 -27.5t-30.5 -82.5v-26h304v-497z" />
    <glyph glyph-name="fl" unicode="&#xfb02;" horiz-adv-x="595" 
d="M526 0h-127v628q-36 6 -70 6q-107 0 -107 -95v-42h109v-99h-109v-398h-127v398h-87v99h87v48q0 91 59.5 142t185.5 51q72 0 186 -17v-721z" />
    <glyph glyph-name="uniFD3E" unicode="&#xfd3e;" horiz-adv-x="362" 
d="M330 -205h-21q-97 0 -139.5 53t-42.5 170v135q0 60 -23.5 84.5t-76.5 27.5v96q54 3 77 25.5t23 82.5v87q0 112 42.5 166.5t139.5 54.5h21v-101q-49 0 -66.5 -23.5t-17.5 -94.5v-86q0 -142 -92 -158v-2q92 -13 92 -161v-134q0 -72 17.5 -95.5t66.5 -23.5v-103z" />
    <glyph glyph-name="uniFD3F" unicode="&#xfd3f;" horiz-adv-x="360" 
d="M338 265q-52 -3 -76 -27.5t-24 -84.5v-135q0 -117 -42.5 -170t-138.5 -53h-22v103q50 0 67.5 23.5t17.5 95.5v134q0 148 92 161v2q-92 13 -92 155v89q0 71 -17.5 94.5t-67.5 23.5v101h22q97 0 139 -54.5t42 -166.5v-84q0 -62 23 -85t77 -26v-96z" />
    <glyph glyph-name="uniFC5E" 
d="M-5 791l-28 132l52 11l18 -84l43 9q-6 15 -6 30q0 40 27 65.5t67 25.5q37 0 56 -18.5t19 -50.5q0 -70 -84 -86zM133 870l21 4q34 8 34 35q0 22 -25 22q-15 0 -24.5 -10.5t-9.5 -26.5zM137 684q-15 -38 -62 -38q-23 0 -35.5 15t-19.5 50l-8 37l51 10l7 -35q4 -22 19 -22
q22 0 17 31l-6 38l49 10l8 -37q6 -25 21 -25q23 0 18 37l-7 40l50 9l7 -37q9 -46 -9 -73.5t-59 -27.5q-26 0 -41 18z" />
    <glyph glyph-name="uniFC5F" 
d="M48 732l-8 49l210 32l8 -49zM60 655l-8 49l211 33l7 -49zM131 862q-16 -36 -60 -36q-25 0 -37.5 15.5t-18.5 50.5l-7 37l50 9l7 -35q3 -22 19 -22q10 -1 14.5 7.5t2.5 22.5l-5 38l49 9l7 -37q6 -26 21 -26q23 1 18 37l-6 40l50 8l7 -37q8 -46 -10.5 -72.5t-58.5 -27.5
q-26 0 -42 19z" />
    <glyph glyph-name="uniFC60" 
d="M48 898l-8 50l206 32l8 -49zM172 773q-14 -37 -60 -37q-25 0 -37.5 15.5t-18.5 50.5l-7 38l51 9l6 -36q4 -21 20 -21q21 0 16 30l-5 37l50 10l7 -37q4 -26 20 -26q23 0 18 37l-6 39l51 9l6 -37q8 -46 -10.5 -72.5t-58.5 -27.5q-26 0 -42 19z" />
    <glyph glyph-name="uniFC61" 
d="M137 684q-15 -38 -62 -38q-23 0 -35.5 15t-19.5 50l-8 37l51 10l7 -35q4 -22 19 -22q22 0 17 31l-6 38l49 10l8 -37q6 -25 21 -25q23 0 18 37l-7 40l50 9l7 -37q9 -46 -9 -73.5t-59 -27.5q-26 0 -41 18zM7 792l-11 51l70 15q-5 14 -5 33q0 40 27 64.5t69 24.5
q40 0 61.5 -19.5t21.5 -52.5q0 -37 -24.5 -56.5t-70.5 -29.5zM124 871l16 3q40 8 40 30q0 25 -27 25q-34 0 -34 -36z" />
    <glyph glyph-name="uniFC62" 
d="M75 735l-9 49l211 32l8 -49zM159 862q-16 -36 -60 -36q-25 0 -37.5 15.5t-18.5 50.5l-7 37l50 9l7 -35q3 -22 19 -22q10 -1 14.5 7.5t2.5 22.5l-5 38l49 9l7 -37q6 -26 21 -26q23 1 18 37l-6 40l51 8l6 -37q8 -46 -10.5 -72.5t-58.5 -27.5q-26 0 -42 19z" />
    <glyph glyph-name="uniFC63" 
d="M125 765q-15 -32 -59 -34q-25 -1 -38 13t-20 46l-8 35l50 9l7 -32q4 -21 20 -21q22 0 17 30l-6 34l49 10l8 -35q3 -13 8 -18.5t13 -4.5q24 0 17 34l-7 37l51 8l7 -33q9 -42 -9 -67.5t-58 -26.5q-27 0 -42 16zM133 888l-53 -10v102h53v-92z" />
    <glyph glyph-name="loop.init" horiz-adv-x="612" 
d="M543 0h-543v104h57q16 0 30 -2t20 -4l6 -1q-56 41 -56 143t68 172.5t192 70.5q114 0 170 -60.5t56 -169.5v-253zM414 104v133q0 142 -107 142q-55 0 -87 -37.5t-32 -97.5q0 -71 36.5 -105.5t113.5 -34.5h76z" />
    <glyph glyph-name="wasla" 
d="M127 827h112v15q0 65 -36 65q-27 0 -46.5 -23t-29.5 -57zM9 766v61h46q20 65 59.5 102t95.5 37q46 0 72 -29t26 -89v-82h-299z" />
    <glyph glyph-name="hamza_medial" 
d="M44 554v75q37 0 56 -4q-19 9 -19 39q0 47 36 79.5t109 32.5q24 0 59 -5l-12 -75q-25 5 -50 5q-48 0 -48 -34q0 -38 69 -38h57v-75h-257z" />
    <glyph glyph-name="xx.TahAbove" 
d="M259 674q0 48 -38 48q-32 0 -61.5 -32t-39.5 -75h67q72 0 72 59zM121 845v-78q0 -21 -7 -58h1q19 31 50.5 50t67.5 19q100 0 100 -97q0 -56 -40.5 -89t-113.5 -33h-129v286h71z" />
    <glyph glyph-name="uni0651064B" 
d="M8 899l-8 49l211 32l7 -49zM21 822l-9 49l211 33l7 -49zM145 696q-14 -36 -60 -36q-25 0 -37.5 15.5t-18.5 50.5l-7 37l51 9l6 -35q4 -22 20 -22q21 0 16 30l-5 38l50 9l7 -37q4 -26 20 -26q22 1 19 37l-6 40l50 8l6 -37q8 -46 -10.5 -72.5t-58.5 -27.5q-26 0 -42 19z
" />
    <glyph glyph-name="uni0654064F" 
d="M28 633v52q32 0 60 -5q-11 4 -19 16t-8 27q0 36 33 54t81 18q30 0 56 -8l-9 -48q-24 6 -47 6q-46 0 -46 -26q0 -34 63 -34h54v-52h-218zM17 792l-11 51l69 15q-6 14 -6 32q0 40 28.5 65t70.5 25q40 0 61.5 -20t21.5 -52q0 -66 -95 -86zM132 870l19 4q40 9 40 30
q0 25 -27 25q-16 0 -26.5 -10.5t-10.5 -26.5z" />
    <glyph glyph-name="uni06540652" 
d="M113 818q-85 0 -85 78q0 37 26 60.5t65 23.5q41 0 63 -20t22 -58q0 -39 -26 -61.5t-65 -22.5zM115 864q31 0 31 36q0 34 -29 34q-14 0 -23 -9.5t-9 -24.5q0 -36 30 -36zM0 626v52q7 0 57 -5q-10 4 -18 16.5t-8 26.5q0 36 33 54t81 18q29 0 56 -8l-9 -48q-32 5 -47 5
q-46 0 -46 -25q0 -34 63 -34h51v-52h-213z" />
    <glyph glyph-name="uni0654064B" 
d="M9 898l-9 49l210 33l9 -49zM22 822l-9 48l211 33l7 -48zM21 650v52q2 0 57 -5q-10 4 -18.5 16.5t-8.5 26.5q0 36 33 53.5t82 17.5q23 0 56 -7l-9 -48q-22 5 -48 5q-45 0 -45 -25q0 -34 63 -34h50v-52h-212z" />
    <glyph glyph-name="uni0654064C" 
d="M48 638v51q32 0 57 -5q-26 12 -26 43q0 37 32.5 54.5t81.5 17.5q23 0 56 -7l-9 -49q-26 6 -47 6q-46 0 -46 -25q0 -35 63 -35h51v-51h-213zM28 791l-28 132l54 12l18 -83l36 7l-4 33q0 38 26.5 63t65.5 25q38 0 57 -18.5t19 -50.5q0 -68 -85 -86zM163 870l19 4
q35 8 35 35q0 22 -25 22q-15 0 -24.5 -10.5t-9.5 -26.5z" />
    <glyph glyph-name="uni0654064E" 
d="M8 899l-8 49l210 32l8 -49zM7 726v52q3 0 58 -5q-11 4 -19 16t-8 27q0 36 33 54t81 18q28 0 56 -8l-9 -48q-22 5 -47 5q-46 0 -46 -25q0 -34 63 -34h51v-52h-213z" />
    <glyph glyph-name="uni0655064D" 
d="M0 -320v44h202v-44h-202zM0 -255v44h202v-44h-202zM0 -190v46q15 0 55 -4q-10 3 -17.5 14.5t-7.5 25.5q0 33 31 49t77 16q30 0 53 -7l-8 -43q-33 5 -46 5q-44 0 -44 -23q0 -33 61 -33h48v-46h-202z" />
    <glyph glyph-name="uni06550650" 
d="M0 -320v49h213v-49h-213zM0 -248v52q7 0 57 -5q-10 4 -18 16t-8 27q0 36 32.5 53.5t81.5 17.5q23 0 56 -7l-9 -48q-22 5 -47 5q-46 0 -46 -25q0 -34 63 -34h51v-52h-213z" />
    <glyph glyph-name="wasle" horiz-adv-x="94" 
d="M0 0v104h110v-104h-110z" />
    <glyph glyph-name="Kashida.Narrow" horiz-adv-x="189" 
d="M0 0v104h209v-104h-209z" />
    <glyph glyph-name="kashida.long" horiz-adv-x="197" 
d="M-1 0v104h199v-104h-199z" />
    <glyph glyph-name="grave.cap" horiz-adv-x="374" 
d="M299 786l-21 -70l-215 53l29 92z" />
    <glyph glyph-name="acute.cap" horiz-adv-x="393" 
d="M318 769l-216 -53l-21 70l208 75z" />
    <glyph glyph-name="dieresis.cap" horiz-adv-x="546" 
d="M436 785q0 -28 -19.5 -47t-47.5 -19t-47 19t-19 47t19 47t47 19t47.5 -19t19.5 -47zM221 785q0 -28 -19.5 -47t-47.5 -19t-47.5 19t-19.5 47t19.5 47t47.5 19t47.5 -19t19.5 -47z" />
    <glyph glyph-name="circumflex.cap" horiz-adv-x="426" 
d="M376 783l-31 -68l-139 56l-133 -55l-28 64l165 85z" />
    <glyph glyph-name="tilde.cap" horiz-adv-x="467" 
d="M428 810q-46 -82 -125 -82q-38 0 -75 23.5t-53 23.5q-33 0 -58 -43l-63 44q46 82 125 82q38 0 75 -23.5t53 -23.5q33 0 58 42z" />
    <glyph glyph-name="caron.cap" horiz-adv-x="426" 
d="M375 801l-165 -86l-166 82l31 68l138 -56l134 55z" />
    <glyph glyph-name="ring.cap" horiz-adv-x="365" 
d="M300 780q0 -47 -35 -80t-83 -33q-49 0 -82.5 31.5t-33.5 79.5t34 80t83 32t83 -31t34 -79zM230 779q0 20 -14 34t-33 14t-33.5 -14.5t-14.5 -33.5t14.5 -33.5t33.5 -14.5t33 14t14 34z" />
    <glyph glyph-name="uni0627.short" horiz-adv-x="302" 
d="M85 0v675h132v-675h-132z" />
    <glyph glyph-name="uniFE8E.short" horiz-adv-x="302" 
d="M85 0v675h132v-571h100v-104h-232z" />
    <glyph glyph-name="uni0627.mini" horiz-adv-x="302" 
d="M85 0v601h132v-601h-132z" />
    <glyph glyph-name="uniFE8E.mini" horiz-adv-x="302" 
d="M85 0v601h132v-497h100v-104h-232z" />
    </font>
</defs>
</svg>
